<?xml version="1.0" encoding="UTF-8" standalone="no"?>
<!-- Created with Inkscape (http://www.inkscape.org/) -->

<svg
   version="1.1"
   id="svg1"
   width="1333.3333"
   height="1333.3333"
   viewBox="0 0 1333.3333 1333.3333"
   sodipodi:docname="add.svg"
   inkscape:version="1.3 (0e150ed6c4, 2023-07-21)"
   xmlns:inkscape="http://www.inkscape.org/namespaces/inkscape"
   xmlns:sodipodi="http://sodipodi.sourceforge.net/DTD/sodipodi-0.dtd"
   xmlns="http://www.w3.org/2000/svg"
   xmlns:svg="http://www.w3.org/2000/svg">
  <defs
     id="defs1" />
  <sodipodi:namedview
     id="namedview1"
     pagecolor="#ffffff"
     bordercolor="#000000"
     borderopacity="0.25"
     inkscape:showpageshadow="2"
     inkscape:pageopacity="0.0"
     inkscape:pagecheckerboard="0"
     inkscape:deskcolor="#d1d1d1"
     inkscape:zoom="0.31581159"
     inkscape:cx="987.93082"
     inkscape:cy="254.89882"
     inkscape:window-width="2560"
     inkscape:window-height="1369"
     inkscape:window-x="1912"
     inkscape:window-y="-8"
     inkscape:window-maximized="1"
     inkscape:current-layer="g1" />
  <g
     inkscape:groupmode="layer"
     inkscape:label="Image"
     id="g1">
    <path
       style="fill:#b7c991;stroke:none"
       d="m 599.99996,111.23762 c -13.37483,1.91529 -26.65112,5.53695 -38.66666,11.85604 -79.96081,42.05216 -60.63773,131.98241 -57.38582,206.23965 1.63456,37.32463 2.0706,74.78426 5.61218,112 2.63473,27.68627 14.1519,71.95287 -0.28499,97.33227 -17.87,31.41454 -66.97965,19.18815 -95.94136,15.23461 -43.44661,-5.9309 -88.13289,-1.90022 -131.99999,-1.90022 -32.40601,0 -68.10563,-4.17009 -100,1.94751 -97.724998,18.74446 -122.756964,148.4663 -45.33333,206.49893 32.6602,24.48038 70.72259,22.22021 109.33333,22.22021 59.37615,0 118.37462,-2.00749 177.33332,4.95264 27.76961,3.27832 65.0874,-2.4043 85.84155,20.60807 21.85083,24.22835 12.82511,73.65063 12.82511,103.77261 v 174.66666 c 0,28.9367 -4.63839,62.5982 3.23767,90.6667 15.90263,56.6733 69.38489,91.316 127.42899,85.1018 44.29647,-4.7424 83.98632,-39.6912 95.61523,-82.4352 10.00521,-36.7759 3.85091,-79.627 3.12345,-117.3333 -0.98413,-51.0107 1.26131,-102.26643 1.26131,-153.33332 0,-29.26945 -8.18945,-73.83122 10.34774,-98.66569 21.20402,-28.40722 79.93066,-20.51595 110.98559,-17.5607 52.97924,5.04174 106.88093,2.04142 160.00002,5.67903 35.6922,2.44434 74.9843,10.8099 110.6666,6.16154 102.8347,-13.39648 131.9717,-149.72163 50.6667,-208.74478 -30.6821,-22.2736 -67.8276,-21.83105 -104,-24.32202 -68.127,-4.6914 -137.0004,-9.21403 -205.33332,-9.21403 -20.01603,0 -39.93058,-1.33333 -60,-1.33333 -21.56453,0 -45.80867,1.13892 -62.64607,-14.79118 -21.95923,-20.77596 -17.12785,-64.14811 -20.40129,-91.87548 -5.99894,-50.81404 -9.01383,-103.53133 -10.26643,-154.66666 -0.87492,-35.71679 3.0533,-77.86189 -8.29322,-111.99999 -16.77229,-50.46248 -70.90282,-84.32666 -123.72631,-76.76237 z"
       id="path1" />
  </g>
</svg>
