<?xml version="1.0" encoding="UTF-8" standalone="no"?>
<!-- Created with Inkscape (http://www.inkscape.org/) -->

<svg
   version="1.1"
   id="svg1"
   width="1333.3333"
   height="1333.3333"
   viewBox="0 0 1333.3333 1333.3333"
   sodipodi:docname="back.svg"
   inkscape:version="1.3 (0e150ed6c4, 2023-07-21)"
   xmlns:inkscape="http://www.inkscape.org/namespaces/inkscape"
   xmlns:sodipodi="http://sodipodi.sourceforge.net/DTD/sodipodi-0.dtd"
   xmlns="http://www.w3.org/2000/svg"
   xmlns:svg="http://www.w3.org/2000/svg">
  <defs
     id="defs1" />
  <sodipodi:namedview
     id="namedview1"
     pagecolor="#ffffff"
     bordercolor="#000000"
     borderopacity="0.25"
     inkscape:showpageshadow="2"
     inkscape:pageopacity="0.0"
     inkscape:pagecheckerboard="0"
     inkscape:deskcolor="#d1d1d1"
     inkscape:zoom="0.44662503"
     inkscape:cx="517.21239"
     inkscape:cy="975.0909"
     inkscape:window-width="2560"
     inkscape:window-height="1369"
     inkscape:window-x="1912"
     inkscape:window-y="-8"
     inkscape:window-maximized="1"
     inkscape:current-layer="g1" />
  <g
     inkscape:groupmode="layer"
     inkscape:label="Image"
     id="g1">
    <path
       style="fill:#b7c991;stroke:none"
       d="m 426.66664,761.33329 h 389.33331 c 77.02376,0 156.8557,4.64282 233.33335,-4.3807 33.8939,-3.99902 70.8218,3.28369 104,-4.81689 52.1115,-12.72315 83.0961,-67.24235 74.0483,-118.80241 -1.9238,-10.96313 -5.9128,-20.86173 -11.0895,-30.66666 -36.4687,-69.0734 -120.0853,-50.69148 -184.2922,-50.66666 -28.9957,0.0112 -57.72717,4.98405 -86.66662,5.3282 -179.94221,2.13981 -360.04328,0.005 -539.99997,0.005 7.93774,-19.0603 22.71806,-34.87687 33.97428,-52 38.42033,-58.44547 87.3138,-111.91576 135.44547,-162.54735 24.94246,-26.23795 48.18945,-52.21753 67.83333,-82.78597 8.142,-12.67 17.47127,-24.10628 22.26851,-38.66666 30.31124,-91.9991 -71.75228,-168.41389 -152.85493,-120.44238 -23.69889,14.01766 -35.1401,38.7181 -50.48148,60.32308 -9.8639,13.89111 -22.61866,26.13655 -34.10392,38.67179 -48.07243,52.46704 -96.5263,104.64477 -139.54834,161.4475 -40.1535,53.0153 -74.36655,111.02441 -110.65636,166.66666 -31.41413,48.1665 -85.010219,101.43236 -78.311723,163.99999 3.553153,33.18831 22.609563,52.35986 44.535993,74.89811 20.89505,21.47818 42.56705,42.81103 62.41255,65.22118 26.55387,29.98568 56.50807,56.72135 84.4393,85.44043 67.79301,69.70499 136.2187,137.21992 208.13476,202.56172 29.49397,26.7976 56.76163,56.8531 87.81278,81.6563 16.91556,13.5119 30.65185,26.4078 52.4331,31.8951 78.00414,19.6515 151.29003,-56.8591 123.68,-133.6729 -10.85742,-30.2064 -34.19921,-46.554 -56.96085,-67.2325 -28.74479,-26.114 -56.3955,-53.32101 -85.38582,-79.20268 C 553.17937,893.90953 483.24163,831.04194 426.66664,761.33329 Z"
       id="path1" />
  </g>
</svg>
