<?xml version="1.0" encoding="UTF-8" standalone="no"?>
<!-- Created with Inkscape (http://www.inkscape.org/) -->

<svg
   version="1.1"
   id="svg1"
   width="1333.3333"
   height="1333.3333"
   viewBox="0 0 1333.3333 1333.3333"
   sodipodi:docname="brokenimage.svg"
   inkscape:version="1.3 (0e150ed6c4, 2023-07-21)"
   xmlns:inkscape="http://www.inkscape.org/namespaces/inkscape"
   xmlns:sodipodi="http://sodipodi.sourceforge.net/DTD/sodipodi-0.dtd"
   xmlns="http://www.w3.org/2000/svg"
   xmlns:svg="http://www.w3.org/2000/svg">
  <defs
     id="defs1" />
  <sodipodi:namedview
     id="namedview1"
     pagecolor="#ffffff"
     bordercolor="#000000"
     borderopacity="0.25"
     inkscape:showpageshadow="2"
     inkscape:pageopacity="0.0"
     inkscape:pagecheckerboard="0"
     inkscape:deskcolor="#d1d1d1"
     inkscape:zoom="0.89325005"
     inkscape:cx="666.10687"
     inkscape:cy="666.66663"
     inkscape:window-width="2560"
     inkscape:window-height="1369"
     inkscape:window-x="1912"
     inkscape:window-y="-8"
     inkscape:window-maximized="1"
     inkscape:current-layer="g1" />
  <g
     inkscape:groupmode="layer"
     inkscape:label="Image"
     id="g1">
    <path
       style="fill:#b7c991;stroke:none"
       d="m 185.33332,164.58536 c -42.53774,6.69564 -70.56308,40.88427 -78.25309,82.08129 -9.247442,49.54061 3.14973,104.45035 2.18108,154.66666 -0.86315,44.7469 -12.486943,89.29654 30.96502,119.92797 39.58506,27.90543 96.59914,11.40674 141.10699,9.45784 61.00195,-2.67114 121.80858,1.61418 182.66665,-4.2788 37.4456,-3.62598 74.39144,-7.5127 111.99999,-9.15951 27.32353,-1.19645 56.72673,-2.40893 82.66667,8.24593 30.74983,12.63054 57.59732,38.24292 82.66666,59.44035 46.52945,39.34301 91.51855,80.55448 139.99999,117.54524 36.34961,27.73437 72.39225,59.59732 121.33332,50.20678 23.4312,-4.49585 45.2365,-18.12313 65.3333,-30.32308 52.666,-31.97127 121.1224,-75.46899 137.6873,-138.39607 6.5979,-25.06437 2.9559,-51.87646 2.3323,-77.33332 -1.0474,-42.75838 -0.02,-85.35002 -0.02,-128 0,-27.65738 0.3331,-55.08414 0.01,-82.66666 -0.4512,-37.93815 -3.489,-78.96191 -40.0052,-100.92073 -28.0334,-16.85774 -55.5393,-15.00993 -86.6666,-17.97225 -59.0651,-5.62117 -118.17166,-3.90226 -177.33336,-6.49283 -33.73884,-1.47738 -67.72973,1.06673 -101.33332,-0.005 -128.17586,-4.0883 -257.0078,-1.27572 -385.33331,-1.27572 -44.79728,0 -90.01013,1.60547 -134.66666,-1.45263 -31.6572,-2.16797 -65.46985,-8.31079 -97.33333,-3.29533 m 769.33329,98.46199 c 20.66422,-2.43954 42.03344,0.42765 62.66669,0.9331 27.8423,0.68205 63.7518,-6.02905 84.2407,17.57918 24.9218,28.71599 11.7593,78.69873 11.7593,113.10701 0,31.08065 -0.7416,62.26302 0.019,93.33333 0.5539,22.61125 2.535,47.81225 -6.5206,69.33333 -11.4728,27.26579 -35.2404,46.74308 -58.8323,63.43416 -14.6364,10.35522 -31.2974,21.18603 -49.33329,24.13273 -37.13729,6.06754 -74.79305,-30.3352 -100.22632,-52.44857 -36.45711,-31.69815 -73.58707,-62.61978 -110.38785,-93.892 -27.07283,-23.00569 -55.52091,-48.42993 -88.05248,-63.48038 -45.74878,-21.16528 -101.58337,-15.89323 -150.66666,-12.5319 -42.32625,2.8986 -84.36889,9.10335 -126.66666,12 -40.79325,2.79362 -81.77744,0.45475 -122.66666,1.47216 -29.29498,0.72893 -57.99481,19.75472 -87.99999,10.20785 -17.32274,-5.51164 -8.18528,-29.98112 -6.89301,-43.56071 4.02191,-42.26302 0.96743,-85.60628 33.61729,-118.61417 21.10172,-21.33308 44.63621,-18.71915 71.94238,-18.71915 h 121.33332 337.33332 c 61.16007,0 124.60627,4.8833 185.33332,-2.28597 M 571.99997,628.5658 c -42.35812,5.62996 -83.46741,23.98189 -124,37.10701 -63.13333,20.44368 -126.71121,37.50911 -190.66665,54.92073 -40.39905,10.99854 -89.48665,10.92823 -114.8683,50.07308 -16.70088,25.75692 -14.46503,54.71118 -14.46503,83.99999 v 137.33333 c 0,22.59946 0.93611,45.42366 -0.0525,67.99996 -2.04646,46.7352 -14.74321,107.7762 32.05247,137.9352 27.54606,17.753 62.42094,12.8042 93.33333,11.4506 61.69771,-2.7016 123.73428,-1.0481 185.33332,-5.2665 56.47257,-3.8672 114.02294,-1.4526 170.66666,-1.4526 133.36954,0 267.11025,2.5529 400,-6.5474 29.3095,-2.007 58.5759,-2.7859 88,-2.7859 15.2806,0 33.0298,2.4795 48,-0.6904 27.4747,-5.8175 48.2928,-22.1772 55.788,-49.9763 8.8815,-32.9412 -0.8617,-69.2429 -1.3066,-102.6667 -0.6709,-50.40133 5.5186,-100.37821 5.5186,-150.66662 0,-28.11873 -1.0069,-57.507 -23.0484,-78.22835 -26.6255,-25.03092 -66.8646,-9.41732 -94.285,4.55038 -41.8434,21.31453 -83.3304,42.72558 -126.66663,60.91047 -18.68806,7.84196 -41.88451,18.93807 -62.66666,16.38583 -39.03377,-4.79395 -67.49023,-43.02515 -90.40022,-71.61833 -42.84204,-53.46972 -86.29215,-103.7622 -137.37341,-149.59463 -27.06225,-24.2815 -60.34997,-48.29574 -98.89301,-43.17285 m -13.33334,106.48152 c 42.8033,-5.06405 77.98405,34.10009 104.22225,62.33845 45.03979,48.47331 81.87214,103.51123 129.65738,149.54215 23.23388,22.38094 50.20263,46.70605 83.45369,51.51237 32.23453,4.65931 62.64526,-8.56429 91.99999,-20.30656 22.73942,-9.09619 45.97846,-17.21688 67.99996,-27.96712 15.6267,-7.6285 47.608,-30.99235 65.1009,-18.40845 11.9466,8.59416 9.0497,29.92277 9.6183,42.90845 1.195,27.29129 3.8472,55.54719 0.323,82.66669 -2.3123,17.7933 -7.8456,32.034 -27.0422,36.6615 -22.3825,5.3955 -45.3453,2.7423 -68,4.8981 -58.30432,5.5485 -116.03991,6.4404 -174.66662,6.4404 -124.94937,0 -249.89818,2.6666 -374.66664,2.6666 -50.67899,0 -101.29541,4 -151.99999,4 -21.10911,0 -47.35701,4.0917 -66.66667,-6.3333 -15.62707,-8.4368 -21.16241,-22.5233 -24.26131,-39 -5.99678,-31.8847 -1.07202,-68.88802 -1.07202,-101.33333 0,-35.65567 -10.08628,-90.53303 11.42696,-121.33332 19.89612,-28.48503 56.4102,-31.19043 87.2397,-40 43.21086,-12.34757 86.66528,-23.58382 129.33333,-37.80656 35.19983,-11.73331 70.94539,-26.7622 107.99999,-31.14607 z"
       id="path1" />
  </g>
</svg>
