<?xml version="1.0" encoding="UTF-8" standalone="no"?>
<!-- Created with Inkscape (http://www.inkscape.org/) -->

<svg
   version="1.1"
   id="svg1"
   width="1333.3333"
   height="1333.3333"
   viewBox="0 0 1333.3333 1333.3333"
   sodipodi:docname="cross.svg"
   inkscape:version="1.3 (0e150ed6c4, 2023-07-21)"
   xmlns:inkscape="http://www.inkscape.org/namespaces/inkscape"
   xmlns:sodipodi="http://sodipodi.sourceforge.net/DTD/sodipodi-0.dtd"
   xmlns="http://www.w3.org/2000/svg"
   xmlns:svg="http://www.w3.org/2000/svg">
  <defs
     id="defs1" />
  <sodipodi:namedview
     id="namedview1"
     pagecolor="#ffffff"
     bordercolor="#000000"
     borderopacity="0.25"
     inkscape:showpageshadow="2"
     inkscape:pageopacity="0.0"
     inkscape:pagecheckerboard="0"
     inkscape:deskcolor="#d1d1d1"
     inkscape:zoom="0.63162317"
     inkscape:cx="644.37155"
     inkscape:cy="616.66515"
     inkscape:window-width="2560"
     inkscape:window-height="1369"
     inkscape:window-x="1912"
     inkscape:window-y="-8"
     inkscape:window-maximized="1"
     inkscape:current-layer="g1" />
  <g
     inkscape:groupmode="layer"
     inkscape:label="Image"
     id="g1">
    <path
       id="path1"
       style="fill:#f9c1d5;stroke:none"
       d="M 216.625 175.5625 C 213.36862 175.68092 210.05104 176.02514 206.66602 176.61914 C 137.23532 188.80288 100.8733 271.37962 147.28516 328 C 158.46784 341.6424 172.40262 347.95208 186.66602 357.38672 C 207.86056 371.40607 228.64785 386.30242 249.33398 401.04297 C 316.13272 448.64245 382.3909 496.97132 449.28125 544.43945 C 475.42334 562.99094 501.16161 584.44241 525.32812 605.41797 C 530.4351 609.85058 547.92578 619.45631 547.92578 626.65234 C 547.92578 633.54224 527.86528 649.12712 522.61328 653.89844 C 497.88073 676.36753 476.31081 702.48285 453.05273 726.40625 C 363.20261 818.82673 271.54271 911.33706 186.28516 1008 C 173.73911 1022.2245 157.08068 1033.5548 146.44922 1049.3535 C 124.14092 1082.5045 125.18188 1128.4237 150.02344 1160 C 180.65932 1198.9416 241.94296 1207.0482 280.74805 1175.3223 C 310.68462 1150.847 333.80451 1119.142 360.86719 1091.8457 C 438.89453 1013.145 513.86337 931.23755 590.66211 851.38086 C 616.44976 824.56644 641.02432 796.46978 668 770.71875 C 673.86294 765.122 690.31454 746.54997 698.66602 748.3125 C 709.28491 750.55371 722.64129 766.20574 730.40625 773.48828 C 752.08543 793.82062 774.06098 813.55007 795.28516 834.40625 C 852.72765 890.85264 906.41673 950.878 960.22656 1010.666 C 984.10829 1037.201 1009.9296 1062.0073 1032.9531 1089.3281 C 1074.4497 1138.5702 1118.5599 1211.5459 1193.334 1191.3477 C 1252.7889 1175.2874 1278.3128 1100.7887 1244.5078 1050.666 C 1235.4606 1037.2518 1223.0004 1025.5395 1212.3848 1013.334 C 1185.9891 982.9847 1159.4733 953.20993 1132.2812 923.59961 C 1069.9617 855.73811 1008.273 787.59652 944.4668 721.07227 C 919.33042 694.86509 893.08404 668.78489 865.38672 645.33398 C 860.49048 641.18841 837.93636 624.74422 839.43164 618.2207 C 840.69637 612.70305 849.49293 607.62435 853.33398 603.94727 C 866.32738 591.50873 879.83408 579.52619 893.33398 567.61914 C 944.35256 522.62033 994.51327 478.71798 1048 436.64258 C 1067.2459 421.50278 1085.4745 404.98533 1105.334 390.56055 C 1129.9998 372.64462 1154.7638 358.47044 1167.5879 329.33398 C 1194.6544 267.83894 1140.867 189.82968 1072 200.58594 C 1031.3033 206.94229 997.6165 238.26354 966.66602 263.37695 C 916.57045 304.02478 864.77811 341.7127 817.33398 385.45312 C 786.40662 413.9662 754.38986 441.5561 724 470.61328 C 717.0066 477.29995 700.10098 498.50106 689.33398 495.83008 C 675.2728 492.34197 659.95466 475.35644 649.10742 466.20508 C 626.95132 447.51296 603.84905 429.55849 581.33398 411.29102 C 509.28804 352.83689 428.96093 304.22153 354.66602 248.64844 C 330.00598 230.20258 304.92543 212.70149 278.66602 196.71484 C 259.24514 184.89154 239.41966 174.73359 216.625 175.5625 z " />
  </g>
</svg>
