<?xml version="1.0" encoding="UTF-8" standalone="no"?>
<!-- Created with Inkscape (http://www.inkscape.org/) -->

<svg
   version="1.1"
   id="svg1"
   width="1333.3333"
   height="1333.3333"
   viewBox="0 0 1333.3333 1333.3333"
   sodipodi:docname="defaultimage.svg"
   inkscape:version="1.3 (0e150ed6c4, 2023-07-21)"
   xmlns:inkscape="http://www.inkscape.org/namespaces/inkscape"
   xmlns:sodipodi="http://sodipodi.sourceforge.net/DTD/sodipodi-0.dtd"
   xmlns="http://www.w3.org/2000/svg"
   xmlns:svg="http://www.w3.org/2000/svg">
  <defs
     id="defs1" />
  <sodipodi:namedview
     id="namedview1"
     pagecolor="#ffffff"
     bordercolor="#000000"
     borderopacity="0.25"
     inkscape:showpageshadow="2"
     inkscape:pageopacity="0.0"
     inkscape:pagecheckerboard="0"
     inkscape:deskcolor="#d1d1d1"
     inkscape:zoom="0.63162317"
     inkscape:cx="1027.5114"
     inkscape:cy="683.1605"
     inkscape:window-width="2560"
     inkscape:window-height="1369"
     inkscape:window-x="1912"
     inkscape:window-y="-8"
     inkscape:window-maximized="1"
     inkscape:current-layer="g1" />
  <g
     inkscape:groupmode="layer"
     inkscape:label="Image"
     id="g1">
    <g
       id="g9">
      <path
         style="fill:#fcf8f1"
         d="m 894.66661,1206.5636 c -73.22534,-2.1201 -105.00173,-2.5666 -229.99998,-3.2315 -71.86667,-0.3823 -136.66666,-0.9641 -144,-1.2928 -7.33333,-0.3287 -22.63333,-1.0208 -33.99999,-1.538 -11.36667,-0.5171 -24.56667,-1.0543 -29.33333,-1.1936 -7.80741,-0.2282 -14.15516,-0.966 -40.66667,-4.7266 -4.4,-0.6242 -12.2,-1.7286 -17.33333,-2.4543 -8.67004,-1.2257 -29.84515,-3.9644 -52,-6.7254 -5.13333,-0.6398 -20.73333,-1.8376 -34.66666,-2.6618 -13.93333,-0.8242 -32.53333,-2.0847 -41.33333,-2.8011 -8.8,-0.7163 -24.4,-1.3112 -34.66667,-1.322 -110.36827,-0.1155 -143.797617,-20.2276 -156.158854,-93.9499 -4.633217,-27.6325 -4.063028,-204.20232 0.858982,-265.99998 3.795887,-47.65877 5.564381,-117.90115 6.62995,-263.33332 1.060433,-144.73112 2.100705,-183.76982 5.915676,-221.99999 0.402485,-4.03333 1.360035,-13.93333 2.127889,-22 3.176148,-33.3669 8.471977,-72.71183 12.203727,-90.66666 11.00571,-52.95247 33.82164,-72.7973 81.0893,-70.52981 64.93321,3.11492 657.59436,1.35165 679.33329,-2.02114 4.4,-0.68266 12.8,-1.57883 18.66667,-1.9915 12.02659,-0.84596 31.4156,-2.90691 45.33333,-4.81871 41.25756,-5.66729 167.59399,-8.3053 194.66669,-4.06479 43.2608,6.77612 57.5493,30.05448 62.6655,102.09262 1.1458,16.13333 2.9531,36.53333 4.0162,45.33333 1.0632,8.8 2.8318,23.8 3.9302,33.33333 4.4731,38.82037 7.3576,60.95202 9.9922,76.66666 0.6762,4.03334 1.8466,11.53334 2.6009,16.66667 2.798,19.04119 8.2859,53.66625 10.1437,63.99999 5.2001,28.92471 14.0412,86.33895 16.6306,108 0.789,6.6 2.0269,16.5 2.7509,22 2.7514,20.90229 8.6184,92.42509 11.9215,145.33332 0.7554,12.1 1.9329,29.5 2.6167,38.66667 1.4394,19.29524 2.3512,53.53112 4.1195,154.66665 0.6987,39.96667 1.6498,90.36666 2.1135,111.99996 1.8761,87.5367 -13.4291,116.5379 -66.8348,126.642 -4.4,0.8324 -9.8,2.0564 -12,2.7199 -3.952,1.1919 -39.3191,8.5469 -60,12.4777 -12.6759,2.4093 -47.962,7.0323 -61.8773,8.1069 -15.8544,1.2244 -129.80514,1.6494 -165.45599,0.6172 z m 170.30559,-86.0359 c -0.4431,-0.443 -1.5931,-0.4904 -2.5556,-0.1053 -1.0636,0.4257 -0.7477,0.7416 0.8056,0.8056 1.4055,0.058 2.193,-0.2572 1.75,-0.7003 z m -600.6389,-6.7441 c -0.91666,-0.3699 -2.41666,-0.3699 -3.33333,0 -0.91666,0.3698 -0.16666,0.6725 1.66667,0.6725 1.83333,0 2.58333,-0.3027 1.66666,-0.6725 z M 150.21637,822.33328 c -0.36989,-0.91666 -0.67252,-0.16666 -0.67252,1.66667 0,1.83333 0.30263,2.58333 0.67252,1.66667 0.36988,-0.91667 0.36988,-2.41667 0,-3.33334 z m 4.03605,-71.33333 c -0.33537,-1.28333 -0.60976,-0.23333 -0.60976,2.33334 0,2.56666 0.27439,3.61666 0.60976,2.33333 0.33537,-1.28333 0.33537,-3.38333 0,-4.66667 z m 1.36924,-62.66666 c -0.3055,-2.01667 -0.55545,-0.36667 -0.55545,3.66667 0,4.03333 0.24995,5.68333 0.55545,3.66666 0.3055,-2.01666 0.3055,-5.31666 0,-7.33333 z M 871.63884,232.52776 c -0.44306,-0.44305 -1.59306,-0.49042 -2.55556,-0.10526 -1.06364,0.42564 -0.7477,0.74158 0.80556,0.80556 1.40555,0.0579 2.19305,-0.25724 1.75,-0.7003 z"
         id="path12" />
      <path
         style="fill:#c9f0f5"
         d="m 1086.6666,1123.0243 c -6.5117,-1.6892 -12.3135,-2.0994 -23.3333,-1.6499 -33.1023,1.3505 -189.92345,0.5841 -213.04487,-1.0411 -16.50755,-1.1603 -62.89026,-1.662 -152.66665,-1.6514 -187.69367,0.022 -235.57942,-2.2406 -326.28847,-15.42 -7.33333,-1.0655 -16.45352,-1.9353 -20.26708,-1.9329 -5.20005,0 -7.27356,-0.5792 -8.29279,-2.3291 -0.74747,-1.2833 -1.37728,-1.6223 -1.39958,-0.7532 -0.0491,1.9139 -17.42049,1.1638 -39.08639,-1.6877 -7.90854,-1.0408 -16.71948,-1.8924 -19.57986,-1.8924 -2.86038,0 -6.82869,-0.619 -8.81846,-1.3755 -2.02551,-0.7701 -15.414,-1.4054 -30.42013,-1.4436 -74.21383,-0.1887 -91.70917,-13.3244 -95.69288,-71.8476 -1.59277,-23.39872 -0.50941,-158.17546 1.46295,-181.99995 5.29597,-63.97094 6.79218,-121.35176 7.90942,-303.33332 0.5065,-82.49999 1.29763,-150.59999 1.75808,-151.33332 0.46045,-0.73333 1.51936,-11.53333 2.35314,-24 5.10963,-76.39888 14.68849,-103.76077 40.60344,-115.98326 14.19321,-6.69406 5.9258,-6.51763 317.47013,-6.77487 281.3992,-0.23236 334.2046,-0.88222 358.66665,-4.41405 5.13333,-0.74116 16.83333,-2.01667 25.99999,-2.83447 9.16667,-0.81781 22.96667,-2.31801 30.66667,-3.33379 35.85491,-4.72993 124.84309,-6.71605 141.60099,-3.16038 30.6626,6.50593 44.3539,30.60917 51.0281,89.83416 4.1865,37.15027 12.3039,97.22337 17.296,127.99999 1.0706,6.6 2.5693,15.9 3.3306,20.66667 0.7613,4.76666 1.9961,11.96666 2.7441,15.99999 7.015,37.82536 17.9023,110.91804 19.9596,134 0.7844,8.8 1.7425,18.69999 2.1292,21.99999 0.3867,3.3 1.5844,18.3 2.6616,33.33334 1.0772,15.03333 2.8698,39.93333 3.9837,55.33333 1.1139,15.39999 2.6019,36.09999 3.3067,45.99999 0.7049,9.9 1.6767,40.038 2.1596,66.97334 0.6457,36.0091 1.2648,48.44444 2.339,46.97539 2.24,-3.06369 1.6624,128.73612 -0.5881,134.16922 -1.1264,2.7194 -1.4054,7.4387 -0.8588,14.5265 2.5577,33.1687 -11.4697,63.7157 -31.5761,68.7621 -2.0524,0.5151 -4.0459,1.7557 -4.4301,2.7569 -4.993,13.0115 -43.8334,25.855 -63.0861,20.8609 z"
         id="path11" />
      <path
         style="fill:#f8c0d4"
         d="m 1086.6666,1123.0243 c -6.5117,-1.6892 -12.3135,-2.0994 -23.3333,-1.6499 -33.1023,1.3505 -189.92345,0.5841 -213.04487,-1.0411 -16.50755,-1.1603 -62.89026,-1.662 -152.66665,-1.6514 -187.69367,0.022 -235.57942,-2.2406 -326.28847,-15.42 -7.33333,-1.0655 -16.45352,-1.9353 -20.26708,-1.9329 -5.20005,0 -7.27356,-0.5792 -8.29279,-2.3291 -0.74747,-1.2833 -1.37728,-1.6223 -1.39958,-0.7532 -0.0491,1.9139 -17.42049,1.1638 -39.08639,-1.6877 -7.90854,-1.0408 -16.71948,-1.8924 -19.57986,-1.8924 -2.86038,0 -6.74921,-0.5887 -8.64183,-1.3083 -1.89263,-0.7196 -17.68168,-1.5241 -35.0868,-1.7879 -41.63839,-0.631 -38.30058,2.3321 -33.6519,-29.8736 2.3862,-16.5314 4.59054,-27.7337 10.04148,-51.0302 0.94373,-4.0333 2.96882,-12.73333 4.50021,-19.33333 1.53139,-6.6 5.12711,-21 7.99049,-32 2.86337,-10.99999 7.98738,-30.79999 11.38669,-43.99999 3.3993,-13.2 7.05421,-27 8.12202,-30.66667 1.06781,-3.66666 3.70343,-13.86666 5.85693,-22.66666 2.15351,-8.8 6.98191,-28 10.72978,-42.66667 3.74787,-14.66666 8.59895,-33.86666 10.78018,-42.66666 2.18122,-8.8 4.85819,-18.9189 5.94882,-22.48645 1.09063,-3.56754 1.98297,-7.6548 1.98297,-9.0828 0,-1.42799 0.8458,-5.40909 1.87956,-8.84689 1.03375,-3.43779 2.87484,-11.05052 4.09129,-16.91719 19.58929,-94.47423 65.16919,-102.5569 93.98686,-16.66667 19.07067,56.83959 38.43848,66.4251 70.84041,35.0603 32.94277,-31.88832 46.58838,-31.892 79.15384,-0.0213 27.78583,27.19303 38.77372,28.90978 65.4738,10.22968 20.41494,-14.28285 35.82491,-18.12789 48.03155,-11.98465 4.28413,2.15608 17.61811,10.54564 20.16306,12.68633 0.89122,0.74965 2.46142,2.06211 3.48934,2.91659 27.00653,22.44956 50.63383,-8.82661 68.86952,-91.16462 2.23997,-10.11393 4.63168,-20.48897 5.31492,-23.05564 0.68323,-2.56666 1.86186,-8.26666 2.61917,-12.66666 0.75731,-4.4 2.60245,-14.6 4.10031,-22.66667 2.70615,-14.57385 4.87555,-26.60368 8.59597,-47.66666 10.09928,-57.17664 23.14263,-79.88564 46.05703,-80.18715 18.49606,-0.24337 31.93411,13.87044 44.92789,47.18715 5.46339,14.00841 8.53274,23.20316 25.05554,75.05806 17.39308,54.58615 26.83432,68.94193 45.34044,68.94193 5.33623,0 19.32609,-4.14042 22.67613,-6.7112 15.00467,-11.5144 42.7135,-12.76106 50.79203,-2.2852 2.86438,3.71439 7.07869,8.90811 9.36509,11.54159 5.9305,6.83062 9.1938,13.8657 16.5138,35.59986 13.6278,40.46279 19.6195,47.3238 49.3291,56.48598 25.5485,7.87893 37.0969,18.09936 44.5235,39.40365 7.243,20.77732 8.137,28.65799 17.4672,153.96531 2.6831,36.0355 8.3509,83.6532 10.7828,90.5924 1.4215,4.056 9.8928,48.497 9.8865,51.8652 -0.03,15.9618 -41.7427,33.351 -65.3267,27.2334 z"
         id="path10"
         sodipodi:nodetypes="ssssscssssssssssssssssssssssssssssssssssssssssssssss" />
      <path
         style="fill:#b7c891"
         d="m 869.33328,1121.1361 c -6.23333,-0.6357 -85.43333,-1.7067 -175.99999,-2.38 -159.05601,-1.1825 -204.19719,-2.1999 -235.33332,-5.3042 -8.06666,-0.8043 -20.96666,-2.0738 -28.66666,-2.8211 -14.68061,-1.4249 -35.81425,-4.1294 -57.60641,-7.3721 -7.11686,-1.059 -15.61779,-1.9254 -18.89095,-1.9254 l -76.64107,-7.5275 -4.47177,-0.6453 0.86145,-6.247 c 0.4738,-3.4358 1.43171,-9.2469 2.1287,-12.9136 0.69699,-3.6666 2.50599,-13.2666 4.02,-21.3333 4.03001,-21.472 13.3164,-60.10689 24.67725,-102.66666 14.09915,-52.81799 22.07868,-69.45041 35.84086,-74.70623 10.94377,-4.17947 16.48993,0.0816 39.09955,30.03957 26.68537,35.35841 50.73971,30.33084 79.09897,-16.5324 26.32722,-43.50531 43.1995,-46.54081 74.15784,-13.34179 27.78741,29.79858 37.89128,33.48881 70.84365,25.87419 21.03273,-4.86024 26.93883,-4.93023 41.54858,-0.49233 29.07108,8.8307 31.25946,9.18561 41.49358,6.72942 14.7426,-3.53822 30.76864,-16.11246 41.93631,-32.90376 1.70705,-2.56666 4.32033,-6.16666 5.80727,-8 1.48695,-1.83333 2.71688,-4.03333 2.73319,-4.88888 0.0163,-0.85556 0.48572,-1.75556 1.04316,-2 4.45253,-1.95253 31.13975,-54.1555 43.16971,-84.44444 25.79009,-64.93412 43.9216,-68.05849 65.7248,-11.32552 5.84777,15.21616 14.35808,33.82108 15.75211,34.43663 0.55359,0.24444 1.00652,1.17467 1.00652,2.06717 0,3.34107 13.19402,16.31517 20.19279,19.85623 10.59258,5.35936 19.27689,4.9867 39.64376,-1.70118 29.64519,-9.73461 36.81337,-6.52693 56.55733,25.30881 13.8451,22.32422 21.30161,30.33084 39.32111,42.2218 30.8626,20.36601 39.0272,37.71153 42.8983,91.13604 2.1435,29.58353 3.9848,51.06153 4.7746,55.69483 0.4089,2.3988 1.5943,11.3988 2.6341,20 2.7211,22.5069 7.0729,50.8798 8.6349,56.2964 2.4609,8.5343 1.0022,12.1119 -1.3984,12.0231 -2.3437,-0.087 -17.7653,0.1195 -29.1169,0.4194 -48.83685,1.2902 -162.36459,0.9101 -177.47492,-0.6309 z"
         id="path9"
         sodipodi:nodetypes="ssssscccssssssssssssssssssssssssssssss" />
    </g>
  </g>
</svg>
