<?xml version="1.0" encoding="UTF-8" standalone="no"?>
<!-- Created with Inkscape (http://www.inkscape.org/) -->

<svg
   version="1.1"
   id="svg1"
   width="1333.3333"
   height="1333.3333"
   viewBox="0 0 1333.3333 1333.3333"
   sodipodi:docname="lightbulb.svg"
   inkscape:version="1.3 (0e150ed6c4, 2023-07-21)"
   xmlns:inkscape="http://www.inkscape.org/namespaces/inkscape"
   xmlns:sodipodi="http://sodipodi.sourceforge.net/DTD/sodipodi-0.dtd"
   xmlns="http://www.w3.org/2000/svg"
   xmlns:svg="http://www.w3.org/2000/svg">
  <defs
     id="defs1">
    <inkscape:path-effect
       effect="simplify"
       id="path-effect1"
       is_visible="true"
       lpeversion="1.3"
       threshold="0.01"
       steps="1"
       smooth_angles="0"
       helper_size="1.875"
       simplify_individual_paths="false"
       simplify_just_coalesce="false" />
  </defs>
  <sodipodi:namedview
     id="namedview1"
     pagecolor="#ffffff"
     bordercolor="#000000"
     borderopacity="0.25"
     inkscape:showpageshadow="2"
     inkscape:pageopacity="0.0"
     inkscape:pagecheckerboard="0"
     inkscape:deskcolor="#d1d1d1"
     inkscape:zoom="0.63162317"
     inkscape:cx="620.62321"
     inkscape:cy="830.40019"
     inkscape:window-width="2560"
     inkscape:window-height="1369"
     inkscape:window-x="1912"
     inkscape:window-y="-8"
     inkscape:window-maximized="1"
     inkscape:current-layer="g1" />
  <g
     inkscape:groupmode="layer"
     inkscape:label="Image"
     id="g1">
    <path
       style="fill:#b8c992;fill-opacity:1"
       d="m 495.99997,1272.5221 c -2.56667,-1.1221 -7.96667,-2.6449 -12,-3.384 -16.44675,-3.014 -31.16462,-16.0633 -36.78358,-32.6136 -2.87187,-8.4588 -2.05709,-41.5681 2.68705,-109.1912 5.86629,-83.6182 6.36189,-94.8929 5.74374,-130.66669 -0.76422,-44.22644 -1.64928,-47.52397 -17.98285,-67 -3.2288,-3.85 -6.64205,-7 -7.585,-7 -0.94294,0 -4.34655,-2.89005 -7.56357,-6.42233 -14.15617,-15.54345 -23.04004,-25.80012 -33.12551,-38.24433 -5.94334,-7.33334 -15.00716,-18.13334 -20.14183,-24 -5.13466,-5.86667 -12.56794,-14.86667 -16.51839,-20 -3.95046,-5.13333 -8.30109,-10.53333 -9.66808,-12 -3.47927,-3.73296 -20.52497,-26.962 -24.24168,-33.03536 -1.69482,-2.76945 -3.95096,-5.90483 -5.01364,-6.96752 -2.62395,-2.62395 -25.30323,-44.03742 -42.34851,-77.33045 -2.62815,-5.13333 -4.78724,-10.23333 -18.38002,-59.49162 -13.59279,-49.25829 -14.7886,-64.53133 -15.14945,-103.17503 -0.38121,-40.8234 -0.0497,-43.50863 8.91806,-72.23741 2.10097,-6.73057 3.81994,-13.48871 7.03988,-23.64232 3.21995,-10.1536 5.13236,-15.5536 11.71882,-32.1109 6.58646,-16.55729 18.18211,-45.33296 20.67468,-53.3427 1.14104,-3.66666 4.05262,-9.66666 14.21386,-26.58877 10.16124,-16.92211 13.56279,-22.34767 27.56715,-40.80143 14.00435,-18.45375 26.74482,-32.43858 62.50127,-69.7661 32.85923,-34.30301 92.19718,-76.83573 118.77093,-85.13356 4.03334,-1.25944 16.33333,-5.33798 27.33333,-9.06342 11,-3.72544 23.3,-7.38301 27.33334,-8.12793 4.03333,-0.74491 10.33333,-2.18661 13.99999,-3.20376 7.53721,-2.09086 44.90982,-8.8061 66,-11.85911 33.56645,-4.85908 170.95871,-6.557809 185.33332,-2.29148 2.56667,0.76177 9.46667,1.97146 15.33334,2.6882 24.21952,2.95891 59.70847,11.25808 74.65423,18.30001 14.94576,7.04193 21.84576,10.70991 27.34576,13.56268 8.26513,4.287 26.32096,16.13552 31.82715,20.45539 5.50618,4.31988 9.55618,7.44174 14.50618,10.61015 4.95,3.16842 12.04476,8.78889 15.76616,12.48995 3.7214,3.70106 10.4714,10.00397 23.0995,23.61837 12.628,13.61441 17.974,20.80524 20.0749,24.93518 2.1009,4.12994 4.9237,8.70898 12.5863,23.04963 7.6626,14.34066 10.1426,20.04066 10.1459,20.66234 0.01,1.58223 8.0475,22.17258 9.2908,23.797 0.5613,0.73334 1.7901,4.63333 2.7307,8.66667 0.9406,4.03333 2.8192,9.93307 4.7091,17.75628 1.8899,7.82322 6.2442,26.72099 7.3399,27.57705 0.4693,0.36667 1.2536,5.07387 1.7428,10.46046 0.4892,5.38658 1.5989,11.08658 2.4658,12.66666 2.7004,4.92144 4.6063,74.00425 -0.4756,110.47839 -1.2514,8.98144 -2.9779,13.06115 -7.3238,26.20023 -4.3459,13.13908 -23.0758,72.99866 -28.0173,86.86091 -1.1763,3.3 -3.2083,9.68992 -4.5155,14.19982 -1.3072,4.50991 -3.685,11.10991 -10.6214,26.91524 -6.9364,15.80533 -9.6629,21.18854 -11.4606,25.61278 -13.4226,33.03312 -92.40096,121.52295 -135.01248,151.27215 -45.95955,32.08663 -49.13166,38.14381 -40.84801,77.99999 0.9907,4.76667 2.16569,13.46667 2.6111,19.33333 0.44541,5.86667 2.53645,22.96667 4.64676,38 8.2253,58.59516 13.23991,106.79256 16.092,154.66666 3.55317,59.6423 2.73031,74.6667 -4.08942,74.6667 -0.69901,0 -1.27094,0.807 -1.27094,1.7933 0,0.9864 -1.28003,2.9364 -2.8445,4.3333 -1.56448,1.397 -5.29006,5.84 -8.27906,9.8734 -8.3267,11.2359 -24.49391,21.3333 -34.15753,21.3333 -2.213,0 -7.18007,1.254 -11.03794,2.7867 -3.85786,1.5327 -11.5143,3.2666 -17.0143,3.8531 -63.29793,6.7502 -100.71937,12.869 -133.99999,21.9107 -8.96958,2.4368 -29.32279,6.821 -44,9.4778 -13.30495,2.4084 -26.57572,4.918 -42.66666,8.0684 -5.86667,1.1487 -12.46667,2.3671 -14.66667,2.7076 -2.19999,0.3406 -9.39999,1.4577 -15.99999,2.4825 -27.00289,4.1927 -31.93524,4.711 -44.35808,4.661 -8.62234,-0.035 -14.54082,-0.7366 -17.64192,-2.0923 z m 59.72758,-103.5753 c 6.38877,-2.2802 11.43409,-3.1802 14.06676,-4.2802 2.63267,-1.1 7.49951,-2 10.81519,-2 3.31569,0 9.18496,-1.1997 18.75438,-3.2784 9.56942,-2.0787 14.91477,-2.9773 23.94535,-4.5161 9.03059,-1.5388 14.48523,-2.7385 23.8295,-4.8052 9.34428,-2.0667 13.76755,-2.967 16.40022,-4.067 2.63267,-1.1 7.3641,-2 16.79624,-4.4907 9.43214,-2.4907 15.93143,-4.3423 25.7481,-6.1315 9.81667,-1.7892 16.71667,-2.9071 22.58333,-3.4991 5.86667,-0.5921 16.96667,-1.7415 24.66667,-2.5543 7.7,-0.8127 18.5,-1.8932 24,-2.401 10,-0.9234 10,-0.9234 9.52002,-13.59 -0.61879,-16.3299 -3.97583,-64.2248 -5.46716,-78 -0.63514,-5.8667 -1.59009,-16.2167 -2.12211,-23 -0.99533,-12.69076 -3.26409,-17.05592 -3.26409,-6.2802 0,12.8675 -11.93608,25.9468 -23.67894,25.9468 -2.09626,0 -4.97605,0.881 -9.7885,2.4308 -4.81244,1.5498 -8.41244,2.4168 -10.82065,3.4526 -2.40822,1.0359 -7.97857,2.6009 -12.37857,3.4778 -4.4,0.877 -10.7,2.4003 -14,3.3851 -3.3,0.9849 -11.4,2.4295 -18,3.2102 -6.6,0.7808 -16.8,1.986 -22.66666,2.6783 -34.38795,4.0577 -53.56812,5.3596 -79,5.3623 -15.58333,0 -28.37884,0.1529 -28.43446,0.3363 -0.0556,0.1833 -0.56719,7.2333 -1.13682,15.6666 -0.56964,8.4334 -1.48833,16.3834 -2.04153,17.6667 -1.77891,4.1268 47.70616,2.1413 58.10949,-1.5494 10.40332,-3.6906 15.80332,-4.6547 19.83665,-5.4473 11.45308,-2.2508 21.51431,-4.0392 27.33333,-4.8587 2.93334,-0.4131 5.90334,-1.2896 9.52001,-2.2498 3.61666,-0.9602 6.31134,-1.8605 7.73483,-2.9372 9.85366,-7.4529 33.28259,-0.4302 40.38226,12.1044 9.02155,15.9278 -2.53257,43.2713 -18.28446,43.2713 -1.52889,0 -4.31056,1.003 -6.18149,2.2289 -1.87093,1.2259 -6.19982,2.7316 -9.61975,3.346 -9.94281,1.7864 -20.35234,3.5832 -29.34723,6.2377 -8.9949,2.6546 -11.94892,3.1896 -33.10273,5.8285 -7.46088,0.9308 -11.24636,2.1686 -14.55556,2.6923 -4.21782,0.6675 -13.49032,1 -28.76809,1 -27.77778,0 -27.77778,0 -27.79245,5 -0.008,2.75 -0.38658,7.25 -0.84113,10 -0.78921,4.7747 0.86128,6.8938 7.25005,4.6135 z m 79.60574,-174.34831 c 16.13334,-1.52018 30.53334,-3.27991 40.19019,-4.78219 9.65686,-1.50227 15.16741,-2.4491 20.13791,-3.46607 4.97049,-1.01696 9.05993,-2.15876 31.75528,-9.44983 22.69534,-7.29107 37.41732,-2.2252 45.74359,11.76621 1.3172,2.2134 1.47501,1.4202 0.92846,-4.66667 -1.7943,-19.98282 -3.0715,-28.92628 -4.58013,-41.92474 -1.50864,-12.99846 4.65252,-11.76326 -48.84197,-11.4771 -32.79555,0.17543 -51.09177,1.17957 -73.99999,4.06129 -5.5,0.69187 -15.42649,1.78932 -22.05886,2.43878 -6.63237,0.64945 -13.23237,1.79052 -14.66666,2.5357 -1.4343,0.74517 -11.07144,1.77018 -21.41587,2.2778 -32.07021,1.57372 -30.46337,0.0182 -30.8874,29.90107 l -0.36212,25.52053 24.36212,0.0146 c 14.44484,0.009 36.30308,-1.11056 53.69545,-2.74937 z M 516.76096,824.14287 c 11.73431,-5.32961 16.8136,-16.63135 18.64049,-41.47625 0.51227,-6.96667 1.39212,-13.26667 1.95522,-14 0.5631,-0.73333 1.35068,-4.03333 1.75019,-7.33333 0.39951,-3.3 3.41839,-16.2 6.70862,-28.66667 16.98313,-64.34896 15.30881,-73.60564 -18.4494,-101.99999 -10.06465,-8.46547 -14.85443,-11.50944 -17.68182,-19.92778 -4.98507,-14.84271 -0.87874,-31.84138 3.64634,-46.83073 4.87858,-16.16033 14.6573,-32.81159 24.66334,-44.23044 10.00603,-11.41885 40.18354,-10.70161 45.60616,-8.12841 11.34515,5.38363 27.94058,26.03939 30.18109,37.56537 5.06591,26.06081 22.16466,42.34162 44.21877,42.10348 26.48687,-0.286 38.63787,-11.69519 51.61001,-48.45926 9.71551,-27.53451 38.40311,-64.30605 48.59844,-68.13602 16.63249,-7.1885 49.51324,-4.85918 63.59832,-1.74102 14.08507,3.11815 31.34464,26.0066 29.67178,45.11815 -1.45413,16.61283 -6.36278,39.12767 -16.67988,55.43453 -11.79724,18.64633 -42.15949,40.78746 -49.1115,44.38248 -20.28308,10.48879 -25.45312,28.76405 -22.33392,78.94682 3.23744,52.08494 8.62945,64.56949 27.88723,64.56949 15.39683,0 59.16968,-27.6262 85.43906,-53.92284 53.26019,-53.31546 79.02373,-92.8077 95.7312,-146.74382 1.1358,-3.66666 6.88869,-21.96666 12.78421,-40.66666 16.45379,-52.18982 20.05039,-73.21872 18.12929,-106 -6.84326,-116.77432 -68.2108,-188.80315 -177.32425,-208.13057 -39.01517,-6.91081 -141.48511,-5.56696 -177.99999,2.33439 -6.96667,1.5075 -19.56667,4.11381 -28,5.7918 -76.97614,15.31605 -110.26873,33.59844 -164.18337,90.16011 -55.15096,57.85869 -67.22681,75.71778 -103.05955,168.74207 -35.83275,93.0243 2.60741,214.13855 104.40406,325.61367 23.35968,25.58063 42.03171,33.6107 59.59986,25.63143 z m 141.90567,-18.09424 c 47.24265,-8.39519 53.10208,-15.63458 48.94336,-60.47003 -1.20287,-12.96825 -2.51341,-31.37864 -2.91231,-40.91198 -1.69258,-40.45119 -10.03971,-52.05597 -37.36439,-51.94665 -32.26856,0.12911 -46.57069,12.25766 -51.56286,43.7266 -0.83354,5.25436 -4.81387,23.05339 -8.84517,39.55339 -17.30092,70.81222 -9.78847,80.98276 51.74137,70.04867 z"
       id="path1"
       sodipodi:nodetypes="ssssssssssssssscssccsccsssssssscscsscsccsscsscazsscsssssssssssscssssscscsscccsccsssssssscssssccssscsscssssscssssscscccsscssssssccssssssssaacssssccsassssssssssscsssssssss" />
  </g>
</svg>
