<?xml version="1.0" encoding="UTF-8" standalone="no"?>
<!-- Created with Inkscape (http://www.inkscape.org/) -->

<svg
   version="1.1"
   id="svg1"
   width="1333.3333"
   height="1333.3333"
   viewBox="0 0 1333.3333 1333.3333"
   sodipodi:docname="notificationexclamation.svg"
   inkscape:version="1.3 (0e150ed6c4, 2023-07-21)"
   xmlns:inkscape="http://www.inkscape.org/namespaces/inkscape"
   xmlns:sodipodi="http://sodipodi.sourceforge.net/DTD/sodipodi-0.dtd"
   xmlns="http://www.w3.org/2000/svg"
   xmlns:svg="http://www.w3.org/2000/svg">
  <defs
     id="defs1" />
  <sodipodi:namedview
     id="namedview1"
     pagecolor="#ffffff"
     bordercolor="#000000"
     borderopacity="0.25"
     inkscape:showpageshadow="2"
     inkscape:pageopacity="0.0"
     inkscape:pagecheckerboard="0"
     inkscape:deskcolor="#d1d1d1"
     showgrid="false"
     inkscape:zoom="0.63162317"
     inkscape:cx="814.56797"
     inkscape:cy="686.32695"
     inkscape:window-width="2560"
     inkscape:window-height="1369"
     inkscape:window-x="1912"
     inkscape:window-y="-8"
     inkscape:window-maximized="1"
     inkscape:current-layer="g1" />
  <g
     inkscape:groupmode="layer"
     inkscape:label="Image"
     id="g1">
    <path
       id="path3"
       style="fill:#eb7e7e;fill-opacity:1;stroke:none;stroke-width:1.40638;stroke-opacity:1"
       d="m 655.043,115.9251 c -30.24126,1.29271 -59.51315,17.71341 -76.08233,43.09183 -8.49122,13.04639 -13.29059,28.83652 -11.73809,44.45716 0.73338,7.66684 2.93222,15.18759 6.40359,22.06095 3.17788,68.27628 6.16438,136.56358 8.35832,204.87948 2.08157,66.53215 3.42095,133.17336 3.25726,199.77108 -0.11153,4.83525 0.1197,9.6644 0.49473,14.48338 1.95994,31.45039 2.20979,62.94453 1.41009,94.46886 -1.07834,44.12686 -4.29466,88.24443 -7.6827,132.30285 -0.40791,3.86255 -0.63671,7.76643 -0.0657,11.62605 1.21011,10.31572 5.87279,20.27954 13.45627,27.44265 8.65578,8.35148 19.99059,13.27186 31.43274,16.48827 11.06197,3.08017 22.46194,4.88108 33.90098,5.77484 13.45593,0.81984 27.23317,-1.44181 39.33252,-7.52658 13.62806,-6.72487 24.85114,-17.21548 35.7357,-27.61991 6.94564,-6.54204 13.76427,-13.33626 19.10461,-21.29188 7.21136,-10.47646 11.94037,-22.69349 13.29639,-35.36044 0.34424,-3.20509 0.79581,-6.43902 0.63716,-9.66324 -1.93594,-18.58407 -3.3526,-37.35 -4.35479,-56.07063 -0.64345,-12.49939 -1.13496,-25.21346 -1.4384,-37.75219 -2.84817,-116.082 7.61489,-232.00304 5.10865,-348.08777 -0.70356,-33.05516 -2.51454,-66.09584 -5.88629,-98.98998 -0.85437,-9.31959 -1.2295,-18.42697 -1.63308,-27.79402 -1.01554,-24.21123 -1.72698,-48.69923 -7.78006,-72.29513 -3.86055,-14.94737 -10.15329,-29.49936 -20.0367,-41.47954 -9.37464,-11.39791 -21.81753,-20.10532 -35.48806,-25.57651 -9.52839,-3.87533 -19.59669,-6.62677 -29.89982,-7.2215 -3.27655,-0.21942 -6.56189,-0.24255 -9.84296,-0.11804 z m 12.33061,863.1095 c -13.21341,0.24832 -26.40012,3.47169 -38.07355,9.71194 -18.94455,9.9386 -34.29897,25.82146 -45.52374,43.87736 -9.99277,16.16 -16.91981,34.4249 -18.81821,53.3958 -1.94882,20.8807 2.33567,42.0633 10.7665,61.1678 8.17625,18.4172 20.48723,35.2984 36.81279,47.293 14.795,10.8399 32.13986,18.126 50.17085,21.3989 15.10083,2.6808 31.07529,2.2726 45.5026,-3.3022 13.85941,-5.417 25.42508,-15.7421 33.62396,-28.039 9.81683,-14.5544 15.6684,-31.3896 19.6418,-48.3818 3.9429,-17.0161 6.07833,-34.4122 7.15646,-51.8312 0.81099,-17.2644 -0.61461,-34.9441 -6.82043,-51.2038 -3.86729,-10.0132 -9.92899,-19.2688 -18.11463,-26.2779 -15.18214,-13.48506 -34.31283,-22.16623 -54.18738,-25.95003 -7.29066,-1.3631 -14.71987,-2.01303 -22.13702,-1.85887 z" />
  </g>
</svg>
