<?xml version="1.0" encoding="UTF-8" standalone="no"?>
<!-- Created with Inkscape (http://www.inkscape.org/) -->

<svg
   version="1.1"
   id="svg1"
   width="1333.3333"
   height="1333.3333"
   viewBox="0 0 1333.3333 1333.3333"
   sodipodi:docname="preview4.svg"
   inkscape:version="1.3 (0e150ed6c4, 2023-07-21)"
   xmlns:inkscape="http://www.inkscape.org/namespaces/inkscape"
   xmlns:sodipodi="http://sodipodi.sourceforge.net/DTD/sodipodi-0.dtd"
   xmlns="http://www.w3.org/2000/svg"
   xmlns:svg="http://www.w3.org/2000/svg">
  <defs
     id="defs1" />
  <sodipodi:namedview
     id="namedview1"
     pagecolor="#ffffff"
     bordercolor="#000000"
     borderopacity="0.25"
     inkscape:showpageshadow="2"
     inkscape:pageopacity="0.0"
     inkscape:pagecheckerboard="0"
     inkscape:deskcolor="#d1d1d1"
     inkscape:zoom="0.44662503"
     inkscape:cx="539.60254"
     inkscape:cy="648.19475"
     inkscape:window-width="2560"
     inkscape:window-height="1369"
     inkscape:window-x="1912"
     inkscape:window-y="-8"
     inkscape:window-maximized="1"
     inkscape:current-layer="g1"
     showgrid="false" />
  <g
     inkscape:groupmode="layer"
     inkscape:label="Image"
     id="g1">
    <path
       id="path13"
       style="fill:#caf2f7;fill-opacity:1;stroke-width:1.663"
       d="m 641.43397,188.90783 c -16.66807,0.30164 -33.51946,1.87554 -50.53945,4.88505 C 492.61979,211.16999 426.34153,282.26401 358.4131,347.13591 249.53869,451.11131 166.45646,575.92652 79.413281,697.6542 c -64.027746,89.54123 20.312642,146.61092 79.099439,195.3304 121.05883,100.32735 244.67026,209.5331 395.40617,258.7418 46.0905,15.0465 98.11725,11.5114 145.5867,2.186 148.28001,-29.1301 279.48356,-117.2174 390.36191,-217.29043 58.63,-52.91629 133.9891,-94.82546 173.4193,-160.48547 C 1310.09,698.19819 1214.3198,605.26038 1165.628,538.35102 1105.412,455.60598 1042.2591,373.9972 958.02654,313.41156 865.71886,247.01776 758.11029,186.79635 641.43397,188.90783 Z m 6.74616,125.66002 c 70.06543,0.13396 143.98393,28.02669 201.31002,66.9875 66.26961,45.03912 118.45699,102.79617 167.70915,163.308 46.8835,57.60181 140.1849,140.00175 81.9024,214.39637 -103.05605,131.54579 -252.18071,232.48447 -415.46925,274.94298 -96.64743,25.1304 -186.48106,-30.867 -260.54122,-85.98524 -73.50595,-54.70583 -170.21999,-97.0748 -206.30225,-185.24524 -31.02667,-75.81657 52.29822,-136.92639 93.5077,-194.97636 60.03054,-84.56233 134.55811,-162.20778 220.34028,-220.08367 34.84921,-23.51223 75.50391,-33.42471 117.54317,-33.34434 z" />
    <path
       style="fill:#caf2f7;fill-opacity:1;stroke-width:1.663"
       d="M 618.22234,934.47113 C 528.34081,909.74118 506.58568,795.40416 500.96112,713.0855 c -6.14835,-89.9847 11.8892,-206.76899 112.35532,-238.54661 85.69631,-27.10591 180.20735,26.31119 201.6709,114.36998 24.13479,99.01815 38.44735,218.26161 -27.74649,302.05762 -40.19212,50.87992 -110.75449,59.5354 -169.01851,43.50464 z"
       id="path15" />
    <path
       style="fill:#000000"
       id="path1" />
    <g
       id="g17"
       transform="matrix(1.1620318,0,0,1.1620318,-107.93889,-101.11211)">
      <path
         style="fill:#caf2f7;fill-opacity:1;stroke-width:7.55906;stroke-linecap:round;stroke-linejoin:round"
         d="m 247.41112,589.98037 c 0,0 -33.02546,-34.14497 -54.2961,-63.81192 -21.27064,-29.66694 -28.19481,-47.80509 -9.51581,-67.17044 18.67899,-19.36534 33.02546,-18.47187 53.73635,-7.27679 20.71088,11.19507 67.73019,76.68625 67.73019,76.68625 z"
         id="path17" />
      <path
         style="fill:#caf2f7;fill-opacity:1;stroke-width:7.55906;stroke-linecap:round;stroke-linejoin:round"
         d="m 336.4967,453.959 c 0,0 -27.50452,-38.73062 -44.063,-71.26345 -16.55849,-32.53281 -20.67108,-51.50709 0.71217,-67.83739 21.38323,-16.33029 35.43136,-13.28569 54.21931,0.90176 18.78794,14.18744 55.40422,86.01472 55.40422,86.01472 z"
         id="path17-8" />
      <path
         style="fill:#caf2f7;fill-opacity:1;stroke-width:7.55906;stroke-linecap:round;stroke-linejoin:round"
         d="m 1060.8749,562.39444 c 0,0 33.0255,-34.14497 54.2961,-63.81192 21.2706,-29.66694 28.1948,-47.80509 9.5158,-67.17044 -18.679,-19.36534 -33.0254,-18.47187 -53.7363,-7.27679 -20.7109,11.19507 -67.7302,76.68625 -67.7302,76.68625 z"
         id="path17-3" />
      <path
         style="fill:#caf2f7;fill-opacity:1;stroke-width:7.55906;stroke-linecap:round;stroke-linejoin:round"
         d="m 971.78935,426.37307 c 0,0 27.50452,-38.73062 44.06295,-71.26345 16.5585,-32.53281 20.6711,-51.50709 -0.7121,-67.83739 -21.38325,-16.33029 -35.43138,-13.28569 -54.21933,0.90176 -18.78792,14.18744 -55.40422,86.01472 -55.40422,86.01472 z"
         id="path17-8-0" />
      <path
         style="fill:#caf2f7;fill-opacity:1;stroke-width:7.55906;stroke-linecap:round;stroke-linejoin:round"
         d="m 464.20748,359.27513 c 0,0 -23.54498,-41.25765 -36.80955,-75.26676 -13.26456,-34.0091 -15.48313,-53.29678 7.40837,-67.43541 22.89149,-14.13863 36.57025,-9.72151 53.86519,6.2521 17.29493,15.97359 46.63847,91.06598 46.63847,91.06598 z"
         id="path17-8-5" />
      <path
         style="fill:#caf2f7;fill-opacity:1;stroke-width:7.55906;stroke-linecap:round;stroke-linejoin:round"
         d="m 609.06278,303.81732 c 0,0 -4.33846,-47.30473 -2.32285,-83.7534 2.01562,-36.44866 7.98641,-54.9226 34.67836,-58.30807 26.69194,-3.38547 37.31198,6.30133 46.43598,28.00442 9.12399,21.70306 4.72381,102.20492 4.72381,102.20492 z"
         id="path17-8-5-8" />
      <path
         style="fill:#caf2f7;fill-opacity:1;stroke-width:7.55906;stroke-linecap:round;stroke-linejoin:round"
         d="m 850.14916,344.86289 c 0,0 23.54498,-41.25765 36.80955,-75.26676 13.26456,-34.0091 15.48313,-53.29678 -7.40837,-67.43541 -22.89149,-14.13863 -36.57025,-9.72151 -53.86519,6.2521 -17.29493,15.97359 -46.63847,91.06598 -46.63847,91.06598 z"
         id="path17-8-5-1" />
    </g>
  </g>
</svg>
