<?xml version="1.0" encoding="UTF-8" standalone="no"?>
<!-- Created with Inkscape (http://www.inkscape.org/) -->

<svg
   version="1.1"
   id="svg1"
   width="1333.3333"
   height="1333.3333"
   viewBox="0 0 1333.3333 1333.3333"
   sodipodi:docname="preview4-2.svg"
   inkscape:version="1.3 (0e150ed6c4, 2023-07-21)"
   xmlns:inkscape="http://www.inkscape.org/namespaces/inkscape"
   xmlns:sodipodi="http://sodipodi.sourceforge.net/DTD/sodipodi-0.dtd"
   xmlns="http://www.w3.org/2000/svg"
   xmlns:svg="http://www.w3.org/2000/svg">
  <defs
     id="defs1" />
  <sodipodi:namedview
     id="namedview1"
     pagecolor="#ffffff"
     bordercolor="#000000"
     borderopacity="0.25"
     inkscape:showpageshadow="2"
     inkscape:pageopacity="0.0"
     inkscape:pagecheckerboard="0"
     inkscape:deskcolor="#d1d1d1"
     inkscape:zoom="0.63162317"
     inkscape:cx="669.70311"
     inkscape:cy="675.24439"
     inkscape:window-width="2560"
     inkscape:window-height="1369"
     inkscape:window-x="1912"
     inkscape:window-y="-8"
     inkscape:window-maximized="1"
     inkscape:current-layer="g1"
     showgrid="false" />
  <g
     inkscape:groupmode="layer"
     inkscape:label="Image"
     id="g1">
    <g
       id="g3"
       transform="matrix(1.1724519,0,0,1.1724519,-110.45581,-140.039)">
      <path
         id="path13"
         style="fill:#caf2f7;fill-opacity:1;stroke-width:1.43111"
         d="M 1055.1725,612.7785 C 966.48657,725.98165 838.15516,812.84584 697.63545,849.38397 614.46447,871.01023 537.15778,822.82245 473.42452,775.38983 c -63.25634,-47.07769 -146.48418,-83.54 -177.53516,-159.41601 -8.4035,-20.53475 -3.90085,-47.68485 -19.79917,-62.83289 -13.38913,-12.75727 -35.188,-17.94705 -53.65982,-14.09875 -0.36783,0.0766 -0.71563,0.17376 -1.08007,0.2539 -15.90945,0.77962 -29.90882,6.29708 -40.47266,15.95117 -1.07271,1.50305 -2.13494,3.01361 -3.20898,4.51563 -6.22786,8.70951 -10.6211,17.01552 -13.80274,25.04101 -1.4532,4.00284 -2.54959,8.21928 -3.2793,12.61133 -2.03843,26.1259 8.23897,55.55808 28.04493,80.31446 17.09137,18.34751 38.54199,34.74283 57.10742,50.1289 104.17847,86.33779 210.55407,180.31508 340.27148,222.66208 39.66368,12.9485 84.43481,9.906 125.28516,1.8809 127.60395,-25.0682 240.51408,-100.87326 335.93159,-186.9922 29.6782,-26.78598 64.2247,-50.36676 94.6426,-76.68554 v -2.42383 c 4.035,-2.53679 7.9704,-5.28677 11.7812,-8.23242 14.7032,-13.71249 28.1013,-28.28959 38.836,-44.62696 8.649,-15.48197 13.6676,-31.69402 14.5996,-47.16211 -0.3477,-13.28867 -3.8337,-26.7751 -9.4746,-40.24804 -7.5105,-13.26053 -43.6736,-17.92954 -64.4853,-11.35397 -35.0738,11.08177 -55.889,49.93698 -77.9542,78.10201 z"
         sodipodi:nodetypes="ssssasccscccsscsccccccas" />
      <g
         id="g17-9"
         transform="matrix(0.99655214,-0.0829689,-0.0829689,-0.99655214,74.78086,1263.0227)">
        <path
           style="fill:#caf2f7;fill-opacity:1;stroke-width:7.55906;stroke-linecap:round;stroke-linejoin:round"
           d="m 247.41112,589.98037 c 0,0 -33.02546,-34.14497 -54.2961,-63.81192 -21.27064,-29.66694 -28.19481,-47.80509 -9.51581,-67.17044 18.67899,-19.36534 33.02546,-18.47187 53.73635,-7.27679 20.71088,11.19507 67.73019,76.68625 67.73019,76.68625 z"
           id="path17-6" />
        <path
           style="fill:#caf2f7;fill-opacity:1;stroke-width:7.55906;stroke-linecap:round;stroke-linejoin:round"
           d="m 336.4967,453.959 c 0,0 -27.50452,-38.73062 -44.063,-71.26345 -16.55849,-32.53281 -20.67108,-51.50709 0.71217,-67.83739 21.38323,-16.33029 35.43136,-13.28569 54.21931,0.90176 18.78794,14.18744 55.40422,86.01472 55.40422,86.01472 z"
           id="path17-8-08" />
        <path
           style="fill:#caf2f7;fill-opacity:1;stroke-width:7.55906;stroke-linecap:round;stroke-linejoin:round"
           d="m 1060.8749,562.39444 c 0,0 33.0255,-34.14497 54.2961,-63.81192 21.2706,-29.66694 28.1948,-47.80509 9.5158,-67.17044 -18.679,-19.36534 -33.0254,-18.47187 -53.7363,-7.27679 -20.7109,11.19507 -67.7302,76.68625 -67.7302,76.68625 z"
           id="path17-3-0" />
        <path
           style="fill:#caf2f7;fill-opacity:1;stroke-width:7.55906;stroke-linecap:round;stroke-linejoin:round"
           d="m 971.78935,426.37307 c 0,0 27.50452,-38.73062 44.06295,-71.26345 16.5585,-32.53281 20.6711,-51.50709 -0.7121,-67.83739 -21.38325,-16.33029 -35.43138,-13.28569 -54.21933,0.90176 -18.78792,14.18744 -55.40422,86.01472 -55.40422,86.01472 z"
           id="path17-8-0-6" />
        <path
           style="fill:#caf2f7;fill-opacity:1;stroke-width:7.55906;stroke-linecap:round;stroke-linejoin:round"
           d="m 464.20748,359.27513 c 0,0 -23.54498,-41.25765 -36.80955,-75.26676 -13.26456,-34.0091 -15.48313,-53.29678 7.40837,-67.43541 22.89149,-14.13863 36.57025,-9.72151 53.86519,6.2521 17.29493,15.97359 46.63847,91.06598 46.63847,91.06598 z"
           id="path17-8-5-2" />
        <path
           style="fill:#caf2f7;fill-opacity:1;stroke-width:7.55906;stroke-linecap:round;stroke-linejoin:round"
           d="m 609.06278,303.81732 c 0,0 -4.33846,-47.30473 -2.32285,-83.7534 2.01562,-36.44866 7.98641,-54.9226 34.67836,-58.30807 26.69194,-3.38547 37.31198,6.30133 46.43598,28.00442 9.12399,21.70306 4.72381,102.20492 4.72381,102.20492 z"
           id="path17-8-5-8-3" />
        <path
           style="fill:#caf2f7;fill-opacity:1;stroke-width:7.55906;stroke-linecap:round;stroke-linejoin:round"
           d="m 850.14916,344.86289 c 0,0 23.54498,-41.25765 36.80955,-75.26676 13.26456,-34.0091 15.48313,-53.29678 -7.40837,-67.43541 -22.89149,-14.13863 -36.57025,-9.72151 -53.86519,6.2521 -17.29493,15.97359 -46.63847,91.06598 -46.63847,91.06598 z"
           id="path17-8-5-1-2" />
      </g>
    </g>
    <path
       style="fill:#000000"
       id="path1" />
  </g>
</svg>
