<?xml version="1.0" encoding="UTF-8" standalone="no"?>
<!-- Created with Inkscape (http://www.inkscape.org/) -->

<svg
   version="1.1"
   id="svg1"
   width="1333.3333"
   height="1333.3333"
   viewBox="0 0 1333.3333 1333.3333"
   sodipodi:docname="preview3-1.svg"
   inkscape:version="1.3 (0e150ed6c4, 2023-07-21)"
   xmlns:inkscape="http://www.inkscape.org/namespaces/inkscape"
   xmlns:sodipodi="http://sodipodi.sourceforge.net/DTD/sodipodi-0.dtd"
   xmlns="http://www.w3.org/2000/svg"
   xmlns:svg="http://www.w3.org/2000/svg">
  <defs
     id="defs1" />
  <sodipodi:namedview
     id="namedview1"
     pagecolor="#ffffff"
     bordercolor="#000000"
     borderopacity="0.25"
     inkscape:showpageshadow="2"
     inkscape:pageopacity="0.0"
     inkscape:pagecheckerboard="0"
     inkscape:deskcolor="#d1d1d1"
     inkscape:zoom="0.63162317"
     inkscape:cx="669.7031"
     inkscape:cy="675.24438"
     inkscape:window-width="2560"
     inkscape:window-height="1369"
     inkscape:window-x="1912"
     inkscape:window-y="-8"
     inkscape:window-maximized="1"
     inkscape:current-layer="g19"
     showgrid="false" />
  <g
     inkscape:groupmode="layer"
     inkscape:label="Image"
     id="g1">
    <path
       style="fill:#000000"
       id="path1" />
    <path
       id="path2-3"
       style="fill:#caf2f7;fill-opacity:1"
       d="m 196.38281,110.16211 c -4.49745,0.0864 -8.99822,0.28741 -13.42525,0.71924 -2.55441,0.2423 -5.29524,0.59015 -7.90483,1.01513 -1.32052,0.21834 -2.87077,0.49995 -4.27234,0.79241 -9.57302,1.97198 -18.99886,5.42673 -26.89758,11.29353 -6.47382,4.7526 -11.75537,11.10501 -15.19385,18.36633 -3.2224,6.68412 -5.05054,13.9819 -5.82373,21.34461 -0.0882,0.85882 -0.18453,1.99822 -0.24653,2.97143 -0.15713,2.51988 -0.25472,5.06873 -0.29923,7.51813 -0.15202,12.85408 -0.18031,25.71024 -0.0919,38.56503 0.28557,33.58145 1.44823,67.09532 3.23444,100.63361 1.65692,31.52272 3.87243,63.03801 6.28713,94.5211 0.36113,5.085 0.55343,10.32074 2.59433,15.07606 2.87295,7.44587 8.46942,13.77145 15.47499,17.58622 8.54208,4.74588 18.54803,6.15239 28.20298,5.70068 8.4233,-0.39315 16.98197,-2.21573 24.25676,-6.63295 6.60033,-3.99716 11.93809,-10.37911 13.85468,-17.93494 0.90513,-3.35427 0.84122,-6.86643 0.45255,-10.29132 -3.37406,-41.75424 -6.79164,-83.50592 -10.11689,-125.26431 -1.10124,-14.81961 -1.72376,-29.77404 0.0619,-44.56659 1.09008,-8.61385 3.0672,-17.26316 7.16275,-24.98148 2.78984,-5.25174 6.77371,-9.95976 11.89056,-13.06502 6.11963,-3.86528 13.4509,-5.30054 20.60558,-5.39475 6.50617,-0.0784 12.94355,0.79623 19.41134,1.21445 37.52512,2.94573 75.02946,6.15994 112.5562,9.08091 5.20849,0.19293 10.44897,-0.81668 15.23367,-2.87689 0.29358,-0.13917 1.02816,-0.4569 1.47868,-0.68582 4.94831,-2.37088 9.17837,-6.0749 12.44421,-10.46231 1.4742,-1.95651 2.78288,-4.09824 3.85838,-6.20288 2.85945,-5.56944 4.55145,-11.67182 5.49608,-17.84234 0.10106,-0.65608 0.23401,-1.63494 0.32816,-2.4171 1.01331,-8.62087 0.55271,-17.62341 -2.75189,-25.736 -2.67968,-6.58411 -7.48189,-12.42908 -13.85209,-15.7149 -3.18368,-1.70628 -6.7476,-2.49025 -10.29783,-2.98361 -3.98929,-0.56185 -8.03648,-0.41176 -12.0474,-0.72733 -35.33701,-1.69777 -70.66593,-3.63217 -105.94827,-6.23764 -17.20644,-1.45541 -34.29277,-4.09333 -51.51259,-5.42272 -7.95894,-0.65413 -16.10719,-1.02586 -24.20325,-0.95797 z" />
    <path
       id="path2-7"
       style="fill:#caf2f7;fill-opacity:1"
       d="m 213.66016,929.41016 c -8.47978,0.21569 -17.17157,2.05797 -24.3125,6.82422 -6.62233,4.34756 -11.71457,11.41631 -12.70193,19.38205 -0.32565,2.83485 -0.69244,5.73059 -0.45826,8.64175 0.75916,39.06992 1.45005,78.14952 1.01792,117.22752 -0.40529,13.5871 -1.30715,27.1538 -1.7132,40.7409 -0.15912,6.1167 -0.23664,12.3899 -0.0781,18.5662 0.0257,1.4345 0.0941,3.0237 0.14255,4.4103 0.59316,13.3753 2.15543,26.8668 6.60155,39.5621 3.32866,9.4687 8.51951,18.4856 16.10598,25.1776 6.72811,6.0437 15.18247,9.9813 24.00647,11.8044 3.40036,0.7255 6.85816,1.1672 10.32702,1.3876 0.39102,0.016 1.29907,0.068 1.69955,0.087 3.954,0.1783 8.0808,-0 12.10455,-0.2167 42.15973,-2.032 84.37175,-2.5225 126.55527,-3.8825 23.02037,-0.7513 46.05253,-1.7409 69.03525,-3.4132 16.54837,-1.2051 33.09199,-2.766 49.56544,-4.9172 3.75992,-0.4883 7.53348,-0.9617 11.29686,-1.6834 7.10808,-1.7343 13.54465,-5.9494 18.18247,-11.5838 5.28645,-6.5145 7.90181,-14.8539 8.55834,-23.1333 0.20987,-2.5522 0.23367,-5.1172 0.13313,-7.6753 -0.0362,-0.6412 -0.0793,-1.6065 -0.1421,-2.3687 -0.26828,-3.8071 -0.84405,-7.5518 -2.13303,-11.1982 -1.47772,-4.33 -3.99603,-8.2341 -6.93777,-11.7104 -0.33781,-0.3963 -0.89651,-1.0304 -1.34554,-1.5063 -6.28089,-6.689 -14.24732,-11.5744 -22.57191,-15.304 -3.20927,-1.4242 -6.50855,-2.641 -9.86379,-3.6741 -0.38159,-0.1085 -1.33269,-0.3875 -1.70899,-0.502 -4.77353,-1.2936 -9.64573,-2.4567 -14.62005,-2.4703 -2.24771,-0.045 -4.32388,0.049 -6.57664,0.1425 -44.14554,1.3801 -88.31942,-0.1218 -132.46932,0.9645 -1.9638,0.06 -4.13059,0.1403 -6.17118,0.2317 -10.59741,0.4415 -21.17125,1.3636 -31.78687,1.276 -6.50972,-0.1761 -13.25684,-0.6835 -19.1671,-3.6644 -3.89925,-1.9853 -7.02789,-5.3052 -8.99249,-9.1962 -3.05406,-5.7489 -4.20535,-12.2685 -4.93901,-18.6705 -0.833,-8.2045 -1.22679,-16.4482 -1.49088,-24.6885 -0.49113,-16.9243 0.26714,-33.8496 1.17159,-50.7469 0.59053,-11.5947 1.25024,-23.18738 1.59078,-34.79311 0.0794,-3.96527 0.23282,-8.09714 0.20156,-12.12929 0.0408,-8.50739 -3.07402,-17.05469 -8.85204,-23.33872 -1.03471,-1.15727 -2.32305,-2.36853 -3.40226,-3.28199 -7.23362,-6.02823 -16.50083,-9.10324 -25.7539,-10.18164 -2.17907,-0.25483 -4.38822,-0.40779 -6.50232,-0.46903 -1.20141,-0.033 -2.40333,-0.0409 -3.6051,-0.0271 z" />
    <path
       id="path2-3-5"
       style="fill:#caf2f7;fill-opacity:1"
       d="m 1189.9199,892.08398 c -8.7086,0.1554 -17.6414,1.89392 -25.0967,6.59139 -7.0177,4.35152 -12.445,11.64792 -13.5888,19.9301 -0.3485,2.76513 -0.1129,5.53509 -0.05,8.26429 0.1086,2.5852 0.1859,5.22705 0.242,7.73395 1.1935,38.22665 2.4188,76.44679 3.5766,114.67449 0.3796,15.8864 0.3694,31.9159 -2.5716,47.5896 -1.7813,9.1188 -4.6105,18.2688 -10.0857,25.8906 -4.1149,5.7349 -10.1054,10.1579 -16.9168,12.1007 -7.5744,2.2835 -15.6365,1.9552 -23.3831,0.8499 -40.7844,-5.2284 -81.5366,-10.7529 -122.32135,-15.9949 -9.60245,-0.8218 -19.59271,2.3948 -26.58958,9.0984 -6.37666,5.9814 -10.426,14.0566 -12.69528,22.417 -0.67022,2.4118 -1.20157,4.9335 -1.59278,7.3119 -1.36258,8.4463 -1.35541,17.3281 1.5123,25.4754 2.47682,7.1306 7.42318,13.5694 14.20711,17.053 3.17992,1.6993 6.74269,2.4638 10.26014,3.098 3.88865,0.5334 7.81458,0.7196 11.71123,1.1867 34.99271,3.4321 69.96501,7.1009 104.85841,11.4337 11.9825,1.6457 23.9354,3.8188 35.8443,5.7313 6.4226,1.0254 12.7934,1.9721 19.2729,2.7267 4.8225,0.5673 9.7312,1.0269 14.6314,1.3417 5.8547,0.3662 11.9932,0.4916 17.8653,0.2559 1.846,-0.076 3.621,-0.1809 5.3597,-0.3235 10.9262,-0.9147 21.9363,-3.3164 31.5875,-8.6902 0.5898,-0.3281 1.444,-0.8271 2.118,-1.2523 7.1038,-4.3978 13.1416,-10.5561 17.1745,-17.8913 2.7567,-4.9086 4.7213,-10.2373 6.0298,-15.706 0.1243,-0.5154 0.3178,-1.3698 0.4531,-2.0176 0.3407,-1.592 0.6324,-3.2497 0.8472,-4.7624 0.118,-0.8205 0.2268,-1.6685 0.3221,-2.4978 0.7444,-6.9085 0.9989,-13.8578 1.4225,-20.7906 0.8966,-16.6628 1.6278,-33.4171 2.0762,-50.0884 1.638,-57.1901 0.8301,-114.41803 -0.7598,-171.59946 -0.043,-2.28703 -0.067,-4.49255 -0.295,-6.80574 -1.0829,-10.77079 -7.8229,-20.69944 -17.2564,-25.94281 -1.4804,-0.85984 -3.1093,-1.65436 -4.5817,-2.27804 -4.5733,-1.93276 -9.4475,-3.09107 -14.3708,-3.67226 -0.3748,-0.0313 -1.1931,-0.12682 -1.7384,-0.17568 -1.0261,-0.0907 -2.2321,-0.15757 -3.1503,-0.20518 -1.4418,-0.0569 -2.8851,-0.0791 -4.3281,-0.0606 z" />
    <path
       id="path2-7-0"
       style="fill:#caf2f7;fill-opacity:1"
       d="m 1142.875,110.1582 c -52.2532,1.93628 -104.5586,1.42406 -156.82299,2.90811 -18.83291,0.54702 -37.73796,1.3575 -56.51068,2.66759 -14.47033,1.02135 -28.9557,2.30273 -43.2811,4.16198 -2.12274,0.32202 -4.16938,0.49496 -6.27363,0.94624 -9.93046,2.57474 -18.5899,9.7837 -22.71825,19.20303 -3.88011,8.40477 -4.65871,17.90267 -3.88313,27.03126 0.48632,5.84756 2.12101,11.68403 5.3809,16.61054 5.0287,7.96139 12.65889,13.91151 20.78422,18.47377 8.46072,4.72488 17.71497,8.06405 27.26876,9.70921 3.96709,0.57614 8.03619,0.49576 11.96291,0.35928 45.55581,-0.80414 91.10199,1.53894 136.65759,0.75652 10.5413,-0.2778 21.177,-1.02365 31.7751,-0.9266 5.938,0.15721 11.9968,0.54479 17.6269,2.58992 4.1497,1.5168 7.9461,4.20436 10.3437,7.9623 3.7014,5.49225 5.1234,12.126 5.9752,18.59456 0.8951,7.30603 1.0513,14.67501 1.3511,22.02253 0.8404,26.70528 -1.734,53.34081 -3.2529,79.97391 -0.3576,6.24646 -0.6646,12.56674 -0.8385,18.8258 -0.1646,4.29829 -0.2322,8.65711 0.7852,12.86787 1.8608,8.16113 6.7811,15.60124 13.6751,20.37452 7.7457,5.54585 17.2473,8.07782 26.6413,8.83948 8.7322,0.7051 17.7889,-0.0421 25.8844,-3.59244 7.104,-3.10383 13.3356,-8.68886 16.2823,-15.9584 1.6301,-3.94425 2.0782,-8.25595 2.2044,-12.48567 0.01,-3.38219 -0.1145,-6.76361 -0.067,-10.14615 -0.1826,-36.3924 -0.2606,-72.7923 0.6379,-109.17652 0.6343,-14.55244 1.8505,-29.04817 2.3812,-43.58062 0.3391,-9.23712 0.3683,-18.61404 -0.2184,-27.89288 -0.065,-0.83437 -0.1255,-1.89604 -0.1957,-2.73266 -0.905,-11.27322 -2.8161,-22.58271 -6.9939,-33.139 -3.5756,-8.98634 -9.0728,-17.37045 -16.6936,-23.43038 -7.975,-6.4245 -17.9541,-9.98194 -28.0501,-11.20632 -0.8666,-0.1092 -1.9434,-0.22522 -2.7759,-0.29552 -1.1358,-0.10353 -2.4618,-0.18143 -3.5662,-0.23713 -1.8245,-0.0758 -3.6507,-0.10184 -5.4766,-0.0781 z" />
    <g
       id="g19">
      <g
         id="g2"
         transform="translate(-433.10816,28.3464)"
         style="fill:#caf2f7;fill-opacity:1">
        <path
           id="path13-9"
           style="fill:#caf2f7;fill-opacity:1;stroke-width:1.43111"
           d="m 1471.8406,712.05595 c -88.686,113.20315 -217.0174,200.06734 -357.5371,236.60547 -83.171,21.62626 -160.4777,-26.56152 -224.21096,-73.99414 -63.25634,-47.07769 -146.48418,-83.54 -177.53516,-159.41601 -8.4035,-20.53475 -3.90085,-47.68485 -19.79917,-62.83289 -13.38913,-12.75727 -35.188,-17.94705 -53.65982,-14.09875 -0.36783,0.0766 -0.71563,0.17376 -1.08007,0.2539 -15.90945,0.77962 -29.90882,6.29708 -40.47266,15.95117 -1.07271,1.50305 -2.13494,3.01361 -3.20898,4.51563 -6.22786,8.70951 -10.6211,17.01552 -13.80274,25.04101 -1.4532,4.00284 -2.54959,8.21928 -3.2793,12.61133 -2.03843,26.1259 8.23897,55.55808 28.04493,80.31446 17.09137,18.34751 38.54199,34.74283 57.10742,50.1289 104.17847,86.33779 210.55407,180.31507 340.27151,222.66207 39.6637,12.9485 84.4348,9.906 125.2851,1.8809 127.604,-25.0682 240.5141,-100.87325 335.9317,-186.99219 29.6782,-26.78598 64.2247,-50.36676 94.6426,-76.68554 v -2.42383 c 4.035,-2.53679 7.9704,-5.28677 11.7812,-8.23242 14.7032,-13.71249 28.1013,-28.28959 38.836,-44.62696 8.649,-15.48197 13.6676,-31.69402 14.5996,-47.16211 -0.3477,-13.28867 -3.8337,-26.7751 -9.4746,-40.24804 -7.5105,-13.26053 -43.6736,-17.92954 -64.4853,-11.35397 -35.0738,11.08177 -55.889,49.93698 -77.9542,78.10201 z"
           sodipodi:nodetypes="ssssasccscccsscsccccccas" />
        <g
           id="g17-9-1"
           transform="matrix(0.99655214,-0.0829689,-0.0829689,-0.99655214,491.44888,1362.3001)"
           style="fill:#caf2f7;fill-opacity:1">
          <path
             style="fill:#caf2f7;fill-opacity:1;stroke-width:7.55906;stroke-linecap:round;stroke-linejoin:round"
             d="m 247.41112,589.98037 c 0,0 -33.02546,-34.14497 -54.2961,-63.81192 -21.27064,-29.66694 -28.19481,-47.80509 -9.51581,-67.17044 18.67899,-19.36534 33.02546,-18.47187 53.73635,-7.27679 20.71088,11.19507 67.73019,76.68625 67.73019,76.68625 z"
             id="path17-6-5" />
          <path
             style="fill:#caf2f7;fill-opacity:1;stroke-width:7.55906;stroke-linecap:round;stroke-linejoin:round"
             d="m 336.4967,453.959 c 0,0 -27.50452,-38.73062 -44.063,-71.26345 -16.55849,-32.53281 -20.67108,-51.50709 0.71217,-67.83739 21.38323,-16.33029 35.43136,-13.28569 54.21931,0.90176 18.78794,14.18744 55.40422,86.01472 55.40422,86.01472 z"
             id="path17-8-08-7" />
          <path
             style="fill:#caf2f7;fill-opacity:1;stroke-width:7.55906;stroke-linecap:round;stroke-linejoin:round"
             d="m 1060.8749,562.39444 c 0,0 33.0255,-34.14497 54.2961,-63.81192 21.2706,-29.66694 28.1948,-47.80509 9.5158,-67.17044 -18.679,-19.36534 -33.0254,-18.47187 -53.7363,-7.27679 -20.7109,11.19507 -67.7302,76.68625 -67.7302,76.68625 z"
             id="path17-3-0-8" />
          <path
             style="fill:#caf2f7;fill-opacity:1;stroke-width:7.55906;stroke-linecap:round;stroke-linejoin:round"
             d="m 971.78935,426.37307 c 0,0 27.50452,-38.73062 44.06295,-71.26345 16.5585,-32.53281 20.6711,-51.50709 -0.7121,-67.83739 -21.38325,-16.33029 -35.43138,-13.28569 -54.21933,0.90176 -18.78792,14.18744 -55.40422,86.01472 -55.40422,86.01472 z"
             id="path17-8-0-6-1" />
          <path
             style="fill:#caf2f7;fill-opacity:1;stroke-width:7.55906;stroke-linecap:round;stroke-linejoin:round"
             d="m 464.20748,359.27513 c 0,0 -23.54498,-41.25765 -36.80955,-75.26676 -13.26456,-34.0091 -15.48313,-53.29678 7.40837,-67.43541 22.89149,-14.13863 36.57025,-9.72151 53.86519,6.2521 17.29493,15.97359 46.63847,91.06598 46.63847,91.06598 z"
             id="path17-8-5-2-2" />
          <path
             style="fill:#caf2f7;fill-opacity:1;stroke-width:7.55906;stroke-linecap:round;stroke-linejoin:round"
             d="m 609.06278,303.81732 c 0,0 -4.33846,-47.30473 -2.32285,-83.7534 2.01562,-36.44866 7.98641,-54.9226 34.67836,-58.30807 26.69194,-3.38547 37.31198,6.30133 46.43598,28.00442 9.12399,21.70306 4.72381,102.20492 4.72381,102.20492 z"
             id="path17-8-5-8-3-1" />
          <path
             style="fill:#caf2f7;fill-opacity:1;stroke-width:7.55906;stroke-linecap:round;stroke-linejoin:round"
             d="m 850.14916,344.86289 c 0,0 23.54498,-41.25765 36.80955,-75.26676 13.26456,-34.0091 15.48313,-53.29678 -7.40837,-67.43541 -22.89149,-14.13863 -36.57025,-9.72151 -53.86519,6.2521 -17.29493,15.97359 -46.63847,91.06598 -46.63847,91.06598 z"
             id="path17-8-5-1-2-7" />
        </g>
      </g>
    </g>
  </g>
</svg>
