<?xml version="1.0" encoding="UTF-8" standalone="no"?>
<!-- Created with Inkscape (http://www.inkscape.org/) -->

<svg
   version="1.1"
   id="svg1"
   width="1333.3333"
   height="1333.3333"
   viewBox="0 0 1333.3333 1333.3333"
   sodipodi:docname="preview.svg"
   inkscape:version="1.3 (0e150ed6c4, 2023-07-21)"
   xmlns:inkscape="http://www.inkscape.org/namespaces/inkscape"
   xmlns:sodipodi="http://sodipodi.sourceforge.net/DTD/sodipodi-0.dtd"
   xmlns="http://www.w3.org/2000/svg"
   xmlns:svg="http://www.w3.org/2000/svg">
  <defs
     id="defs1" />
  <sodipodi:namedview
     id="namedview1"
     pagecolor="#ffffff"
     bordercolor="#000000"
     borderopacity="0.25"
     inkscape:showpageshadow="2"
     inkscape:pageopacity="0.0"
     inkscape:pagecheckerboard="0"
     inkscape:deskcolor="#d1d1d1"
     inkscape:zoom="0.89325005"
     inkscape:cx="937.02765"
     inkscape:cy="776.37835"
     inkscape:window-width="2560"
     inkscape:window-height="1369"
     inkscape:window-x="1912"
     inkscape:window-y="-8"
     inkscape:window-maximized="1"
     inkscape:current-layer="g1"
     showgrid="false" />
  <g
     inkscape:groupmode="layer"
     inkscape:label="Image"
     id="g1">
    <path
       id="path13"
       style="fill:#caf2f7;fill-opacity:1"
       d="M 651.29102 375.69922 C 641.2681 375.8806 631.13494 376.82703 620.90039 378.63672 C 561.80535 389.08601 521.95058 431.83662 481.10352 470.8457 C 415.63463 533.3687 365.67521 608.4232 313.33398 681.62109 C 274.8325 735.46446 325.54848 769.78189 360.89844 799.07812 C 433.69413 859.40746 508.02476 925.07557 598.66602 954.66602 C 626.38139 963.71389 657.66637 961.58813 686.21094 955.98047 C 775.3754 938.46385 854.27136 885.49478 920.94531 825.31836 C 956.20094 793.49848 1001.5163 768.29745 1025.2266 728.81445 C 1053.3705 681.9482 995.78157 626.06238 966.50195 585.82812 C 930.2926 536.07146 892.31716 486.99807 841.66602 450.56641 C 786.15912 410.64217 721.4514 374.42953 651.29102 375.69922 z M 655.34766 451.26172 C 697.47975 451.34227 741.92878 468.11486 776.40039 491.54297 C 816.24995 518.62612 847.63153 553.35687 877.24805 589.74414 C 905.4403 624.38154 961.54476 673.93068 926.49805 718.66602 C 864.52786 797.76778 774.85549 858.46472 676.66602 883.99609 C 618.54951 899.10764 564.53031 865.43501 519.99609 832.29102 C 475.79513 799.39504 417.63857 773.91752 395.94141 720.89844 C 377.2843 675.30805 427.38963 638.56119 452.16992 603.6543 C 488.26778 552.80486 533.08306 506.11472 584.66602 471.3125 C 605.62172 457.17401 630.0684 451.21339 655.34766 451.26172 z " />
    <path
       id="path2"
       style="fill:#caf2f7;fill-opacity:1"
       d="M 193.79883 116.21289 C 158.91092 117.17258 129.00265 128.57563 128.3457 172.29492 C 126.51572 294.07777 137.89072 415.78886 148.5957 536.91797 C 164.4745 716.5898 158.74124 897.80444 183.3125 1076.4043 C 190.54762 1128.9939 170.59584 1202.0501 213.68945 1236.2012 C 221.62042 1242.4864 234.1991 1238.2585 244 1235.8496 C 319.69164 1217.2457 397.54224 1211.9224 475.06445 1214.9902 C 685.89408 1223.3335 896.98161 1226.5331 1107.9766 1224.4531 C 1149.0422 1224.0483 1236.1584 1247.9912 1238.1348 1188.1465 C 1244.4096 998.14786 1224.0246 808.43279 1215.3535 618.64648 C 1210.4375 511.04894 1199.4021 403.14595 1180.2539 297.25586 C 1171.9776 251.48754 1185.4411 184.15458 1141.2324 160.74414 C 1093.7676 135.60941 1034.4973 150.19386 981.13867 147.21289 C 745.35531 134.04046 508.6852 139.94308 272.82031 122.63281 C 251.08178 121.03741 220.93386 115.46646 193.79883 116.21289 z M 242.61914 192.27148 C 245.88938 192.03088 249.39653 192.04481 253.1582 192.33594 C 348.66397 199.72749 443.95839 208.93229 539.82227 213.3418 C 681.44292 219.856 823.24425 208.01045 964.46289 218.30664 C 1011.2832 221.72029 1083.9952 201.37425 1102.1445 259.12305 C 1119.1132 313.11539 1118.2528 371.28762 1126.0684 427.31445 C 1147.5211 581.10045 1154.5036 735.99352 1159.6152 890.86719 C 1161.2172 939.40679 1191.3966 1021.2612 1128.5059 1038.0938 C 1098.5154 1046.1206 1066.4233 1041.9698 1035.416 1040.916 C 915.20756 1036.8307 794.05325 1047.0667 674.5625 1032.6504 C 552.23687 1017.8921 429.28499 1019.8376 306.45508 1018.7305 C 235.12462 1018.0876 240.78127 941.6996 239.4668 892.66602 C 234.1188 693.16986 217.46577 494.52911 201.17773 295.75586 C 197.97565 256.67875 193.56558 195.88052 242.61914 192.27148 z " />
    <path
       style="fill:#caf2f7;fill-opacity:1"
       d="m 957.99994,360.17481 c -87.12426,-6.62169 -171.60088,-5.52109 -262.08193,-2.10986 -69.6048,2.62417 -138.27837,-11.45823 -208.60102,-12.28983 -60.04695,-0.71008 -134.981,25.66796 -181.3388,-12.70998 -60.43342,-50.03063 34.6036,-87.86061 88.83082,-85.45054 184.77592,8.21218 369.50998,11.09314 554.64995,13.06261 52.59614,0.5595 117.20454,39.12575 71.95874,84.74054 -16.0946,16.22584 -41.76775,16.40252 -63.41776,14.75706 z"
       id="path16" />
    <path
       style="fill:#caf2f7;fill-opacity:1"
       d="m 637.33329,824.02501 c -54.048,-14.87074 -67.1299,-83.62444 -70.51209,-133.1247 -3.69716,-54.11004 7.14927,-124.33534 67.56205,-143.44402 51.53133,-16.29946 108.36317,15.82158 121.26974,68.77352 14.51285,59.54208 23.11935,131.24614 -16.68466,181.63477 -24.16852,30.59537 -66.59943,35.80012 -101.63504,26.16043 z"
       id="path15" />
    <path
       style="fill:#000000"
       id="path1" />
  </g>
</svg>
