<?xml version="1.0" encoding="UTF-8" standalone="no"?>
<!-- Created with Inkscape (http://www.inkscape.org/) -->

<svg
   version="1.1"
   id="svg1"
   width="1333.3333"
   height="1333.3333"
   viewBox="0 0 1333.3333 1333.3333"
   sodipodi:docname="preview.svg"
   inkscape:version="1.3 (0e150ed6c4, 2023-07-21)"
   xmlns:inkscape="http://www.inkscape.org/namespaces/inkscape"
   xmlns:sodipodi="http://sodipodi.sourceforge.net/DTD/sodipodi-0.dtd"
   xmlns="http://www.w3.org/2000/svg"
   xmlns:svg="http://www.w3.org/2000/svg">
  <defs
     id="defs1" />
  <sodipodi:namedview
     id="namedview1"
     pagecolor="#ffffff"
     bordercolor="#000000"
     borderopacity="0.25"
     inkscape:showpageshadow="2"
     inkscape:pageopacity="0.0"
     inkscape:pagecheckerboard="0"
     inkscape:deskcolor="#d1d1d1"
     inkscape:zoom="0.63162317"
     inkscape:cx="1158.9189"
     inkscape:cy="811.40152"
     inkscape:window-width="2560"
     inkscape:window-height="1369"
     inkscape:window-x="1912"
     inkscape:window-y="-8"
     inkscape:window-maximized="1"
     inkscape:current-layer="g1" />
  <g
     inkscape:groupmode="layer"
     inkscape:label="Image"
     id="g1">
    <path
       style="fill:#caf2f7;fill-opacity:1"
       d="M 213.68906,1236.2004 C 170.5954,1202.0493 190.54848,1128.9932 183.31335,1076.4035 158.74207,897.80346 164.47489,716.59079 148.59608,536.91878 137.89109,415.78955 126.51583,294.07713 128.34581,172.29416 c 1.16791,-77.723271 94.78634,-53.30823 144.47447,-49.66159 235.86512,17.31028 472.53547,11.40847 708.31907,24.58091 53.35865,2.98097 112.62825,-11.60474 160.09315,13.53002 44.2087,23.41046 30.7446,90.74435 39.0209,136.51272 19.1482,105.8902 30.1836,213.79342 35.0996,321.39107 8.6711,189.7865 29.0559,379.5007 22.7811,569.49951 -1.9764,59.8448 -89.0927,35.9023 -130.1584,36.3071 -210.99516,2.08 -422.0813,-1.1203 -632.91114,-9.4636 -77.52229,-3.0678 -155.37285,2.2551 -231.06457,20.859 -9.80091,2.4089 -22.37996,6.6363 -30.31093,0.3511 z m 914.81614,-198.1058 c 62.8908,-16.8326 32.7117,-98.68834 31.1097,-147.22799 -5.1116,-154.87382 -12.093,-309.76642 -33.5458,-463.55257 -7.8156,-56.02689 -6.9562,-114.19927 -23.9249,-168.19167 -18.1493,-57.74885 -90.8613,-37.40155 -137.68161,-40.8152 -141.21878,-10.2962 -283.01948,1.54957 -424.64028,-4.96464 -95.86397,-4.40951 -191.15798,-13.61569 -286.66384,-21.00725 -60.1868,-4.65809 -55.39653,61.73847 -51.98097,103.42076 16.28805,198.77345 32.94036,397.41422 38.28836,596.91058 1.31447,49.03363 -4.34196,125.42028 66.98857,126.06318 122.83003,1.1071 245.78216,-0.8385 368.10791,13.9198 119.49087,14.4163 240.64478,4.1806 360.85336,8.2659 31.0073,1.0538 63.099,5.206 93.0895,-2.8209 z M 598.66663,954.66661 C 508.02528,925.07613 433.69331,859.40818 360.89754,799.07878 325.54755,769.78252 274.83179,735.46446 313.33331,681.62104 c 52.34128,-73.19797 102.302,-148.25181 167.77095,-210.77487 40.84711,-39.00912 80.70061,-81.7601 139.79571,-92.2094 81.87651,-14.47755 157.33014,26.30125 220.76665,71.92899 50.6512,36.4317 88.62606,85.5056 124.83545,135.26231 29.27965,40.2343 86.86863,96.12078 58.72463,142.98708 -23.7103,39.48304 -69.02563,64.68239 -104.28129,96.5023 -66.67402,60.17648 -145.56922,113.14622 -234.73377,130.66286 -28.5446,5.60767 -59.82961,7.73418 -87.54501,-1.3137 z m 78,-70.67003 c 98.18957,-25.5314 187.8613,-86.22812 249.83155,-165.32996 35.04675,-44.73538 -21.05746,-94.28601 -49.24974,-128.92344 -29.61655,-36.38731 -60.9993,-71.11681 -100.8489,-98.19999 -55.15463,-37.48501 -135.85098,-57.93336 -191.73291,-20.23069 -51.58301,34.80225 -96.39847,81.49189 -132.49636,132.34138 -24.78032,34.90693 -74.88608,71.65362 -56.22896,117.24405 21.69719,53.01914 79.85348,78.49709 124.05449,111.3931 44.53426,33.14403 98.55427,66.81711 156.67083,51.70555 z m -39.33334,-59.97157 c -54.048,-14.87074 -67.1299,-83.62444 -70.51209,-133.1247 -3.69716,-54.11004 7.14927,-124.33534 67.56205,-143.44402 51.53133,-16.29946 108.36317,15.82158 121.26974,68.77352 14.51285,59.54208 23.11935,131.24614 -16.68466,181.63477 -24.16852,30.59537 -66.59943,35.80012 -101.63504,26.16043 z m 320.66665,-463.8502 c -87.12426,-6.62169 -171.60088,-5.52109 -262.08193,-2.10986 -69.6048,2.62417 -138.27837,-11.45823 -208.60102,-12.28983 -60.04695,-0.71008 -134.981,25.66796 -181.3388,-12.70998 -60.43342,-50.03063 34.6036,-87.86061 88.83082,-85.45054 184.77592,8.21218 369.50998,11.09314 554.64995,13.06261 52.59614,0.5595 117.20454,39.12575 71.95874,84.74054 -16.0946,16.22584 -41.76775,16.40252 -63.41776,14.75706 z"
       id="path2"
       sodipodi:nodetypes="sssssssssssssssssssssssssssssssssssssssssssssssssssssssssssss" />
    <path
       style="fill:#000000"
       id="path1" />
  </g>
</svg>
