<?xml version="1.0" encoding="UTF-8" standalone="no"?>
<!-- Created with Inkscape (http://www.inkscape.org/) -->

<svg
   version="1.1"
   id="svg1"
   width="1333.3333"
   height="1333.3333"
   viewBox="0 0 1333.3333 1333.3333"
   sodipodi:docname="refresh.svg"
   inkscape:version="1.3 (0e150ed6c4, 2023-07-21)"
   xmlns:inkscape="http://www.inkscape.org/namespaces/inkscape"
   xmlns:sodipodi="http://sodipodi.sourceforge.net/DTD/sodipodi-0.dtd"
   xmlns="http://www.w3.org/2000/svg"
   xmlns:svg="http://www.w3.org/2000/svg">
  <defs
     id="defs1">
    <inkscape:path-effect
       effect="simplify"
       id="path-effect9"
       is_visible="true"
       lpeversion="1.3"
       threshold="1.43"
       steps="50"
       smooth_angles="0"
       helper_size="0"
       simplify_individual_paths="false"
       simplify_just_coalesce="false" />
  </defs>
  <sodipodi:namedview
     id="namedview1"
     pagecolor="#ffffff"
     bordercolor="#000000"
     borderopacity="0.25"
     inkscape:showpageshadow="2"
     inkscape:pageopacity="0.0"
     inkscape:pagecheckerboard="0"
     inkscape:deskcolor="#d1d1d1"
     inkscape:zoom="0.89325005"
     inkscape:cx="666.10687"
     inkscape:cy="666.66663"
     inkscape:window-width="2560"
     inkscape:window-height="1369"
     inkscape:window-x="1912"
     inkscape:window-y="-8"
     inkscape:window-maximized="1"
     inkscape:current-layer="g1" />
  <g
     inkscape:groupmode="layer"
     inkscape:label="Image"
     id="g1">
    <path
       style="fill:#b7c891"
       d="m 649.48199,1267.7873 c -53.42337,-1.5711 -106.02405,-12.587 -157.64779,-25.7569 -40.83672,-11.086 -81.09006,-24.4531 -120.18195,-40.6732 -44.14894,-19.2504 -84.81402,-46.0108 -121.11911,-77.5702 -33.47205,-28.1446 -64.55849,-59.8956 -87.39837,-97.4279 -19.6898,-31.55001 -36.46131,-65.29874 -46.27005,-101.28874 -6.79389,-25.3828 -9.58489,-51.69215 -9.75235,-77.92626 -1.39874,-44.11476 -2.43152,-88.31578 0.40333,-132.3987 5.2178,-89.03403 21.59433,-177.94404 54.0599,-261.22396 5.81925,-14.75348 13.51505,-28.69112 22.36898,-41.83033 8.80126,-13.3312 17.50669,-26.72679 25.71505,-40.4327 23.3335,-37.4124 48.93541,-73.84175 80.72354,-104.62333 14.66119,-14.36731 29.93951,-28.17272 46.30418,-40.57955 14.88206,-10.26988 31.68903,-17.19102 47.48919,-25.85793 28.08633,-14.54908 57.50392,-27.90059 89.12433,-32.22 18.16787,-2.92723 36.1722,-6.76418 54.21422,-10.34302 40.00679,-6.41598 80.80821,-4.50166 120.92188,-0.14572 24.52361,3.00746 48.60008,8.99586 72.01754,16.79823 46.94309,14.41384 92.31814,33.60341 136.11601,55.74004 14.31189,6.56929 28.63857,14.28108 39.04143,26.40818 2.8174,2.88533 6.89806,6.61628 11.22467,4.69144 4.44496,-2.0978 4.65202,-7.64077 3.96953,-11.88658 -1.39434,-17.11152 0.36193,-34.29115 -0.40137,-51.42812 -0.3699,-20.7285 -1.89386,-41.44098 -1.6592,-62.17504 2.86703,-28.98209 22.08225,-54.8164 47.22055,-68.776994 27.22308,-15.154117 62.55057,-15.194403 89.27097,1.155552 21.4375,12.463672 38.2984,34.212102 41.5391,59.176382 2.7378,20.30291 2.1639,40.84632 2.3772,61.28081 -0.017,50.87513 -0.1251,102.16383 9.4606,152.33287 5.8541,33.29983 12.595,66.45073 17.6087,99.89342 2.8813,20.38412 5.1782,40.94383 4.9735,61.55629 -0.7682,22.66766 -7.6559,45.76706 -22.6727,63.14729 -13.9414,16.57183 -34.6254,27.44732 -56.3204,28.73642 -14.0899,1.2257 -28.0927,-1.3496 -42.0039,-3.16203 -39.52107,-3.13121 -79.19996,-0.91747 -118.77555,-2.50322 -77.02466,-0.6102 -154.09128,0.44963 -231.07024,-2.84943 -21.87176,-3.72546 -40.70788,-17.87239 -53.95282,-35.21015 -24.03167,-31.77394 -23.29148,-80.10348 2.69916,-110.54078 17.43455,-21.95445 46.04636,-34.34843 73.98482,-32.16055 35.56155,-0.53339 71.12803,-0.29539 106.69199,-0.33528 0.74204,-5.94171 -4.67157,-10.11501 -9.35061,-12.57238 -38.76059,-25.0216 -82.24049,-42.28965 -127.06206,-52.85916 -43.10773,-9.23618 -88.18631,-6.56511 -130.78265,4.05279 -31.97201,8.20996 -63.1422,22.09684 -87.75779,44.49039 -19.01382,16.81608 -34.35627,37.24073 -48.53842,58.16308 -22.86939,32.7892 -43.94752,67.34369 -57.44095,105.14591 -15.1046,43.68137 -21.81666,89.66369 -27.18305,135.39767 -5.43148,54.25765 -4.60183,108.93398 -1.53587,163.30826 1.59908,20.07813 7.15891,39.87283 16.84938,57.5654 20.2959,39.3018 52.16081,71.76291 88.50899,96.53593 33.31274,22.6207 70.77978,38.4659 109.249,49.9672 82.78501,25.6953 170.71117,36.4472 257.07885,27.0641 42.11734,-4.5335 83.87943,-13.5556 123.61791,-28.3469 18.69982,-7.2421 35.82303,-18.4377 49.85662,-32.7693 13.27016,-13.2377 23.7231,-28.90834 33.64436,-44.71653 20.40191,-31.50001 38.46473,-64.71019 51.22933,-100.07689 7.6068,-19.39429 15.9454,-39.57822 31.8864,-53.71732 21.3526,-19.42974 52.5355,-28.39062 80.686,-20.82074 31.4073,7.82701 58.6909,32.99671 66.4151,64.79105 5.7558,24.12287 1.0606,49.60938 -8.575,72.09621 -14.2469,36.60839 -28.105,73.91102 -50.4757,106.51442 -26.26,41.3853 -52.3263,83.5533 -87.0203,118.5603 -18.3526,18.8056 -39.8718,34.8517 -64.22967,44.9843 -62.45571,28.5548 -130.04311,43.8637 -197.76176,53.5514 -43.2926,6.0343 -87.10971,5.1743 -130.69329,4.2766 -3.63637,-0.064 -7.27282,-0.1244 -10.90939,-0.1761 z"
       id="path9"
       sodipodi:nodetypes="ssssssssssssssssssssssssssssssssssssssssssssssssssssssssscsssssssssssssssssssssssssssssssssssssssssssssssssssss" />
  </g>
</svg>
