<?xml version="1.0" encoding="UTF-8" standalone="no"?>
<!-- Created with Inkscape (http://www.inkscape.org/) -->

<svg
   version="1.1"
   id="svg1"
   width="1333.3333"
   height="1333.3333"
   viewBox="0 0 1333.3333 1333.3333"
   sodipodi:docname="save-unfilled.svg"
   inkscape:version="1.3 (0e150ed6c4, 2023-07-21)"
   xmlns:inkscape="http://www.inkscape.org/namespaces/inkscape"
   xmlns:sodipodi="http://sodipodi.sourceforge.net/DTD/sodipodi-0.dtd"
   xmlns="http://www.w3.org/2000/svg"
   xmlns:svg="http://www.w3.org/2000/svg">
  <defs
     id="defs1" />
  <sodipodi:namedview
     id="namedview1"
     pagecolor="#ffffff"
     bordercolor="#000000"
     borderopacity="0.25"
     inkscape:showpageshadow="2"
     inkscape:pageopacity="0.0"
     inkscape:pagecheckerboard="0"
     inkscape:deskcolor="#d1d1d1"
     inkscape:zoom="0.89325005"
     inkscape:cx="666.10687"
     inkscape:cy="666.66663"
     inkscape:window-width="2560"
     inkscape:window-height="1369"
     inkscape:window-x="1912"
     inkscape:window-y="-8"
     inkscape:window-maximized="1"
     inkscape:current-layer="g2" />
  <g
     inkscape:groupmode="layer"
     inkscape:label="Image"
     id="g1">
    <g
       id="g2">
      <path
         style="fill:#f9c0d4"
         d="m 303.33331,1189.2888 c -89.17851,-2.6338 -124.50967,-28.7644 -140.0889,-103.6083 -4.21402,-20.2445 -4.51789,-46.6758 -4.73842,-412.1617 -0.12109,-200.66868 -0.58593,-374.15215 -1.03298,-385.51882 -4.21865,-107.26311 39.55818,-138.50859 175.8603,-125.51936 9.9,0.94344 29.7,2.87589 44,4.29433 14.3,1.41843 41.9,3.18728 61.33333,3.93077 19.43333,0.74349 44.63333,1.83623 56,2.4283 25.03718,1.30414 54.42045,1.02728 124.66666,-1.17466 198.73038,-6.22942 224.62137,0.62143 310.82458,82.24523 27.16665,25.72347 50.79975,47.79832 59.23924,55.33329 19.26688,17.20191 26.06838,23.19127 33.29878,29.32253 4.0172,3.40657 13.904,11.83476 21.9707,18.7293 24.3308,20.79541 54.9185,46.62825 64.4,54.38895 51.1232,41.84481 73.2099,77.21824 81.1838,130.02131 2.9518,19.54697 3.3579,181.11983 0.5747,228.66665 -3.6047,61.58054 -5.5707,88.91013 -11.4619,159.33332 -2.6719,31.93908 -5.7248,73.63676 -7.3703,100.66666 -5.4194,89.0225 -17.8983,120.9557 -54.6523,139.8544 -31.5959,16.2465 -44.9515,17.4139 -199.79176,17.4638 -62.36262,0.02 -114.17311,0.3005 -115.13441,0.6231 -2.913,0.9775 -467.5727,1.6115 -499.08112,0.6809 z m 530.66664,-116.975 c 50.22582,-1.5231 57.40087,-7.2291 52.66625,-41.8829 -0.73372,-5.3704 -1.94617,-31.06429 -2.69432,-57.09763 -3.42429,-119.15452 -3.0789,-117.88199 -32.70401,-120.49207 -32.56284,-2.86891 -347.23744,-4.0365 -356.6376,-1.32329 -19.16361,5.53128 -21.39035,19.03329 -21.31745,129.26055 0.0638,96.47934 -2.9114,91.43724 54.68715,92.67794 47.35351,1.0199 260.99465,0.2222 305.99998,-1.1426 z m -496.29686,-0.394 c 17.75107,-4.9295 22.97912,-54.0936 19.7159,-185.40643 -0.15699,-6.31762 0.45825,-14.11762 1.36722,-17.33334 0.97321,-3.44299 1.7568,-15.47146 1.90594,-29.25729 0.7436,-68.7318 50.06905,-112.41065 122.64115,-108.60162 2.93334,0.15396 14.33334,0.70158 25.33334,1.21693 10.99999,0.51534 24.19999,1.24192 29.33333,1.6146 5.13333,0.37268 83.43333,1.21353 173.99999,1.86854 162.84894,1.17779 170.94364,1.43037 193.99998,6.05336 29.99608,6.01446 55.87975,22.59161 76.5525,49.02791 14.79454,18.91926 16.10782,24.7389 16.13735,71.51095 0.0425,67.24421 4.04451,166.20249 7.49741,185.38649 4.1521,23.0687 30.2857,30.2601 42.6631,11.7401 5.6047,-8.3863 6.8909,-16.6889 9.2337,-59.6078 1.0648,-19.50607 2.248,-38.16559 2.6294,-41.46559 0.8942,-7.73647 6.8974,-75.13735 9.3819,-105.33333 3.0865,-37.51359 4.4271,-54.01953 6.1726,-75.99999 2.8303,-35.64166 2.1832,-222.5334 -0.8046,-232.36856 -3.4419,-11.32982 -11.0412,-20.76847 -27.4542,-34.09902 -16.1762,-13.13817 -24.0195,-19.83117 -31.3425,-26.74566 -7.4901,-7.0723 -32.47116,-29.00062 -41.26632,-36.2235 -2.16315,-1.77645 -6.66315,-5.63859 -10,-8.58253 -3.33685,-2.94394 -10.567,-9.23246 -16.067,-13.97448 -5.5,-4.74202 -10.3,-8.93334 -10.66667,-9.31404 -0.36667,-0.38071 -4.86667,-4.2835 -10,-8.67288 -5.13333,-4.38938 -9.63333,-8.29824 -10,-8.68637 -0.57234,-0.60583 -43.28339,-39.59239 -47.47266,-43.33294 -19.45784,-17.3737 -27.33011,-24.71621 -37.86067,-35.31289 -29.82075,-30.00796 -34.61568,-32.46375 -63.33333,-32.43707 -34.55455,0.0321 -37.55604,4.57306 -38.17182,57.74996 -0.36943,31.90338 -0.71795,35.34325 -6.0115,59.33333 -11.72759,53.1487 -41.12665,80.2825 -95.33284,87.98721 -16.6014,2.35968 -123.79888,2.84045 -143.15049,0.64202 -64.67709,-7.3476 -94.06539,-29.14415 -112.30791,-83.2959 -7.88523,-23.40678 -8.24306,-26.24775 -8.649,-68.66666 -0.54944,-57.41439 -2.44931,-59.94697 -48.03612,-64.03385 -31.76963,-2.84815 -40.15973,1.88407 -43.79329,24.70052 -2.37961,14.94245 -2.30974,732.88882 0.0726,745.99992 2.62207,14.4305 8.43096,21.7381 19.3804,24.3805 5.24158,1.2649 38.76157,0.9116 43.70311,-0.4606 z m 260.3824,-695.20296 c 13.97213,-5.83793 15.91447,-11.05148 15.91447,-42.71686 0,-39.33318 -6.19573,-46.03518 -40.60584,-43.92385 -5.53345,0.33952 -23.32494,0.82709 -39.53665,1.0835 -46.19391,0.7306 -49.82107,3.90345 -49.84447,43.60126 -0.0253,42.95428 4.16247,45.42767 75.42402,44.54675 27.23473,-0.33666 34.40373,-0.81724 38.64847,-2.5908 z"
         id="path2" />
    </g>
  </g>
</svg>
