<?xml version="1.0" encoding="UTF-8" standalone="no"?>
<!-- Created with Inkscape (http://www.inkscape.org/) -->

<svg
   version="1.1"
   id="svg1"
   width="1333.3333"
   height="1333.3333"
   viewBox="0 0 1333.3333 1333.3333"
   sodipodi:docname="send-unfilled.svg"
   inkscape:version="1.3 (0e150ed6c4, 2023-07-21)"
   xmlns:inkscape="http://www.inkscape.org/namespaces/inkscape"
   xmlns:sodipodi="http://sodipodi.sourceforge.net/DTD/sodipodi-0.dtd"
   xmlns="http://www.w3.org/2000/svg"
   xmlns:svg="http://www.w3.org/2000/svg">
  <defs
     id="defs1" />
  <sodipodi:namedview
     id="namedview1"
     pagecolor="#ffffff"
     bordercolor="#000000"
     borderopacity="0.25"
     inkscape:showpageshadow="2"
     inkscape:pageopacity="0.0"
     inkscape:pagecheckerboard="0"
     inkscape:deskcolor="#d1d1d1"
     showgrid="false"
     inkscape:zoom="0.89325005"
     inkscape:cx="666.10688"
     inkscape:cy="667.78614"
     inkscape:window-width="2560"
     inkscape:window-height="1369"
     inkscape:window-x="1912"
     inkscape:window-y="-8"
     inkscape:window-maximized="1"
     inkscape:current-layer="g2" />
  <g
     inkscape:groupmode="layer"
     inkscape:label="Image"
     id="g1">
    <g
       id="g2">
      <path
         style="fill:#c9f1f6"
         d="m 539.04802,1163.3989 c -13.37154,-4.1789 -39.02899,-26.3037 -40.80572,-35.1873 -5.04242,-25.2121 -35.27577,-31.3897 -131.57566,-26.8852 -55.13125,2.5789 -62.32244,2.8295 -96.50399,3.3631 -78.61332,1.2273 -96.11745,-4.404 -111.5037,-35.8725 -6.98976,-14.2957 -13.13373,-41.0722 -13.25548,-57.7698 -0.19957,-27.3684 16.01088,-72.92059 43.07652,-121.04725 19.26862,-34.26243 81.42071,-155.13716 90.15393,-175.33333 2.37831,-5.5 5.13317,-11.8 6.12193,-14 0.98875,-2.2 3.8509,-9.1 6.36033,-15.33333 2.50944,-6.23333 6.77232,-16.43333 9.47309,-22.66666 2.70076,-6.23334 6.33599,-14.63334 8.07829,-18.66667 14.82166,-34.31135 14.63281,-39.87628 -1.87565,-55.26892 -28.38815,-26.46938 -27.10382,-25.07529 -76.59484,-83.14063 -3.55827,-4.17474 -7.76303,-9.09044 -9.34391,-10.92377 -1.58089,-1.83334 -8.84615,-10.83334 -16.14504,-20 -7.29889,-9.16667 -16.13783,-19.55953 -19.64209,-23.09525 -5.52418,-5.57377 -12.63897,-15.56285 -35.78245,-50.23808 -6.78165,-10.16076 -23.99819,-38.87946 -30.16467,-50.31731 -2.8154,-5.22214 -8.89151,-16.13151 -13.50246,-24.24304 -52.480822,-92.32364 -25.146103,-164.04252 53.66772,-140.80952 15.65741,4.61554 35.93622,13.31467 63.99648,27.45295 8.09563,4.07902 19.51934,9.83665 25.386,12.79474 17.94693,9.04917 50.47444,24.52301 64,30.44578 2.2,0.96337 7.6,3.37989 12,5.37005 9.00124,4.07136 19.56997,8.50304 33.33333,13.97734 5.13333,2.04176 14.43333,5.92548 20.66666,8.6305 6.23334,2.70501 14.03334,5.81654 17.33334,6.91449 3.3,1.09796 7.2,2.50861 8.66666,3.13479 1.46667,0.62617 11.66667,4.25047 22.66667,8.054 21.61599,7.47427 30.08932,10.46611 50.66666,17.88984 7.33333,2.64566 15.13333,5.32336 17.33333,5.95045 2.2,0.62708 6.7,2.10967 10,3.29463 3.3,1.18496 18.6,6.28234 34,11.32752 15.4,5.04517 36.4,11.92424 46.66666,15.28683 33.90717,11.10544 146.46714,48.82705 157.33333,52.72628 5.86666,2.10519 16.96666,5.7611 24.66666,8.12425 7.7,2.36314 16.1,5.05676 18.66667,5.98581 2.56667,0.92905 17.26666,5.71382 32.66666,10.63283 53.96965,17.23876 87.01049,28.47329 135.33333,46.01594 8.43333,3.06155 20.13333,7.26184 26,9.33396 33.81429,11.94332 60.74779,21.67474 65.99999,23.84664 6.2629,2.58987 16.0034,5.57548 37.3333,11.44327 20.455,5.62708 25.3775,7.01723 37.3334,10.54304 6.2333,1.83824 22.1333,6.3891 35.3333,10.11304 67.3801,19.00902 86.6799,29.6573 98.3261,54.2495 11.2713,23.80051 0.2841,54.32099 -25.8612,71.83767 -11.3468,7.60207 -20.79,16.0988 -45.8078,41.21639 -36.8761,37.02322 -48.8585,47.54936 -86.6571,76.1255 -9.5333,7.2073 -26.5723,20.35239 -37.8643,29.21133 -41.126,32.26455 -46.4115,36.34936 -62.13569,48.02107 -21.18931,15.72831 -25.12592,18.68523 -63.33333,47.57165 -29.18063,22.06179 -48.26235,35.96331 -66.66667,48.56837 -3.3,2.26015 -16.5,11.49236 -29.33333,20.51601 -12.83333,9.02365 -53.5394,36.5869 -90.45794,61.2517 -69.91346,46.7082 -79.86707,53.474 -89.10896,60.5704 -68.65336,52.7157 -95.75176,66.1845 -118.71836,59.0069 z m 44.29203,-115.8107 c 8.43317,-5.5575 27.55042,-19.1468 43.32658,-30.7983 6.37931,-4.7114 40.55951,-28.09477 45.98119,-31.45663 4.447,-2.75748 95.02225,-63.6424 107.35213,-72.16238 5.5,-3.80052 18.1,-12.61605 28,-19.59007 9.9,-6.97402 21.9,-15.39668 26.66667,-18.71702 20.83278,-14.51162 53.36888,-38.94501 79.59588,-59.77353 10.41106,-8.26809 22.17848,-17.11141 26.1498,-19.65184 17.53999,-11.2202 40.30402,-31.84943 41.82279,-37.90068 2.11616,-8.43146 -11.64134,-5.96532 -48.90181,8.76605 -21.38293,8.45399 -45.87919,16.99343 -94.66666,33.00097 -23.1,7.57929 -45,14.78687 -48.66667,16.01686 -3.66666,1.22999 -9.96666,3.11517 -14,4.18929 -4.03333,1.07412 -8.53333,2.51098 -10,3.19301 -2.97418,1.38306 -44.40535,15.51815 -50.66666,17.28596 -2.2,0.62114 -7.6,2.66327 -12,4.53806 -4.4,1.87479 -8.9165,3.42294 -10.03666,3.44035 -1.12016,0.0174 -3.22016,0.82484 -4.66666,1.79429 -1.44651,0.96945 -4.73001,2.55946 -7.29668,3.53334 -2.56666,0.97389 -6.46666,2.55712 -8.66666,3.51829 -20.35554,8.89327 -50.12978,17.98804 -86.66667,26.47299 -14.66666,3.40604 -32.36666,7.62006 -39.33333,9.36449 -6.96666,1.74443 -19.14606,4.41122 -27.06533,5.92618 -38.63435,7.39081 -37.35207,14.98419 21.40502,126.75542 17.05722,32.4472 22.51427,35.316 42.33373,22.2549 z M 387.33331,1006.693 c 41.63799,-2.375 44.01932,-4.8364 32.69434,-33.79354 -10.68254,-27.31447 -18.0087,-28.96822 -45.36101,-10.23944 -1.83333,1.25532 -9.93333,5.60806 -18,9.67276 -8.06666,4.06469 -18.4743,9.55263 -23.12808,12.19542 -4.65378,2.64279 -8.79199,4.80507 -9.19601,4.80507 -2.1358,0 -12.34257,9.86229 -12.34257,11.92603 0,8.1856 11.96227,9.0484 75.33333,5.4337 z M 319.22577,887.82935 c 8.85915,-4.54573 17.90754,-9.29601 20.10754,-10.55619 9.12099,-5.22455 18.97181,-11.46066 22.5466,-14.27321 2.09716,-1.65 4.60447,-3 5.5718,-3 0.96733,0 7.33641,-1.85048 14.15352,-4.11218 6.81711,-2.2617 13.34028,-4.2117 14.49594,-4.33333 1.15566,-0.12164 8.05566,-3.12756 15.33333,-6.67982 22.75504,-11.10682 26.19261,-12.59229 40.56547,-17.52939 7.7,-2.64497 21.64205,-8.09164 30.98234,-12.10372 17.11449,-7.35146 26.61627,-9.83107 58.97748,-15.39094 8.8221,-1.5157 19.34018,-3.9537 23.37351,-5.41779 4.03333,-1.46409 15.43333,-4.67766 25.33333,-7.14126 16.8189,-4.18537 31.4897,-8.84044 47.33333,-15.01895 3.66667,-1.42989 16.56667,-6.4956 28.66667,-11.25713 12.1,-4.76154 29.49999,-11.13783 38.66666,-14.16955 9.16667,-3.03171 18.46667,-6.14425 20.66667,-6.91675 2.2,-0.77249 11.49999,-3.80558 20.66666,-6.7402 9.16667,-2.93462 19.66667,-6.43192 23.33333,-7.77177 6.89536,-2.51967 18.13864,-6.28339 32,-10.7121 13.15297,-4.20237 20.92375,-6.96004 28.66667,-10.17312 4.03333,-1.67371 10.07121,-3.65553 13.41752,-4.40403 3.3463,-0.74851 7.8463,-2.27981 10,-3.40289 2.15369,-1.12309 5.11581,-2.05153 6.58247,-2.06322 1.46667,-0.0117 5.91968,-1.5355 9.89558,-3.38626 3.9759,-1.85076 9.3759,-3.88782 12,-4.5268 6.72452,-1.63744 26.50727,-9.80757 50.42801,-20.8264 15.26668,-7.03244 20.22062,-13.98692 13.22742,-18.56904 -6.05778,-3.96921 -30.5927,-4.60851 -185.80001,-4.84132 -85.66304,-0.1285 -174.05098,-0.59627 -196.41764,-1.0395 -44.42117,-0.88026 -129.60098,0.51828 -145.02524,2.38113 -15.77381,1.90507 -20.83456,6.93623 -30.32361,30.14634 -2.69829,6.6 -11.06307,24.3 -18.5884,39.33333 -7.52532,15.03333 -17.72155,36.93333 -22.65828,48.66666 -4.93673,11.73334 -19.985,43.53333 -33.44061,70.66667 -34.64437,69.86066 -34.11889,75.36949 5.26194,55.16273 z M 636.66663,550.0128 c 194.90859,-1.57565 196.61078,-1.69136 186.6583,-12.68873 -5.71878,-6.31917 -19.53438,-11.6609 -79.32498,-30.67054 -15.76666,-5.01281 -39.14536,-12.78252 -51.95265,-17.26602 -12.8073,-4.4835 -68.3073,-23.19587 -123.33333,-41.58305 -125.74443,-42.01802 -193.29103,-65.8226 -230.04732,-81.0726 -54.13057,-22.4585 -71.22134,-29.9011 -96.66666,-42.09593 -45.37883,-21.74807 -51.21351,-14.1074 -21.29673,27.88861 6.2132,8.72185 11.29673,16.61508 11.29673,17.54052 0,0.92544 2.17983,4.28938 4.84406,7.47543 2.66424,3.18605 5.49454,7.29282 6.28955,9.12615 0.79502,1.83334 3.31078,5.73334 5.5906,8.66667 2.27981,2.93333 5.46535,7.64447 7.07897,10.46919 2.98337,5.22253 11.91585,16.50163 16.99762,21.46301 1.54045,1.50396 8.74045,9.92931 16,18.72301 7.25956,8.79369 23.39919,26.2908 35.86586,38.88245 12.46666,12.59165 25.66666,26.33367 29.33333,30.53782 10.34344,11.85964 24.3414,24.86791 27.30736,25.37665 0.38095,0.0653 3.69264,1.5104 7.3593,3.21123 7.83649,3.63506 23.79389,5.03804 61.33333,5.39243 13.2,0.12461 29.4,0.69853 36,1.27538 6.6,0.57684 26.1,0.80443 43.33333,0.50575 17.23333,-0.29867 65.53333,-0.81952 107.33333,-1.15743 z"
         id="path2" />
    </g>
  </g>
</svg>
