<?xml version="1.0" encoding="UTF-8" standalone="no"?>
<!-- Created with Inkscape (http://www.inkscape.org/) -->

<svg
   version="1.1"
   id="svg1"
   width="1333.3333"
   height="1333.3333"
   viewBox="0 0 1333.3333 1333.3333"
   sodipodi:docname="tick.svg"
   inkscape:version="1.3 (0e150ed6c4, 2023-07-21)"
   xmlns:inkscape="http://www.inkscape.org/namespaces/inkscape"
   xmlns:sodipodi="http://sodipodi.sourceforge.net/DTD/sodipodi-0.dtd"
   xmlns="http://www.w3.org/2000/svg"
   xmlns:svg="http://www.w3.org/2000/svg">
  <defs
     id="defs1" />
  <sodipodi:namedview
     id="namedview1"
     pagecolor="#ffffff"
     bordercolor="#000000"
     borderopacity="0.25"
     inkscape:showpageshadow="2"
     inkscape:pageopacity="0.0"
     inkscape:pagecheckerboard="0"
     inkscape:deskcolor="#d1d1d1"
     showgrid="false"
     inkscape:zoom="0.89325005"
     inkscape:cx="666.10687"
     inkscape:cy="666.66663"
     inkscape:window-width="2560"
     inkscape:window-height="1369"
     inkscape:window-x="1912"
     inkscape:window-y="-8"
     inkscape:window-maximized="1"
     inkscape:current-layer="g1" />
  <g
     inkscape:groupmode="layer"
     inkscape:label="Image"
     id="g1">
    <path
       style="fill:#b7c891"
       d="m 369.87406,1071.565 c -17.8761,-5.9475 -35.59703,-21.2673 -44.27364,-38.2746 -2.41977,-4.7431 -6.31977,-11.4809 -8.66667,-14.973 -2.34691,-3.4921 -7.5671,-11.7456 -11.60044,-18.34122 -12.94275,-21.16495 -23.55479,-37.86887 -41.83442,-65.84961 -8.73525,-13.37111 -12.71998,-19.36137 -26.34124,-39.59888 -2.66329,-3.95693 -8.82132,-13.31396 -13.68451,-20.79341 -4.86319,-7.47946 -9.38549,-13.9348 -10.04954,-14.34521 -0.66406,-0.41041 -3.43768,-4.79085 -6.1636,-9.73432 -2.72593,-4.94348 -6.03798,-10.18813 -7.36013,-11.6548 -1.32215,-1.46667 -4.74127,-6.86667 -7.59805,-12 -6.30142,-11.32299 -12.83898,-22.17326 -17.67407,-29.33333 -34.29719,-50.78922 -35.49111,-100.11336 -3.21979,-133.01853 36.89883,-37.62357 92.98477,-26.84352 117.35602,22.55651 11.26717,22.83833 31.54766,56.22436 56.16645,92.46202 2.24192,3.3 8.79972,13.09585 14.57289,21.76855 5.77316,8.6727 13.19666,19.81562 16.49666,24.76204 3.3,4.94643 7.62706,11.07714 9.61569,13.62381 1.98863,2.54667 4.38863,6.40375 5.33333,8.57129 1.97028,4.52062 15.44279,24.60764 16.50454,24.60764 1.91465,0 31.2977,-24.55375 46.80617,-39.11326 20.38122,-19.1341 39.5097,-36.45272 57.74026,-52.2771 9.22738,-8.00949 20.13761,-17.70517 35.40719,-31.46555 5.17395,-4.66258 14.42288,-12.67742 20.55317,-17.81075 6.13029,-5.13333 17.79705,-15.34657 25.92614,-22.69609 8.12909,-7.34952 17.4696,-15.44952 20.75668,-18 3.28709,-2.55048 6.9529,-5.53724 8.14625,-6.63724 1.19335,-1.1 7.72597,-6.8 14.51694,-12.66667 6.79097,-5.86666 15.76748,-13.66666 19.94779,-17.33333 4.18032,-3.66667 11.42794,-9.96667 16.10581,-14 9.39733,-8.10251 25.37135,-22.57149 34.64002,-31.3763 3.3,-3.13485 9.38319,-8.30762 13.51819,-11.49505 15.92073,-12.2723 55.42235,-46.72166 95.32012,-83.12864 12.0547,-11 24.74755,-22.29723 28.20633,-25.10496 3.45877,-2.80773 8.40953,-7.00773 11.00168,-9.33333 2.59215,-2.32561 7.84215,-6.60167 11.66667,-9.50236 3.82451,-2.90069 6.95366,-5.67531 6.95366,-6.16582 0,-0.49051 4.2,-4.08484 9.33334,-7.98741 5.13333,-3.90256 9.33333,-7.49544 9.33333,-7.98418 0,-0.48874 4.05,-3.92407 9,-7.63407 4.95,-3.71 13.97575,-11.44249 20.05722,-17.18332 6.08147,-5.74084 16.49972,-15.23788 23.15168,-21.10454 6.65195,-5.86667 19.18289,-16.96667 27.84652,-24.66667 8.66364,-7.7 20.98527,-18.5 27.3814,-24 6.3961,-5.5 14.0895,-12.46553 17.0963,-15.47897 3.0068,-3.01343 8.4669,-7.47535 12.1335,-9.91538 3.6667,-2.44003 9.7999,-6.87449 13.6293,-9.85436 3.8294,-2.97988 10.1897,-7.69648 14.1339,-10.48136 3.9442,-2.78487 11.2656,-8.94203 16.2698,-13.68258 73.0905,-69.2395 172.1108,47.17993 101.5662,119.41265 -15.648,16.0225 -25.849,25.33352 -30.9633,28.26188 -7.5414,4.31815 -34.3841,24.63552 -44.8394,33.93918 -4.8203,4.28941 -12.5724,11.09893 -17.2267,15.13227 -4.6543,4.03333 -12.4537,10.93333 -17.3319,15.33333 -4.8782,4.4 -12.3851,11 -16.6819,14.66666 -4.2969,3.66667 -16.6128,14.76667 -27.3687,24.66667 -10.7559,9.9 -23.62062,21.3 -28.58821,25.33333 -4.9676,4.03333 -12.4606,10.33333 -16.65113,14 -16.21582,14.18869 -23.34202,20.2527 -31.78133,27.0442 -4.81433,3.87431 -14.43973,12.27431 -21.38977,18.66667 -6.95004,6.39235 -15.96803,14.68359 -20.03996,18.42497 -4.07194,3.74138 -8.8553,7.94138 -10.62971,9.33333 -1.7744,1.39196 -10.25747,8.83083 -18.85127,16.53083 -8.59379,7.7 -20.26513,17.89999 -25.93629,22.66666 -5.67117,4.76667 -13.6881,11.71587 -17.8154,15.44267 -4.1273,3.7268 -8.77969,7.63111 -10.33864,8.67625 -3.51886,2.35908 -13.41706,10.92386 -34.53316,29.88108 -8.9853,8.06666 -21.57439,19.16666 -27.97574,24.66666 -19.21797,16.51196 -27.67528,23.98149 -33.98997,30.02007 -3.3,3.15571 -9.17528,8.11058 -13.05617,11.01083 -3.8809,2.90025 -12.9615,10.60477 -20.17911,17.12114 -7.21761,6.51638 -18.06621,16.04796 -24.108,21.18129 -16.70876,14.19639 -25.19191,21.59835 -34.18836,29.83103 -14.69727,13.44951 -26.37628,23.87433 -31.13502,27.79146 -6.57866,5.4152 -11.57103,9.88727 -41.35398,37.04417 -24.99574,22.79178 -35.37039,31.89027 -56.56045,49.6031 -17.27469,14.43996 -36.05485,31.60646 -46.04929,42.09246 -26.78829,28.106 -58.46095,39.0858 -86.16218,29.8695 z"
       id="path1" />
  </g>
</svg>
