<?xml version="1.0" encoding="UTF-8" standalone="no"?>
<!-- Created with Inkscape (http://www.inkscape.org/) -->

<svg
   version="1.1"
   id="svg1"
   width="1333.3333"
   height="1333.3333"
   viewBox="0 0 1333.3333 1333.3333"
   sodipodi:docname="font.svg"
   inkscape:version="1.3 (0e150ed6c4, 2023-07-21)"
   xmlns:inkscape="http://www.inkscape.org/namespaces/inkscape"
   xmlns:sodipodi="http://sodipodi.sourceforge.net/DTD/sodipodi-0.dtd"
   xmlns="http://www.w3.org/2000/svg"
   xmlns:svg="http://www.w3.org/2000/svg">
  <defs
     id="defs1" />
  <sodipodi:namedview
     id="namedview1"
     pagecolor="#ffffff"
     bordercolor="#000000"
     borderopacity="0.25"
     inkscape:showpageshadow="2"
     inkscape:pageopacity="0.0"
     inkscape:pagecheckerboard="0"
     inkscape:deskcolor="#d1d1d1"
     inkscape:zoom="0.63162317"
     inkscape:cx="514.5473"
     inkscape:cy="531.17114"
     inkscape:window-width="2560"
     inkscape:window-height="1369"
     inkscape:window-x="1912"
     inkscape:window-y="-8"
     inkscape:window-maximized="1"
     inkscape:current-layer="g10" />
  <g
     inkscape:groupmode="layer"
     inkscape:label="Image"
     id="g1">
    <g
       id="g10">
      <path
         id="path1"
         style="fill:#c9f1f6"
         d="M 897.22461 638.60938 C 872.1342 638.02901 846.93033 662.18738 833.97656 708.66602 C 831.31959 718.19935 827.68538 730.79936 825.90039 736.66602 C 824.11541 742.53268 822.66097 748.23399 822.66797 749.33398 C 822.67503 750.43398 820.9427 757.03335 818.81836 764 C 813.52005 781.37559 809.25398 796.59633 807.23242 805.33398 C 806.29926 809.36732 804.28975 815.82377 802.76758 819.68164 C 801.24542 823.5395 800 828.20875 800 830.05859 C 800 831.90843 798.58099 836.25199 796.84766 839.71094 C 795.11432 843.16988 793.287 848.25 792.78711 851 C 792.07043 854.94263 791.25739 856.02252 788.93945 856.10352 C 787.32268 856.16012 776.10069 856.18837 764.00195 856.16797 C 723.08011 856.09891 707.6292 859.43745 693.4668 871.4082 C 679.239 883.43423 671.73324 909.3564 677.18359 927.64844 C 677.96911 930.28475 677.98892 932.26023 677.23438 932.72656 C 673.04516 935.31564 680.82906 949.4639 691.05078 957.83984 C 701.53004 966.42681 708.19363 968.64742 724 968.81836 C 731.69999 968.90162 742.0232 969.05032 746.93945 969.15039 L 755.87695 969.33398 L 752.61914 976.33398 C 750.8267 980.18398 749.3527 984.32012 749.3457 985.52734 C 749.33854 986.73456 747.26315 992.13457 744.73242 997.52734 C 734.31431 1019.7275 733.37031 1060.3639 742.83984 1079.041 C 765.25377 1123.2489 824.0746 1109.1614 834.53906 1057.0781 C 836.73227 1046.1622 839.92373 1035.7505 843.20312 1028.8184 C 845.01348 1024.9917 847.21764 1018.8919 848.09961 1015.2637 C 848.98159 1011.6356 851.0859 1005.6667 852.77734 1002 C 854.46878 998.33337 856.56016 992.33267 857.42383 988.66602 C 858.2875 984.99935 859.98619 979.13351 861.19922 975.62891 L 863.4043 969.25586 L 898.03516 968.62305 C 929.31134 968.05219 954.75253 966.59648 970.33398 964.48633 C 973.74927 964.02381 976 964.25134 976 965.05859 C 976 965.79526 978.09935 969.51994 980.66602 973.33398 C 983.23267 977.14803 985.33398 981.12466 985.33398 982.17188 C 985.33398 984.91115 992.73016 999.17196 995.22461 1001.2422 C 996.38445 1002.2048 997.33398 1003.7403 997.33398 1004.6543 C 997.33398 1005.5684 1005.9339 1023.4473 1016.4453 1044.3848 C 1036.2529 1083.8396 1039.1508 1090.4095 1040.6543 1099.25 C 1042.9236 1112.5926 1055.1641 1129.0346 1068 1135.9824 C 1076.73 1140.7077 1077.8725 1140.8698 1076.9258 1137.25 C 1076.2777 1134.7716 1076.6232 1134.592 1080.4355 1135.4316 C 1109.9575 1141.9333 1135.5407 1118.8509 1137.0762 1084.3262 C 1137.4841 1075.1549 1138.1182 1071.0338 1138.9414 1072.2129 C 1142.6583 1077.5371 1133.6342 1045.4594 1128.9414 1036.666 C 1126.9846 1032.9993 1122.3918 1023.9993 1118.7344 1016.666 C 1115.0771 1009.3327 1111.5151 1002.434 1110.8184 1001.334 C 1110.1218 1000.234 1107.3936 994.83398 1104.7559 989.33398 C 1102.1183 983.83399 1099.1578 977.83333 1098.1777 976 C 1083.5506 948.64082 1078.0315 951.72068 1142.2754 951.39648 C 1196.6659 951.122 1196.6657 951.12035 1205.2051 947.57812 C 1258.534 925.45675 1250.0963 853.8456 1192.666 841.16016 C 1182.3293 838.87691 1086.4847 838.93267 1058.666 841.23828 C 1048.0327 842.11957 1037.5636 842.95256 1035.4004 843.08789 C 1031.4725 843.33364 1027.1084 837.88576 1021.1777 825.33398 C 1020.3114 823.50066 1017.9275 818.4 1015.8809 814 C 1013.8343 809.6 1011.2471 804.49934 1010.1309 802.66602 C 1009.0147 800.83268 1006.9821 796.93333 1005.6133 794 C 1001.7447 785.70972 986.54156 757.05107 984.04102 753.33398 C 982.80771 751.50065 980.97637 747.90064 979.9707 745.33398 C 978.96503 742.76732 975.8156 736.83473 972.97266 732.15039 C 970.12971 727.46606 966.37028 720.56539 964.61914 716.81641 C 962.86801 713.06741 960.22532 707.90065 958.74609 705.33398 C 957.26688 702.76732 953.21662 694.06665 949.74609 686 C 936.18429 654.47782 916.73937 639.06077 897.22461 638.60938 z M 907.25977 831.99805 C 908.41 831.44493 909.49623 832.61568 910.41211 835.66602 C 911.23781 838.41601 914.0013 843.96667 916.55273 848 C 921.13568 855.24476 921.15555 855.34455 918.26172 856.20117 C 915.03492 857.15636 913.28272 857.18977 907.33398 856.41016 C 900.30316 855.48874 900.21568 855.36957 901.47266 848.43359 C 903.24874 838.6332 905.34271 832.9199 907.25977 831.99805 z " />
      <path
         id="path1-5"
         style="fill:#c9f1f6"
         d="m 516.74219,688.64844 c -8.21815,0.15611 -17.32939,0.87436 -27.40821,2.07226 -5.49999,0.65369 -16.3,1.50244 -24,1.88672 -7.69998,0.38428 -19.10065,1.27543 -25.33398,1.97852 -48.6309,5.48537 -50.46914,5.57926 -118,6.02929 -81.01053,0.53986 -84.38476,1.02902 -98.86133,14.37305 -21.7525,20.05075 -26.39471,125.28884 -6.83594,154.96875 30.47126,46.23934 66.25367,21.55596 65.65821,-45.29101 -0.15024,-16.86666 0.0143,-32.61668 0.36523,-35 0.63801,-4.33335 0.63738,-4.33253 50.82227,-4.39063 47.88565,-0.0555 62.6803,-0.70351 88.18554,-3.86328 6.23333,-0.77223 25.43271,-2.2997 42.66602,-3.39453 17.23331,-1.09483 33.97583,-2.34741 37.20508,-2.7832 5.87136,-0.79237 5.87054,-0.79172 4.97851,11.89843 -0.49062,6.97959 -1.21068,29.67978 -1.59961,50.44531 -0.38892,20.76554 -0.95298,38.95521 -1.2539,40.42188 -0.52477,2.55775 -1.70537,2.67625 -28.9375,2.88281 -214.588,1.62768 -193.44816,0.24388 -205.04102,13.41407 -11.16844,12.688 -11.29696,13.55399 -11.31836,77.0371 -0.0251,74.53212 2.29171,98.16002 11.33203,115.57812 3.93401,7.5797 8.22203,11.4925 13.02305,15.8739 9.08857,8.2941 23.91212,13.8461 42.27774,15.9249 13.77839,1.5597 164.92045,0.5697 175.33398,-1.1484 12.89709,-2.1279 25.16135,-2.7841 78,-4.1758 52.43111,-1.381 59.80194,-2.3457 71.91016,-9.4121 39.70042,-23.1694 25.55957,-77.2538 -19.90039,-76.1133 -4.40522,0.1106 -18.20914,0.2886 -30.67579,0.3965 l -22.66796,0.1953 0.10351,-12.5586 c 0.10418,-12.5975 1.40437,-72.40755 2.57617,-118.56052 1.72814,-68.06523 2.16833,-80.99182 3.45508,-101.33398 5.18755,-82.00943 -8.53159,-108.44437 -66.05859,-107.35156 z m -15.74024,277.12304 -0.55273,32.11329 c -0.60177,34.88313 -0.74538,36.13303 -3.97266,34.89453 -1.19165,-0.4573 -5.83482,-0.1534 -10.32031,0.6758 -7.35086,1.3589 -131.28552,2.6194 -144.96875,1.4746 -5.60866,-0.4692 -5.79465,-1.5687 -7.39844,-43.9297 -0.87078,-22.99996 -0.87073,-22.99981 3.66992,-23.06641 2.49737,-0.0366 18.94104,-0.35156 36.54102,-0.69921 17.59998,-0.34765 53.37635,-0.81812 79.50195,-1.04688 z"
         sodipodi:nodetypes="sssssssssssssssssssscssssscccsssccsssssssc" />
      <path
         id="path1-5-0"
         style="fill:#c9f1f6"
         d="m 870.23633,220.67969 c -12.71538,0.22867 -25.04224,4.60094 -35.97719,10.89832 -14.59585,8.38675 -27.04715,20.06727 -37.76471,32.95815 -17.46352,21.23333 -30.3524,46.0016 -39.07576,72.01338 -4.63868,13.92536 -8.70629,28.04299 -12.2011,42.29868 -4.76717,19.67139 -8.28494,39.71858 -9.22469,59.96284 -0.75572,16.81439 0.40577,33.898 5.31318,50.07129 4.08077,13.36497 11.04833,26.01056 21.08233,35.82989 7.00019,6.90615 15.33171,12.38249 24.26229,16.45978 6.68323,3.30497 13.59483,6.37803 20.986,7.67282 5.61198,1.1414 11.25035,2.19868 16.9384,2.87805 12.38344,1.16755 24.8647,-0.83076 36.74971,-4.27336 14.85577,-4.35312 29.05009,-11.20968 41.35226,-20.64683 3.99729,-3.14778 7.73575,-6.60759 11.78593,-9.69163 3.19306,-2.52507 6.13295,-5.35402 8.83903,-8.39327 5.26344,-5.68588 10.19448,-11.74562 14.09057,-18.46194 3.55513,7.25268 7.16278,14.54795 11.95133,21.08279 1.63542,2.24658 3.90278,3.87777 6.08187,5.55002 5.88657,4.65782 11.66051,9.55021 18.28563,13.15045 10.87984,6.18601 22.92377,10.45197 35.36739,11.98183 7.6853,0.88833 15.5518,0.24147 22.9545,-2.02886 9.0745,-2.69507 17.5975,-7.95348 23.1979,-15.69409 5.1889,-7.13623 7.6627,-16.41077 5.8606,-25.13003 -1.667,-8.29503 -7.1706,-15.66998 -14.553,-19.77183 -7.5597,-4.35464 -16.5132,-5.68529 -25.1298,-5.17887 -4.833,0.19664 -9.8549,0.71984 -14.5101,-0.92473 -3.6196,-1.23217 -6.0547,-4.42731 -7.91706,-7.60236 -4.24711,-7.48882 -6.96482,-15.71244 -9.53732,-23.89224 -2.42514,-7.84442 -4.47211,-15.68944 -6.27786,-23.7097 -2.65318,-11.87863 -4.90342,-23.97557 -6.07453,-36.14797 -0.42938,-4.59711 -0.6377,-9.47441 -1.22455,-14.18272 -1.4912,-12.50917 -4.40949,-25.02892 -10.28164,-36.25364 -3.48113,-6.53084 -8.15259,-12.67408 -14.50524,-16.63299 -5.16164,-3.17742 -11.63815,-4.54408 -17.53578,-2.80647 -6.23811,1.76101 -11.32961,6.37279 -14.69668,11.79994 -4.88262,7.67629 -7.14605,16.67081 -8.48068,25.57792 -1.26268,8.70318 -1.25495,17.51706 -1.2201,26.29124 -0.0252,5.74981 -0.44729,11.53583 -1.91716,17.11421 -0.92697,3.82536 -2.17639,7.64251 -3.37853,11.45719 -4.30049,13.28518 -8.96798,26.55341 -15.77365,38.79466 -0.28395,0.48578 -0.72932,1.27293 -1.07516,1.87427 -4.2043,7.34221 -9.52665,14.10711 -15.30179,20.19214 -1.49067,1.58791 -3.05574,3.10409 -4.66406,4.57226 -0.3271,0.29053 -0.93014,0.83075 -1.3714,1.2093 -0.46694,0.3906 -0.98747,0.84491 -1.35248,1.13904 -5.97192,4.91813 -12.9599,8.81059 -20.61056,10.29697 -7.69112,1.59671 -15.65889,1.00688 -23.30689,-0.5391 -4.54707,-0.91174 -9.12039,-2.00961 -13.31546,-4.03433 -2.57926,-1.27041 -4.91558,-3.3053 -5.89603,-6.07712 -1.73494,-4.47766 -1.71967,-9.37291 -1.77167,-14.1049 0.0457,-4.1193 0.20751,-8.15659 0.42182,-12.30696 0.58537,-12.14393 1.81391,-24.52109 4.15877,-36.57711 0.33966,-1.82857 0.70206,-3.51995 1.08878,-5.37104 1.24681,-5.79832 2.73271,-11.52242 4.37426,-17.18012 2.49409,-8.64763 5.45007,-17.15096 8.41232,-25.64611 1.5644,-4.52724 2.96345,-9.10952 4.29185,-13.71034 3.70705,-11.48582 9.28351,-22.3345 16.14053,-32.25135 3.05751,-4.33144 6.57253,-8.31191 10.2056,-12.16406 2.47104,-2.70456 4.84805,-5.51783 7.57127,-7.97354 1.4783,-1.18774 3.39675,-1.58702 5.25354,-1.58248 1.32536,-0.0766 2.65352,-0.0403 3.97919,0.008 0.44657,0.0309 1.25704,0.0616 1.84818,0.1037 4.88733,0.35787 9.84024,0.64041 14.68984,-0.24555 11.68287,-1.86205 22.78679,-8.24256 29.58494,-18.02634 4.65449,-6.68859 7.08713,-15.19179 5.50527,-23.29156 -1.26464,-6.73163 -5.18884,-12.77655 -10.37735,-17.17052 -9.10152,-8.19605 -21.09813,-13.21433 -33.37586,-13.52678 -0.98239,-0.0427 -1.96607,-0.0426 -2.94924,-0.0363 z" />
      <path
         id="path1-5-0-7"
         style="fill:#c9f1f6"
         d="M 389.4707 110.53906 C 360.33792 111.15965 332.15001 121.28838 311.94336 140.77734 C 309.34578 143.28267 306.53699 145.33398 305.70117 145.33398 C 304.86536 145.33398 302.99635 146.98333 301.54688 149 C 300.0974 151.01667 296.08507 155.60237 292.63086 159.18945 C 289.06711 162.89031 284.64668 169.52156 282.41211 174.52148 C 280.24623 179.36771 277.92028 184.23399 277.24414 185.33398 C 270.06318 197.01657 267.7824 201.45032 266.60938 206 C 265.85309 208.93333 263.2057 215.83399 260.72656 221.33398 C 258.24743 226.83398 255.80363 233.36525 255.29688 235.84766 C 254.79012 238.33007 252.90859 243.28106 251.11523 246.85156 C 249.32187 250.42208 246.95962 257.62982 245.86719 262.86914 C 244.77476 268.10847 243.22266 273.62948 242.41602 275.13672 C 240.3722 278.95563 237.36861 290.62985 237.34961 294.83008 C 237.34091 296.75353 236.10481 301.1041 234.60352 304.49805 C 233.10221 307.89198 231.55171 313.81869 231.1582 317.66797 C 230.7647 321.51723 229.30668 327.44611 227.91797 330.84375 C 226.52925 334.2414 225.02958 340.54139 224.58398 344.84375 C 224.13838 349.14611 222.85162 355.06666 221.72656 358 C 215.34195 374.64632 214.28176 530.70252 220.41602 550.89844 C 239.26413 612.95239 307.85011 599.88972 312.63867 533.33398 C 313.08715 527.10066 313.60403 508.07269 313.78711 491.05078 C 314.18932 453.65567 305.52697 458.5165 371.86328 458.4668 C 402.74566 458.44368 435.96093 457.89316 445.67383 457.24414 C 455.38673 456.59512 467.92143 455.82137 473.5293 455.52539 C 480.838 455.13964 485.88694 453.99861 491.35742 451.49414 C 495.55483 449.57249 499.14732 448 499.33984 448 C 500.26547 448 501.5973 455.12114 502.70703 466 C 505.77227 496.04911 506.53536 502.42401 507.8125 508.66602 C 508.56272 512.33267 509.84583 521.03334 510.66406 528 C 514.53628 560.96927 527.84461 583.8677 547.45508 591.30273 C 584.08377 605.18998 613.21125 567.52208 606.71875 514.66602 C 605.86301 507.69935 604.61359 497.20065 603.94141 491.33398 C 603.26923 485.46733 601.7541 473.16666 600.57422 464 C 599.39435 454.83335 597.91887 443.27831 597.29492 438.32227 C 596.14071 429.15427 592.96558 410.06147 590.58984 398 C 589.86762 394.33333 588.71604 386.1631 588.03125 379.84375 C 587.34647 373.5244 585.89136 366.02504 584.79688 363.17773 C 583.70238 360.33043 582.11258 353.20065 581.26367 347.33398 C 580.41475 341.46733 578.95477 335.16732 578.01953 333.33398 C 577.0843 331.50066 575.57471 325.49999 574.66602 320 C 573.75733 314.50001 572.10327 308.21994 570.99023 306.04492 C 569.87721 303.86991 568.09835 297.87121 567.03711 292.71289 C 565.97587 287.55459 564.03061 281.53398 562.71484 279.33398 C 561.39908 277.13399 559.57014 272.93334 558.64844 270 C 552.53061 250.53001 534.84391 210.94417 527.91602 201.21484 C 526.49573 199.22023 525.33398 197.16417 525.33398 196.64648 C 525.33398 190.71056 489.50518 150.37527 472.66602 137.35352 C 448.68108 118.80592 418.60349 109.91848 389.4707 110.53906 z M 395.19531 217.36719 C 400.55789 217.14346 405.7329 217.88843 410 219.875 C 421.83958 225.38695 449.82712 258.61958 454.02344 272.14844 C 454.56675 273.90005 456.34533 278.03399 457.97461 281.33398 C 459.60389 284.63398 461.65369 290.25687 462.5293 293.83008 C 463.4049 297.40327 465.51078 303.10264 467.21094 306.49609 C 468.91109 309.88955 470.73579 315.03828 471.26367 317.9375 C 471.79155 320.83673 473.28916 325.33673 474.59375 327.9375 C 480.81659 340.34309 479.48183 346.37882 470.36328 347.06641 C 465.76309 347.41329 454.79999 348.39386 446 349.24414 C 431.43298 350.65166 344.71595 351.91061 330.86133 350.91602 C 325.67692 350.54384 325.12119 350.18819 325.67578 347.58398 C 326.01737 345.9799 327.05001 340.76667 327.9707 336 C 328.89139 331.23333 330.48594 325.23267 331.51367 322.66602 C 332.54139 320.09935 334.24597 314.10065 335.30273 309.33398 C 338.57345 294.58116 346.95506 271.17483 356.80859 249.27344 C 359.29772 243.74087 361.33398 238.76555 361.33398 238.2168 C 361.33398 227.43233 379.10758 218.03837 395.19531 217.36719 z " />
    </g>
  </g>
</svg>
