<?xml version="1.0" encoding="UTF-8" standalone="no"?>
<!-- Created with Inkscape (http://www.inkscape.org/) -->

<svg
   version="1.1"
   id="svg1"
   width="1333.3333"
   height="1333.3333"
   viewBox="0 0 1333.3333 1333.3333"
   sodipodi:docname="palettecolour2.svg"
   inkscape:version="1.3 (0e150ed6c4, 2023-07-21)"
   xmlns:inkscape="http://www.inkscape.org/namespaces/inkscape"
   xmlns:sodipodi="http://sodipodi.sourceforge.net/DTD/sodipodi-0.dtd"
   xmlns="http://www.w3.org/2000/svg"
   xmlns:svg="http://www.w3.org/2000/svg">
  <defs
     id="defs1" />
  <sodipodi:namedview
     id="namedview1"
     pagecolor="#ffffff"
     bordercolor="#000000"
     borderopacity="0.25"
     inkscape:showpageshadow="2"
     inkscape:pageopacity="0.0"
     inkscape:pagecheckerboard="0"
     inkscape:deskcolor="#d1d1d1"
     inkscape:zoom="0.44662503"
     inkscape:cx="850.82558"
     inkscape:cy="1042.2613"
     inkscape:window-width="2560"
     inkscape:window-height="1369"
     inkscape:window-x="1912"
     inkscape:window-y="-8"
     inkscape:window-maximized="1"
     inkscape:current-layer="g6" />
  <g
     inkscape:groupmode="layer"
     inkscape:label="Image"
     id="g1">
    <g
       id="g6">
      <path
         id="path6-2"
         style="fill:#637147"
         d="M 814.18945 106.02344 C 742.09916 105.13541 645.49599 109.78043 590.66602 118.88477 C 581.49935 120.40684 569.49997 122.11222 564 122.67383 C 520.34055 127.13197 461.31159 141.4097 424.66602 156.37695 C 403.09992 165.18525 361.43193 186.26833 353.33398 192.46875 C 352.23401 193.311 349.90086 194.80734 348.15039 195.79297 C 346.39992 196.77859 343.09924 198.64478 340.81641 199.94141 C 315.29071 214.43958 253.4457 263.24166 217.33398 297.38086 C 208.16734 306.04679 196.16598 316.89116 190.66602 321.47852 C 175.57124 334.06853 152.34458 357.78936 141.19531 372 C 131.65915 384.1546 116 405.98705 116 407.12891 C 116 407.88986 107.93381 421.1682 104.5293 426.01172 C 102.98725 428.20553 100.23768 432.99935 98.417969 436.66602 C 96.598258 440.33266 94.432637 444.53334 93.605469 446 C 89.059226 454.06098 74.632885 485.6241 72.884766 491.33398 C 71.762198 495.00065 69.242539 502.20068 67.287109 507.33398 C 59.408804 528.01579 51.539445 564.43898 49.283203 590.66602 C 48.557708 599.09932 47.372009 610.78346 46.648438 616.63086 C 42.995108 646.15454 46.896493 686.46199 54.683594 699.66016 C 56.1414 702.13093 57.333984 704.81213 57.333984 705.61914 C 57.333984 710.8141 79.436197 734.71147 94.074219 745.3418 C 104.02363 752.56719 129.98467 766.66602 133.33789 766.66602 C 134.14193 766.66602 136.7195 767.66076 139.06641 768.875 C 141.4133 770.08923 146.03401 771.85627 149.33398 772.80273 C 152.63398 773.74921 163.43401 776.87902 173.33398 779.75781 C 183.23395 782.63664 196.73401 786.26375 203.33398 787.81836 C 238.66253 796.13989 244.24711 797.33398 247.87305 797.33398 C 250.0474 797.33398 256.21547 798.26715 261.58008 799.4082 C 266.94466 800.54926 277.93337 802.05015 286 802.74414 C 294.06664 803.43813 306.06602 804.65313 312.66602 805.44336 C 319.26599 806.23358 364.56746 807.30796 413.33398 807.83203 C 521.59238 808.99541 518.0476 808.2954 514.47656 827.8457 C 513.72425 831.96434 511.35871 838.19315 509.2207 841.6875 C 507.08272 845.18185 505.33398 848.67017 505.33398 849.44141 C 505.33398 850.21266 503.83333 852.81125 502 855.21484 C 500.16667 857.61847 498.66602 860.43853 498.66602 861.48242 C 498.66602 862.5263 497.25127 865.46987 495.52148 868.02344 C 493.79171 870.57697 491.91212 874.16666 491.3457 876 C 490.77928 877.83333 489.26507 880.83269 487.98047 882.66602 C 484.21291 888.04293 480.0027 895.95013 479.9707 897.70703 C 479.9544 898.60139 478.76804 900.83269 477.33398 902.66602 C 475.89996 904.49932 474.71357 906.79879 474.69727 907.77539 C 474.68096 908.752 472.56667 913.13435 470 917.51367 C 467.43333 921.89302 465.33398 926.27127 465.33398 927.24219 C 465.33398 928.21311 464.58337 929.6293 463.66602 930.39062 C 461.85544 931.89327 455.85818 943.58788 441.98828 972.66602 C 428.68844 1000.5491 428.18984 1001.6722 427.16406 1006 C 426.64262 1008.2 425.11913 1011.8 423.7793 1014 C 422.43947 1016.2 421.34089 1018.9522 421.33789 1020.1152 C 421.33515 1021.2781 419.30513 1024.8781 416.82617 1028.1152 C 414.34722 1031.3522 411.59685 1036.261 410.71484 1039.0234 C 409.83283 1041.7857 407.06234 1047.4501 404.55664 1051.6113 C 402.05093 1055.7724 400 1060.0731 400 1061.168 C 400 1062.2629 398.849 1065.5965 397.44141 1068.5781 C 396.0338 1071.5596 393.88987 1076.9993 392.67773 1080.666 C 391.46562 1084.3327 389.68619 1089.134 388.72266 1091.334 C 387.75914 1093.534 385.35473 1099.5327 383.38086 1104.666 C 381.407 1109.7993 378.67211 1116.4006 377.30273 1119.334 C 375.93337 1122.2673 374.11783 1127.366 373.26758 1130.666 C 372.41732 1133.966 370.01593 1140.4284 367.93164 1145.0273 C 356.037 1171.2725 355.91903 1207.9503 367.66992 1226.666 C 383.94721 1252.5908 403.39347 1261.1305 452.66602 1263.9883 C 462.93266 1264.5838 481.83271 1264.7043 494.66602 1264.2559 C 507.49929 1263.8074 520.40068 1263.4945 523.33398 1263.5605 C 535.37147 1263.8316 562.22171 1259.3044 584 1253.332 C 607.17201 1246.9773 614.63644 1245.143 622.17578 1243.9512 C 626.673 1243.2404 632.90007 1241.7599 636.01172 1240.6621 C 639.12338 1239.5642 642.73573 1238.666 644.03906 1238.666 C 646.27259 1238.666 684.25377 1226.5722 690 1224.0312 C 691.46666 1223.383 695.06666 1222.159 698 1221.3105 C 700.93333 1220.462 705.73269 1218.6975 708.66602 1217.3906 C 711.59933 1216.0837 715.50068 1214.5879 717.33398 1214.0664 C 719.16731 1213.5449 723.20968 1211.9661 726.31836 1210.5586 C 729.42703 1209.1511 732.5562 1208 733.27148 1208 C 733.98678 1208 737.25916 1206.4993 740.54297 1204.666 C 743.82678 1202.8327 747.14942 1201.334 747.92773 1201.334 C 749.16717 1201.334 764.46412 1194.5064 780.66602 1186.7227 C 783.59932 1185.3134 793.20003 1180.7547 802 1176.5918 C 827.83769 1164.3689 841.27061 1157.7105 853.33398 1151.1504 C 859.56731 1147.7607 869.16602 1142.6128 874.66602 1139.709 C 880.16599 1136.8052 885.61377 1133.5816 886.77148 1132.5469 C 887.92922 1131.5122 889.35009 1130.666 889.92773 1130.666 C 890.50537 1130.666 897.24823 1126.7667 904.91406 1122 C 912.57989 1117.2334 919.07912 1113.334 919.35547 1113.334 C 919.63183 1113.334 929.34065 1107.2502 940.92969 1099.8164 C 952.51873 1092.3825 968.30003 1082.4018 976 1077.6367 C 983.69997 1072.8717 991.50068 1067.8361 993.33398 1066.4453 C 995.16732 1065.0546 1005.666 1057.2389 1016.666 1049.0781 C 1037.3981 1033.6972 1056.5309 1018.2037 1060 1013.9863 C 1061.1 1012.649 1064.4006 1009.8226 1067.334 1007.7051 C 1079.2656 999.09199 1116.8096 962.60936 1128 948.75391 C 1132.0334 943.76002 1137.8834 936.63238 1141 932.91602 C 1144.1167 929.19962 1146.666 925.14753 1146.666 923.91016 C 1146.666 922.67279 1147.5787 920.90365 1148.6934 919.97852 C 1151.1604 917.93114 1176 883.29663 1176 881.9043 C 1176 881.35939 1178.3019 877.85742 1181.1152 874.12305 C 1183.9285 870.38864 1187.8372 864.63398 1189.8027 861.33398 C 1193.2498 855.54645 1203.9146 839.71325 1211.8066 828.66602 C 1213.9021 825.73268 1216.5041 821.53398 1217.5898 819.33398 C 1218.6756 817.13401 1220.9597 812.93333 1222.666 810 C 1224.3723 807.06667 1226.6656 802.86599 1227.7617 800.66602 C 1228.8578 798.46602 1230.8601 795.07349 1232.2109 793.12695 C 1233.5616 791.18044 1234.666 788.94525 1234.666 788.16016 C 1234.666 787.37506 1236.466 782.8034 1238.666 778 C 1240.866 773.19661 1242.666 768.8978 1242.666 768.44727 C 1242.666 767.99674 1244.3663 764.86158 1246.4434 761.48047 C 1248.5204 758.09937 1250.6608 753.53398 1251.1992 751.33398 C 1252.1862 747.30064 1256.7871 736.6153 1261.248 728 C 1262.5771 725.43333 1264.1162 721.23266 1264.666 718.66602 C 1265.2158 716.09936 1266.7157 712.49933 1268 710.66602 C 1269.2843 708.83269 1270.7689 705.23266 1271.2988 702.66602 C 1271.8286 700.09936 1273.0585 696.7381 1274.0332 695.19531 C 1275.0079 693.65252 1276.2164 690.05252 1276.7188 687.19531 C 1277.2208 684.33813 1278.3963 680.77538 1279.3301 679.2793 C 1280.2638 677.78321 1281.7369 673.14322 1282.6035 668.96875 C 1283.4701 664.79429 1284.6788 661.07055 1285.2891 660.69336 C 1285.8994 660.31616 1287.1074 656.85614 1287.9727 653.00391 C 1288.838 649.15165 1290.3794 643.78402 1291.3984 641.07617 C 1293.2986 636.02605 1294.9915 627.39549 1297.7578 608.66602 C 1300.0244 593.3192 1299.9094 494.22662 1297.6113 482.66602 C 1295.226 470.66652 1292.4676 456.17492 1289.873 442 C 1288.665 435.40003 1286.6144 427.59932 1285.3164 424.66602 C 1284.0184 421.73269 1282.0477 416.63398 1280.9375 413.33398 C 1277.8318 404.1026 1274.7214 395.6099 1273.3672 392.66602 C 1272.6926 391.19936 1270.2886 385.79933 1268.0254 380.66602 C 1265.7622 375.53269 1263.3319 370.28333 1262.623 369 C 1261.914 367.71666 1260.7334 365.46666 1260 364 C 1259.2667 362.53333 1258.0658 360.14106 1257.332 358.68359 C 1256.5982 357.22615 1253.2124 351.07675 1249.8086 345.01758 C 1246.4048 338.95838 1242.1541 331.3 1240.3613 328 C 1238.5685 324.7 1236.0491 320.80065 1234.7617 319.33398 C 1233.4743 317.86735 1230.8691 313.81777 1228.9727 310.33594 C 1217.4138 289.11396 1157.6825 231.92895 1127.1348 212.83984 C 1120.6445 208.78414 1112.9334 203.75729 1110 201.66797 C 1107.0667 199.57865 1102.866 197.01006 1100.666 195.96094 C 1098.466 194.91183 1094.866 192.76143 1092.666 191.18164 C 1090.466 189.60185 1087.3318 187.9052 1085.7012 187.41016 C 1084.0706 186.91512 1079.7348 184.44526 1076.0664 181.92188 C 1072.3981 179.39848 1068.6166 177.33398 1067.6621 177.33398 C 1066.7076 177.33398 1064.5592 176.37455 1062.8867 175.20312 C 1061.2143 174.03173 1056.1306 171.13964 1051.5898 168.77539 C 1047.0491 166.41114 1041.0653 163.16989 1038.293 161.57227 C 1035.5207 159.97461 1032.5214 158.65302 1031.627 158.63672 C 1030.7327 158.62041 1028.4993 157.43405 1026.666 156 C 1024.8327 154.56595 1022.5659 153.37958 1021.6289 153.36328 C 1020.6919 153.34698 1015.6778 151.23265 1010.4844 148.66602 C 1005.2909 146.09935 1000.4446 144 999.71484 144 C 998.98512 144 995.53174 142.5658 992.04102 140.8125 C 988.55027 139.05919 983.66211 137.18958 981.17969 136.6582 C 978.69728 136.12683 976.06732 135.22022 975.33398 134.64453 C 973.83679 133.46917 948.91911 125.3391 936.66602 122.02734 C 932.26602 120.83811 925.74721 118.99456 922.17969 117.93164 C 918.61215 116.86872 914.03597 116 912.00977 116 C 909.98354 116 906.00166 115.02233 903.16211 113.82812 C 891.87304 109.08041 857.44365 106.55626 814.18945 106.02344 z M 685.26172 926.93555 A 75.214897 134.29456 42.37705 0 1 725.16992 938.99219 A 75.214897 134.29456 42.37705 0 1 690.2168 1088.8945 A 75.214897 134.29456 42.37705 0 1 544.13867 1137.4043 A 75.214897 134.29456 42.37705 0 1 579.0918 987.50195 A 75.214897 134.29456 42.37705 0 1 685.26172 926.93555 z " />
      <path
         id="path10-9"
         style="fill:#fcf8f1;fill-opacity:1"
         d="M 804.50586 126.43359 C 740.71397 126.85566 652.21608 131.49985 600.66602 138.59766 C 488.26545 154.07381 427.43118 171.70748 377.32227 203.33984 C 374.42443 205.16916 371.78799 206.66602 371.46484 206.66602 C 369.37215 206.66602 333.36472 230.36948 314 244.49414 C 297.40833 256.59612 298.884 255.47806 290 262.66602 C 286.33334 265.63267 282.7312 268.49791 281.99414 269.03125 C 278.11392 271.83898 258.28413 288.9925 245.42578 300.66602 C 241.38697 304.33267 237.39724 307.93268 236.56055 308.66602 C 235.72385 309.39934 230.00606 314.58969 223.85352 320.19922 C 217.70097 325.80874 207.52082 334.9097 201.23242 340.42383 C 172.08393 365.9833 144.01743 400.19902 127.22656 430.64258 C 125.81834 433.19582 123.8927 436.1118 122.94727 437.12305 C 119.51904 440.7899 94.05896 494.13351 91.982422 502 C 91.401682 504.2 89.405893 510.20066 87.546875 515.33398 C 77.352865 543.48286 73.570703 562.2663 68.617188 609.33398 C 61.845404 673.67865 70.48969 701.57919 105.0957 727.05469 C 121.01171 738.77139 151.47623 752.27458 178 759.37109 C 265.33539 782.73793 300.10441 786.61634 423.31055 786.73633 C 517.85123 786.8284 525.50054 788.33247 534.82812 808.66602 C 538.83735 817.40588 534.51848 848 529.27539 848 C 528.57396 848 528 849.19936 528 850.66602 C 528 852.13268 527.39935 853.33398 526.66602 853.33398 C 525.93269 853.33398 525.33398 854.57425 525.33398 856.08984 C 525.33398 857.60544 523.92902 860.75545 522.21289 863.08984 C 520.49676 865.42424 518.28381 869.43333 517.29492 872 C 516.30602 874.56667 514.11099 878.52367 512.41602 880.79297 C 510.72105 883.06217 509.33398 885.82168 509.33398 886.92578 C 509.33398 888.02988 507.64173 891.27282 505.57422 894.13281 C 503.50672 896.99281 501.12805 901.31076 500.28906 903.72656 C 499.45007 906.14226 497.62191 909.74226 496.22461 911.72656 C 494.82731 913.71076 493.24528 916.745 492.70898 918.4707 C 492.17269 920.1963 490.24849 923.79631 488.43359 926.4707 C 486.6187 929.1451 484.80991 932.95244 484.41406 934.93164 C 484.01821 936.91084 482.56219 939.55359 481.17969 940.80469 C 479.79719 942.05589 478.66602 943.68578 478.66602 944.42578 C 478.66602 946.75768 474.20237 956 473.07617 956 C 472.48396 956 472 956.9 472 958 C 472 959.1 471.39934 960 470.66602 960 C 469.93268 960 469.30473 961.05069 469.26953 962.33398 C 469.23431 963.61728 468.05746 966.76739 466.6543 969.33398 C 465.25114 971.90068 463.15495 976.09932 461.99609 978.66602 C 460.83722 981.23261 458.78617 985.4333 457.43945 988 C 456.09272 990.5667 454.22723 995.05305 453.29297 997.96875 C 452.3587 1000.8844 450.48711 1005.0832 449.13477 1007.3008 C 447.78241 1009.5184 446.67202 1012.234 446.66602 1013.334 C 446.66021 1014.434 445.23641 1018.1304 443.50195 1021.5488 C 441.76748 1024.9672 439.92502 1029.4672 439.4082 1031.5488 C 438.89137 1033.6304 437.33283 1036.5496 435.94531 1038.0371 C 434.55779 1039.5246 432.4817 1043.4137 431.33008 1046.6777 C 430.17847 1049.9418 427.98044 1054.7249 426.44531 1057.3066 C 423.06811 1062.9864 417.2789 1076.6867 411.78711 1092 C 409.55166 1098.2334 407.26517 1103.9327 406.70508 1104.666 C 406.14498 1105.3993 404.61885 1109.3006 403.31445 1113.334 C 402.01004 1117.3673 399.5891 1123.6673 397.93359 1127.334 C 396.27809 1131.0006 394.20429 1136.6889 393.32617 1139.9766 C 392.44806 1143.2643 390.3769 1148.6643 388.72266 1151.9766 C 362.35597 1204.77 387.84346 1240.0294 454.66602 1243.1973 C 463.26389 1243.6049 502.34555 1242.9657 530.66602 1241.9551 C 539.60254 1241.6363 552.30942 1239.2496 570.32031 1234.5059 C 580.79527 1231.747 593.60354 1228.694 603.33398 1226.6367 C 700.09574 1206.1783 823.99528 1149.7081 950.66016 1068.334 C 962.36044 1060.8173 972.54758 1054.666 973.29688 1054.666 C 974.04617 1054.666 976.98322 1052.5667 979.82422 1050 C 982.66522 1047.4334 985.62961 1045.334 986.41211 1045.334 C 987.19461 1045.334 989.82336 1043.4906 992.25195 1041.2383 C 994.68055 1038.9859 998.46601 1036.2025 1000.666 1035.0527 C 1002.866 1033.9029 1006.1935 1031.3951 1008.0586 1029.4805 C 1009.9237 1027.566 1013.1684 1025.1 1015.2695 1024 C 1017.3706 1022.9 1020.8582 1020.3506 1023.0195 1018.334 C 1025.1809 1016.3173 1027.3874 1014.666 1027.9238 1014.666 C 1028.4601 1014.666 1033.6465 1010.1121 1039.4492 1004.5449 C 1045.2519 998.97775 1052.2446 992.74566 1054.9883 990.69727 C 1057.732 988.64877 1062.7335 984.35324 1066.1016 981.15234 C 1072.0582 975.49125 1079.5834 968.41243 1087.4648 961.05664 C 1089.5922 959.07104 1091.9327 956.83986 1092.666 956.09766 C 1093.3993 955.35546 1096.7 952.08723 1100 948.83594 C 1106.5699 942.36294 1118.2721 928.40361 1120.4199 924.47852 C 1121.166 923.11512 1123.7781 919.64176 1126.2227 916.75977 C 1128.6672 913.87777 1130.666 910.80203 1130.666 909.92383 C 1130.666 909.04563 1131.6295 907.52768 1132.8066 906.55078 C 1134.9689 904.75628 1143.755 892.6963 1148.666 884.7832 C 1150.1327 882.42001 1153.2827 878.14103 1155.666 875.27344 C 1158.0493 872.4058 1160 869.50262 1160 868.82227 C 1160 868.14191 1161.4102 865.72819 1163.1348 863.45898 C 1164.8595 861.18977 1167.2031 857.53398 1168.3418 855.33398 C 1170.1646 851.81235 1171.7133 849.69163 1177.3086 843.05664 C 1178.0556 842.17093 1178.666 840.95866 1178.666 840.36328 C 1178.666 839.76791 1181.36 835.69221 1184.6523 831.30664 C 1187.9446 826.92108 1190.6423 822.88935 1190.6523 822.3457 C 1190.66 821.80205 1192.7673 818.6047 1195.334 815.24219 C 1197.9006 811.87968 1200 808.02516 1200 806.67578 C 1200 805.3264 1200.4723 804.02178 1201.0488 803.77734 C 1203.2004 802.865 1208 794.82043 1208 792.12695 C 1208 790.59015 1208.5836 789.33398 1209.2969 789.33398 C 1210.5016 789.33398 1219.8809 770.64824 1224.0215 760 C 1225.0195 757.43334 1227.223 753.0948 1228.918 750.35938 C 1230.6131 747.62396 1231.9961 744.32525 1231.9961 743.02734 C 1231.9941 741.72944 1233.1251 738.26731 1234.5098 735.33398 C 1242.4746 718.46146 1245.334 711.71716 1245.334 709.79883 C 1245.334 708.61594 1246.4679 705.77679 1247.8555 703.49023 C 1249.2431 701.20368 1250.8082 697.30272 1251.334 694.82031 C 1251.8598 692.33789 1253.7252 687.44973 1255.4785 683.95898 C 1257.2318 680.46824 1258.666 676.70002 1258.666 675.58398 C 1258.666 674.46795 1259.8673 670.75558 1261.334 667.33398 C 1262.8006 663.9124 1264 659.78212 1264 658.15625 C 1264 656.53038 1264.4958 654.63026 1265.1016 653.93359 C 1265.7074 653.23693 1266.8603 650.26732 1267.6641 647.33398 C 1268.4678 644.40066 1270.0714 638.78186 1271.2285 634.84766 C 1272.3856 630.91345 1273.334 626.27529 1273.334 624.54102 C 1273.334 622.80674 1274.3827 618.82487 1275.666 615.69336 C 1280.5722 603.72163 1278.6068 472.73958 1273.4434 467.57617 C 1272.6496 466.78245 1272 463.19566 1272 459.60547 C 1272 456.01529 1271.1324 451.48554 1270.0723 449.53906 C 1269.0122 447.59258 1267.7752 442.59112 1267.3223 438.42578 C 1266.8694 434.26044 1265.6357 430.13812 1264.582 429.26367 C 1263.5284 428.38922 1262.666 426.20888 1262.666 424.41992 C 1262.666 422.63097 1261.1274 417.91434 1259.2461 413.9375 C 1257.3647 409.96066 1255.306 405.04728 1254.6719 403.01953 C 1252.1951 395.09981 1245.2252 379.61686 1242.6797 376.38086 C 1241.2061 374.50738 1240 372.09176 1240 371.01367 C 1240 369.93559 1238.2 366.38673 1236 363.12695 C 1233.8 359.86718 1232 356.58761 1232 355.83984 C 1232 355.09206 1230.0505 351.67236 1227.668 348.24023 C 1225.2856 344.80811 1222.2477 339.59934 1220.918 336.66602 C 1219.5883 333.73268 1217.438 330.13267 1216.1387 328.66602 C 1214.8394 327.19935 1212.1647 323.1736 1210.1953 319.71875 C 1208.2259 316.2639 1205.8753 312.96325 1204.9707 312.38477 C 1204.0661 311.80629 1201.6794 308.93333 1199.668 306 C 1192.7035 295.8431 1142.9031 248.2317 1134.5684 243.76172 C 1132.2629 242.52526 1129.5073 240.27201 1128.4453 238.75586 C 1127.3834 237.23972 1125.6502 236 1124.5918 236 C 1123.5334 236 1122.666 235.39935 1122.666 234.66602 C 1122.666 233.93269 1121.7874 233.33398 1120.7129 233.33398 C 1119.6384 233.33398 1116.7877 231.61498 1114.3789 229.51367 C 1111.97 227.41236 1107.5128 224.43185 1104.4727 222.89062 C 1101.4325 221.3494 1098.1319 219.29479 1097.1387 218.32617 C 1096.1456 217.35755 1092.9334 215.46375 1090 214.11719 C 1087.0667 212.77064 1083.4667 210.63974 1082 209.38281 C 1080.5334 208.12587 1077.2327 206.28725 1074.666 205.29688 C 1072.0993 204.30651 1068.2 202.20667 1066 200.62891 C 1063.8 199.05114 1059.9006 196.94732 1057.334 195.95508 C 1054.7673 194.96284 1052.3667 193.74349 1052 193.24414 C 1050.7292 191.51347 1041.9902 186.67687 1040.125 186.67188 C 1039.0942 186.66914 1036.3269 185.19851 1033.9746 183.4043 C 1031.6223 181.6101 1027.9665 179.7289 1025.8496 179.22461 C 1023.7327 178.72033 1021.1 177.54257 1020 176.60547 C 1017.2686 174.27856 992.2004 162.66602 989.9082 162.66602 C 988.8938 162.66602 986.10032 161.46979 983.69922 160.00586 C 981.29822 158.54194 978.08429 157.34089 976.55859 157.33789 C 975.0328 157.33515 970.83416 155.83613 967.22656 154.00586 C 963.61897 152.1756 959.16728 150.67206 957.33398 150.66406 C 955.50069 150.65616 952.2 149.457 950 148 C 947.8 146.543 944.06803 145.3468 941.70703 145.3418 C 939.34603 145.33697 935.27731 144.13267 932.66602 142.66602 C 930.05472 141.19935 926.11721 140 923.91602 140 C 921.71472 140 917.75965 139.1 915.12695 138 C 912.49436 136.9 908.1346 136 905.4375 136 C 902.7404 136 899.95455 135.42138 899.24805 134.71484 C 898.54145 134.0083 894.37252 133.06194 889.98242 132.61133 C 885.59233 132.16073 880.80068 131.26298 879.33398 130.61523 C 872.16253 127.44799 842.78099 126.18035 804.50586 126.43359 z M 681.60938 954.80664 C 734.98306 959.3808 741.20895 1035.1661 673.33398 1088.6445 C 667.83399 1092.978 663.03268 1096.9035 662.66602 1097.3672 C 658.42657 1102.7277 625.08152 1122.2071 611.20117 1127.4316 C 535.52218 1155.9172 520.2998 1071.0703 588.49219 1000.8574 C 594.08838 995.09545 598.66602 989.87115 598.66602 989.24805 C 598.66602 986.71575 626.85209 965.96142 628.31055 967.41992 C 628.64204 967.75132 632.75797 966.28751 637.45703 964.16602 C 654.46443 956.48771 669.29237 953.75107 681.60938 954.80664 z " />
      <path
         style="fill:#c9f1f6"
         d="m 907.33328,663.24202 c -1.46667,-0.34482 -6.26667,-1.27872 -10.66667,-2.07533 -4.4,-0.79661 -10.54346,-2.58501 -13.65213,-3.97422 -3.10868,-1.38921 -5.9843,-2.52584 -6.39027,-2.52584 -0.40597,0 -4.00087,-2.41033 -7.98866,-5.35629 -31.1752,-23.03046 -31.50311,-63.75658 -0.99287,-123.31037 2.62987,-5.13334 5.88169,-11.54519 7.22626,-14.24857 1.34457,-2.70337 3.04909,-5.28878 3.78784,-5.74535 0.73874,-0.45657 1.34317,-1.73757 1.34317,-2.84667 0,-1.10911 0.75,-2.85287 1.66666,-3.87504 4.1305,-4.60589 5,-5.96512 5,-7.81607 0,-1.08767 0.62431,-2.36343 1.38736,-2.83502 1.22168,-0.75504 6.0473,-7.48162 9.94598,-13.86399 10.51476,-17.21334 41.57577,-51.28167 48.27671,-52.95085 2.0478,-0.51011 6.42328,-2.42395 9.72328,-4.25299 14.53733,-8.05737 22.8486,-11.06322 43.33333,-15.67191 11.20573,-2.52109 56.34953,-2.51307 65.33333,0.0116 31.5328,8.86148 48.5208,25.56455 53.6129,52.71353 3.269,17.42849 -1.125,42.99639 -10.3508,60.22952 -1.4275,2.66652 -2.5954,5.45888 -2.5954,6.20525 0,0.74637 -2.1834,5.16468 -4.852,9.81846 -2.6686,4.65378 -5.5255,9.66142 -6.3486,11.12809 -40.5118,72.18382 -134.89705,133.44453 -186.79942,121.24205 z"
         id="path9" />
      <path
         style="fill:#f9c0d4"
         d="m 342.66665,619.91063 c 2.15011,-0.66205 -0.6896,-1.03066 -8,-1.03844 -6.23334,-0.007 -13.13334,-0.3619 -15.33334,-0.78948 -2.2,-0.42758 -8.2,-1.64915 -13.33333,-2.71461 -5.13333,-1.06545 -11.13333,-2.16247 -13.33333,-2.43783 -2.2,-0.27535 -5.8,-1.26045 -8,-2.18911 -2.2,-0.92866 -5.5,-1.83082 -7.33333,-2.00479 -5.50401,-0.52231 -9.33334,-2.14535 -9.33334,-3.95589 0,-0.93854 -3.68041,-3.63566 -8.17868,-5.99359 -4.49828,-2.35794 -8.89444,-4.99961 -9.76924,-5.87038 -0.87481,-0.87077 -3.6444,-3.38983 -6.15465,-5.59792 -35.84392,-31.52934 -28.04066,-108.3875 15.41649,-151.84466 1.84401,-1.84401 3.35275,-3.69488 3.35275,-4.11305 0,-0.41817 2.81113,-3.29544 6.24696,-6.39394 3.43583,-3.0985 7.51478,-6.83531 9.06434,-8.30404 7.56703,-7.17226 23.04981,-15.15413 35.16659,-18.1295 14.17131,-3.47988 16.49674,-3.39586 38.85544,1.40401 4.51447,0.96914 27.98157,11.60232 29.33333,13.29122 1.2553,1.56838 7.90482,5.43801 9.34461,5.43801 0.79114,0 3.0215,1.46789 4.95635,3.26199 1.93484,1.79409 4.15866,2.89789 4.9418,2.4529 0.78315,-0.445 0.97772,-0.31671 0.43239,0.28508 -1.0726,1.18365 4.28304,5.54213 6.09062,4.95664 0.60451,-0.19581 0.73783,0.22855 0.29626,0.94303 -0.44157,0.71447 1.06877,2.67933 3.35631,4.36636 2.28755,1.68704 7.33608,6.78549 11.21896,11.32989 3.88289,4.54441 7.52415,7.84441 8.09168,7.33334 0.56754,-0.51108 0.64984,-0.25942 0.18289,0.55924 -0.46694,0.81866 0.33686,2.56165 1.78624,3.87332 1.44937,1.31166 2.63522,3.17074 2.63522,4.13128 0,0.96054 1.2,2.38866 2.66667,3.17359 1.46666,0.78494 2.66666,2.21844 2.66666,3.18555 0,0.96712 1.43703,3.30898 3.19341,5.20413 1.75637,1.89516 2.90856,3.73058 2.56043,4.07871 -0.34814,0.34814 2.36481,6.53517 6.02877,13.74896 38.70111,76.19666 13.40773,125.86319 -65.11594,127.86284 -13.56666,0.34548 -29.76666,0.82961 -35.99999,1.07583 -6.58823,0.26025 -9.93772,0.018 -8,-0.57869 z"
         id="path8" />
      <path
         style="fill:#b7c791"
         d="m 645.99996,523.13526 c -24.62241,-5.128 -32.94708,-7.81122 -45.34255,-14.61486 -11.51713,-6.32154 -37.99078,-29.70983 -37.99078,-33.56316 0,-0.31477 -1.35,-2.23332 -3,-4.26343 -8.68347,-10.68388 -23.32376,-43.69394 -26.32698,-59.3605 -0.56231,-2.93333 -1.97441,-9.23333 -3.138,-14 -16.66179,-68.25495 -10.37117,-108.81167 20.44258,-131.79705 5.0651,-3.77828 9.54876,-6.86961 9.9637,-6.86961 0.41494,0 3.29789,-1.15485 6.40657,-2.56633 15.60747,-7.0865 44.34978,-10.2564 61.80348,-6.8161 14.64656,2.88698 24.26885,5.3253 31.84865,8.07055 10.68233,3.86893 30.74482,13.99306 34.30842,17.31305 1.57359,1.46602 3.27574,2.6655 3.78256,2.6655 2.33459,0 25.18989,18.87732 33.005,27.26045 2.6972,2.89325 7.15401,7.51949 9.90401,10.28053 2.75,2.76105 5,5.62273 5,6.3593 0,0.73657 1.2,1.98144 2.66667,2.76638 1.46666,0.78494 2.66666,2.30605 2.66666,3.38025 0,1.07419 0.47315,1.95308 1.05143,1.95308 0.57829,0 4.32829,5.13212 8.33334,11.40471 4.00504,6.27259 8.92098,13.92259 10.9243,17 2.00333,3.07741 3.65332,6.3664 3.66667,7.30887 0.0133,0.94247 0.86733,3.04247 1.89775,4.66667 10.4307,16.44137 15.1787,59.75155 8.50929,77.61975 -3.23387,8.66394 -10.77878,23.77614 -13.50591,27.05186 -11.38004,13.66931 -21.84529,22.82687 -32.87687,28.76874 -2.56666,1.38247 -4.96666,2.88839 -5.33333,3.34649 -1.51932,1.89817 -31.38874,12.16624 -35.39113,12.16624 -1.50821,0 -3.3122,0.5652 -4.00887,1.256 -3.07833,3.05242 -38.83903,5.38433 -49.26666,3.21262 z"
         id="path7" />
    </g>
  </g>
</svg>
