<?xml version="1.0" encoding="UTF-8" standalone="no"?>
<!-- Created with Inkscape (http://www.inkscape.org/) -->

<svg
   version="1.1"
   id="svg1"
   width="1333.3333"
   height="1333.3333"
   viewBox="0 0 1333.3333 1333.3333"
   sodipodi:docname="palettecolour3.svg"
   inkscape:version="1.3 (0e150ed6c4, 2023-07-21)"
   xmlns:inkscape="http://www.inkscape.org/namespaces/inkscape"
   xmlns:sodipodi="http://sodipodi.sourceforge.net/DTD/sodipodi-0.dtd"
   xmlns="http://www.w3.org/2000/svg"
   xmlns:svg="http://www.w3.org/2000/svg">
  <defs
     id="defs1" />
  <sodipodi:namedview
     id="namedview1"
     pagecolor="#ffffff"
     bordercolor="#000000"
     borderopacity="0.25"
     inkscape:showpageshadow="2"
     inkscape:pageopacity="0.0"
     inkscape:pagecheckerboard="0"
     inkscape:deskcolor="#d1d1d1"
     inkscape:zoom="0.63162317"
     inkscape:cx="438.55263"
     inkscape:cy="599.24971"
     inkscape:window-width="2560"
     inkscape:window-height="1369"
     inkscape:window-x="1912"
     inkscape:window-y="-8"
     inkscape:window-maximized="1"
     inkscape:current-layer="g6" />
  <g
     inkscape:groupmode="layer"
     inkscape:label="Image"
     id="g1">
    <g
       id="g6">
      <path
         id="path10-9"
         style="fill:#fcf8f1;fill-opacity:1"
         d="M 804.50586 126.43359 C 740.71397 126.85566 652.21608 131.49985 600.66602 138.59766 C 488.26545 154.07381 427.43118 171.70748 377.32227 203.33984 C 374.42443 205.16916 371.78799 206.66602 371.46484 206.66602 C 369.37215 206.66602 333.36472 230.36948 314 244.49414 C 297.40833 256.59612 298.884 255.47806 290 262.66602 C 286.33334 265.63267 282.7312 268.49791 281.99414 269.03125 C 278.11392 271.83898 258.28413 288.9925 245.42578 300.66602 C 241.38697 304.33267 237.39724 307.93268 236.56055 308.66602 C 235.72385 309.39934 230.00606 314.58969 223.85352 320.19922 C 217.70097 325.80874 207.52082 334.9097 201.23242 340.42383 C 172.08393 365.9833 144.01743 400.19902 127.22656 430.64258 C 125.81834 433.19582 123.8927 436.1118 122.94727 437.12305 C 119.51904 440.7899 94.05896 494.13351 91.982422 502 C 91.401682 504.2 89.405893 510.20066 87.546875 515.33398 C 77.352865 543.48286 73.570703 562.2663 68.617188 609.33398 C 61.845404 673.67865 70.48969 701.57919 105.0957 727.05469 C 121.01171 738.77139 151.47623 752.27458 178 759.37109 C 265.33539 782.73793 300.10441 786.61634 423.31055 786.73633 C 517.85123 786.8284 525.50054 788.33247 534.82812 808.66602 C 538.83735 817.40588 534.51848 848 529.27539 848 C 528.57396 848 528 849.19936 528 850.66602 C 528 852.13268 527.39935 853.33398 526.66602 853.33398 C 525.93269 853.33398 525.33398 854.57425 525.33398 856.08984 C 525.33398 857.60544 523.92902 860.75545 522.21289 863.08984 C 520.49676 865.42424 518.28381 869.43333 517.29492 872 C 516.30602 874.56667 514.11099 878.52367 512.41602 880.79297 C 510.72105 883.06217 509.33398 885.82168 509.33398 886.92578 C 509.33398 888.02988 507.64173 891.27282 505.57422 894.13281 C 503.50672 896.99281 501.12805 901.31076 500.28906 903.72656 C 499.45007 906.14226 497.62191 909.74226 496.22461 911.72656 C 494.82731 913.71076 493.24528 916.745 492.70898 918.4707 C 492.17269 920.1963 490.24849 923.79631 488.43359 926.4707 C 486.6187 929.1451 484.80991 932.95244 484.41406 934.93164 C 484.01821 936.91084 482.56219 939.55359 481.17969 940.80469 C 479.79719 942.05589 478.66602 943.68578 478.66602 944.42578 C 478.66602 946.75768 474.20237 956 473.07617 956 C 472.48396 956 472 956.9 472 958 C 472 959.1 471.39934 960 470.66602 960 C 469.93268 960 469.30473 961.05069 469.26953 962.33398 C 469.23431 963.61728 468.05746 966.76739 466.6543 969.33398 C 465.25114 971.90068 463.15495 976.09932 461.99609 978.66602 C 460.83722 981.23261 458.78617 985.4333 457.43945 988 C 456.09272 990.5667 454.22723 995.05305 453.29297 997.96875 C 452.3587 1000.8844 450.48711 1005.0832 449.13477 1007.3008 C 447.78241 1009.5184 446.67202 1012.234 446.66602 1013.334 C 446.66021 1014.434 445.23641 1018.1304 443.50195 1021.5488 C 441.76748 1024.9672 439.92502 1029.4672 439.4082 1031.5488 C 438.89137 1033.6304 437.33283 1036.5496 435.94531 1038.0371 C 434.55779 1039.5246 432.4817 1043.4137 431.33008 1046.6777 C 430.17847 1049.9418 427.98044 1054.7249 426.44531 1057.3066 C 423.06811 1062.9864 417.2789 1076.6867 411.78711 1092 C 409.55166 1098.2334 407.26517 1103.9327 406.70508 1104.666 C 406.14498 1105.3993 404.61885 1109.3006 403.31445 1113.334 C 402.01004 1117.3673 399.5891 1123.6673 397.93359 1127.334 C 396.27809 1131.0006 394.20429 1136.6889 393.32617 1139.9766 C 392.44806 1143.2643 390.3769 1148.6643 388.72266 1151.9766 C 362.35597 1204.77 387.84346 1240.0294 454.66602 1243.1973 C 463.26389 1243.6049 502.34555 1242.9657 530.66602 1241.9551 C 539.60254 1241.6363 552.30942 1239.2496 570.32031 1234.5059 C 580.79527 1231.747 593.60354 1228.694 603.33398 1226.6367 C 700.09574 1206.1783 823.99528 1149.7081 950.66016 1068.334 C 962.36044 1060.8173 972.54758 1054.666 973.29688 1054.666 C 974.04617 1054.666 976.98322 1052.5667 979.82422 1050 C 982.66522 1047.4334 985.62961 1045.334 986.41211 1045.334 C 987.19461 1045.334 989.82336 1043.4906 992.25195 1041.2383 C 994.68055 1038.9859 998.46601 1036.2025 1000.666 1035.0527 C 1002.866 1033.9029 1006.1935 1031.3951 1008.0586 1029.4805 C 1009.9237 1027.566 1013.1684 1025.1 1015.2695 1024 C 1017.3706 1022.9 1020.8582 1020.3506 1023.0195 1018.334 C 1025.1809 1016.3173 1027.3874 1014.666 1027.9238 1014.666 C 1028.4601 1014.666 1033.6465 1010.1121 1039.4492 1004.5449 C 1045.2519 998.97775 1052.2446 992.74566 1054.9883 990.69727 C 1057.732 988.64877 1062.7335 984.35324 1066.1016 981.15234 C 1072.0582 975.49125 1079.5834 968.41243 1087.4648 961.05664 C 1089.5922 959.07104 1091.9327 956.83986 1092.666 956.09766 C 1093.3993 955.35546 1096.7 952.08723 1100 948.83594 C 1106.5699 942.36294 1118.2721 928.40361 1120.4199 924.47852 C 1121.166 923.11512 1123.7781 919.64176 1126.2227 916.75977 C 1128.6672 913.87777 1130.666 910.80203 1130.666 909.92383 C 1130.666 909.04563 1131.6295 907.52768 1132.8066 906.55078 C 1134.9689 904.75628 1143.755 892.6963 1148.666 884.7832 C 1150.1327 882.42001 1153.2827 878.14103 1155.666 875.27344 C 1158.0493 872.4058 1160 869.50262 1160 868.82227 C 1160 868.14191 1161.4102 865.72819 1163.1348 863.45898 C 1164.8595 861.18977 1167.2031 857.53398 1168.3418 855.33398 C 1170.1646 851.81235 1171.7133 849.69163 1177.3086 843.05664 C 1178.0556 842.17093 1178.666 840.95866 1178.666 840.36328 C 1178.666 839.76791 1181.36 835.69221 1184.6523 831.30664 C 1187.9446 826.92108 1190.6423 822.88935 1190.6523 822.3457 C 1190.66 821.80205 1192.7673 818.6047 1195.334 815.24219 C 1197.9006 811.87968 1200 808.02516 1200 806.67578 C 1200 805.3264 1200.4723 804.02178 1201.0488 803.77734 C 1203.2004 802.865 1208 794.82043 1208 792.12695 C 1208 790.59015 1208.5836 789.33398 1209.2969 789.33398 C 1210.5016 789.33398 1219.8809 770.64824 1224.0215 760 C 1225.0195 757.43334 1227.223 753.0948 1228.918 750.35938 C 1230.6131 747.62396 1231.9961 744.32525 1231.9961 743.02734 C 1231.9941 741.72944 1233.1251 738.26731 1234.5098 735.33398 C 1242.4746 718.46146 1245.334 711.71716 1245.334 709.79883 C 1245.334 708.61594 1246.4679 705.77679 1247.8555 703.49023 C 1249.2431 701.20368 1250.8082 697.30272 1251.334 694.82031 C 1251.8598 692.33789 1253.7252 687.44973 1255.4785 683.95898 C 1257.2318 680.46824 1258.666 676.70002 1258.666 675.58398 C 1258.666 674.46795 1259.8673 670.75558 1261.334 667.33398 C 1262.8006 663.9124 1264 659.78212 1264 658.15625 C 1264 656.53038 1264.4958 654.63026 1265.1016 653.93359 C 1265.7074 653.23693 1266.8603 650.26732 1267.6641 647.33398 C 1268.4678 644.40066 1270.0714 638.78186 1271.2285 634.84766 C 1272.3856 630.91345 1273.334 626.27529 1273.334 624.54102 C 1273.334 622.80674 1274.3827 618.82487 1275.666 615.69336 C 1280.5722 603.72163 1278.6068 472.73958 1273.4434 467.57617 C 1272.6496 466.78245 1272 463.19566 1272 459.60547 C 1272 456.01529 1271.1324 451.48554 1270.0723 449.53906 C 1269.0122 447.59258 1267.7752 442.59112 1267.3223 438.42578 C 1266.8694 434.26044 1265.6357 430.13812 1264.582 429.26367 C 1263.5284 428.38922 1262.666 426.20888 1262.666 424.41992 C 1262.666 422.63097 1261.1274 417.91434 1259.2461 413.9375 C 1257.3647 409.96066 1255.306 405.04728 1254.6719 403.01953 C 1252.1951 395.09981 1245.2252 379.61686 1242.6797 376.38086 C 1241.2061 374.50738 1240 372.09176 1240 371.01367 C 1240 369.93559 1238.2 366.38673 1236 363.12695 C 1233.8 359.86718 1232 356.58761 1232 355.83984 C 1232 355.09206 1230.0505 351.67236 1227.668 348.24023 C 1225.2856 344.80811 1222.2477 339.59934 1220.918 336.66602 C 1219.5883 333.73268 1217.438 330.13267 1216.1387 328.66602 C 1214.8394 327.19935 1212.1647 323.1736 1210.1953 319.71875 C 1208.2259 316.2639 1205.8753 312.96325 1204.9707 312.38477 C 1204.0661 311.80629 1201.6794 308.93333 1199.668 306 C 1192.7035 295.8431 1142.9031 248.2317 1134.5684 243.76172 C 1132.2629 242.52526 1129.5073 240.27201 1128.4453 238.75586 C 1127.3834 237.23972 1125.6502 236 1124.5918 236 C 1123.5334 236 1122.666 235.39935 1122.666 234.66602 C 1122.666 233.93269 1121.7874 233.33398 1120.7129 233.33398 C 1119.6384 233.33398 1116.7877 231.61498 1114.3789 229.51367 C 1111.97 227.41236 1107.5128 224.43185 1104.4727 222.89062 C 1101.4325 221.3494 1098.1319 219.29479 1097.1387 218.32617 C 1096.1456 217.35755 1092.9334 215.46375 1090 214.11719 C 1087.0667 212.77064 1083.4667 210.63974 1082 209.38281 C 1080.5334 208.12587 1077.2327 206.28725 1074.666 205.29688 C 1072.0993 204.30651 1068.2 202.20667 1066 200.62891 C 1063.8 199.05114 1059.9006 196.94732 1057.334 195.95508 C 1054.7673 194.96284 1052.3667 193.74349 1052 193.24414 C 1050.7292 191.51347 1041.9902 186.67687 1040.125 186.67188 C 1039.0942 186.66914 1036.3269 185.19851 1033.9746 183.4043 C 1031.6223 181.6101 1027.9665 179.7289 1025.8496 179.22461 C 1023.7327 178.72033 1021.1 177.54257 1020 176.60547 C 1017.2686 174.27856 992.2004 162.66602 989.9082 162.66602 C 988.8938 162.66602 986.10032 161.46979 983.69922 160.00586 C 981.29822 158.54194 978.08429 157.34089 976.55859 157.33789 C 975.0328 157.33515 970.83416 155.83613 967.22656 154.00586 C 963.61897 152.1756 959.16728 150.67206 957.33398 150.66406 C 955.50069 150.65616 952.2 149.457 950 148 C 947.8 146.543 944.06803 145.3468 941.70703 145.3418 C 939.34603 145.33697 935.27731 144.13267 932.66602 142.66602 C 930.05472 141.19935 926.11721 140 923.91602 140 C 921.71472 140 917.75965 139.1 915.12695 138 C 912.49436 136.9 908.1346 136 905.4375 136 C 902.7404 136 899.95455 135.42138 899.24805 134.71484 C 898.54145 134.0083 894.37252 133.06194 889.98242 132.61133 C 885.59233 132.16073 880.80068 131.26298 879.33398 130.61523 C 872.16253 127.44799 842.78099 126.18035 804.50586 126.43359 z M 681.60938 954.80664 C 734.98306 959.3808 741.20895 1035.1661 673.33398 1088.6445 C 667.83399 1092.978 663.03268 1096.9035 662.66602 1097.3672 C 658.42657 1102.7277 625.08152 1122.2071 611.20117 1127.4316 C 535.52218 1155.9172 520.2998 1071.0703 588.49219 1000.8574 C 594.08838 995.09545 598.66602 989.87115 598.66602 989.24805 C 598.66602 986.71575 626.85209 965.96142 628.31055 967.41992 C 628.64204 967.75132 632.75797 966.28751 637.45703 964.16602 C 654.46443 956.48771 669.29237 953.75107 681.60938 954.80664 z " />
      <path
         style="fill:#c9f1f6"
         d="m 907.33328,663.24202 c -1.46667,-0.34482 -6.26667,-1.27872 -10.66667,-2.07533 -4.4,-0.79661 -10.54346,-2.58501 -13.65213,-3.97422 -3.10868,-1.38921 -5.9843,-2.52584 -6.39027,-2.52584 -0.40597,0 -4.00087,-2.41033 -7.98866,-5.35629 -31.1752,-23.03046 -31.50311,-63.75658 -0.99287,-123.31037 2.62987,-5.13334 5.88169,-11.54519 7.22626,-14.24857 1.34457,-2.70337 3.04909,-5.28878 3.78784,-5.74535 0.73874,-0.45657 1.34317,-1.73757 1.34317,-2.84667 0,-1.10911 0.75,-2.85287 1.66666,-3.87504 4.1305,-4.60589 5,-5.96512 5,-7.81607 0,-1.08767 0.62431,-2.36343 1.38736,-2.83502 1.22168,-0.75504 6.0473,-7.48162 9.94598,-13.86399 10.51476,-17.21334 41.57577,-51.28167 48.27671,-52.95085 2.0478,-0.51011 6.42328,-2.42395 9.72328,-4.25299 14.53733,-8.05737 22.8486,-11.06322 43.33333,-15.67191 11.20573,-2.52109 56.34953,-2.51307 65.33333,0.0116 31.5328,8.86148 48.5208,25.56455 53.6129,52.71353 3.269,17.42849 -1.125,42.99639 -10.3508,60.22952 -1.4275,2.66652 -2.5954,5.45888 -2.5954,6.20525 0,0.74637 -2.1834,5.16468 -4.852,9.81846 -2.6686,4.65378 -5.5255,9.66142 -6.3486,11.12809 -40.5118,72.18382 -134.89705,133.44453 -186.79942,121.24205 z"
         id="path9" />
      <path
         style="fill:#f9c0d4"
         d="m 342.66665,619.91063 c 2.15011,-0.66205 -0.6896,-1.03066 -8,-1.03844 -6.23334,-0.007 -13.13334,-0.3619 -15.33334,-0.78948 -2.2,-0.42758 -8.2,-1.64915 -13.33333,-2.71461 -5.13333,-1.06545 -11.13333,-2.16247 -13.33333,-2.43783 -2.2,-0.27535 -5.8,-1.26045 -8,-2.18911 -2.2,-0.92866 -5.5,-1.83082 -7.33333,-2.00479 -5.50401,-0.52231 -9.33334,-2.14535 -9.33334,-3.95589 0,-0.93854 -3.68041,-3.63566 -8.17868,-5.99359 -4.49828,-2.35794 -8.89444,-4.99961 -9.76924,-5.87038 -0.87481,-0.87077 -3.6444,-3.38983 -6.15465,-5.59792 -35.84392,-31.52934 -28.04066,-108.3875 15.41649,-151.84466 1.84401,-1.84401 3.35275,-3.69488 3.35275,-4.11305 0,-0.41817 2.81113,-3.29544 6.24696,-6.39394 3.43583,-3.0985 7.51478,-6.83531 9.06434,-8.30404 7.56703,-7.17226 23.04981,-15.15413 35.16659,-18.1295 14.17131,-3.47988 16.49674,-3.39586 38.85544,1.40401 4.51447,0.96914 27.98157,11.60232 29.33333,13.29122 1.2553,1.56838 7.90482,5.43801 9.34461,5.43801 0.79114,0 3.0215,1.46789 4.95635,3.26199 1.93484,1.79409 4.15866,2.89789 4.9418,2.4529 0.78315,-0.445 0.97772,-0.31671 0.43239,0.28508 -1.0726,1.18365 4.28304,5.54213 6.09062,4.95664 0.60451,-0.19581 0.73783,0.22855 0.29626,0.94303 -0.44157,0.71447 1.06877,2.67933 3.35631,4.36636 2.28755,1.68704 7.33608,6.78549 11.21896,11.32989 3.88289,4.54441 7.52415,7.84441 8.09168,7.33334 0.56754,-0.51108 0.64984,-0.25942 0.18289,0.55924 -0.46694,0.81866 0.33686,2.56165 1.78624,3.87332 1.44937,1.31166 2.63522,3.17074 2.63522,4.13128 0,0.96054 1.2,2.38866 2.66667,3.17359 1.46666,0.78494 2.66666,2.21844 2.66666,3.18555 0,0.96712 1.43703,3.30898 3.19341,5.20413 1.75637,1.89516 2.90856,3.73058 2.56043,4.07871 -0.34814,0.34814 2.36481,6.53517 6.02877,13.74896 38.70111,76.19666 13.40773,125.86319 -65.11594,127.86284 -13.56666,0.34548 -29.76666,0.82961 -35.99999,1.07583 -6.58823,0.26025 -9.93772,0.018 -8,-0.57869 z"
         id="path8" />
      <path
         style="fill:#b7c791"
         d="m 645.99996,523.13526 c -24.62241,-5.128 -32.94708,-7.81122 -45.34255,-14.61486 -11.51713,-6.32154 -37.99078,-29.70983 -37.99078,-33.56316 0,-0.31477 -1.35,-2.23332 -3,-4.26343 -8.68347,-10.68388 -23.32376,-43.69394 -26.32698,-59.3605 -0.56231,-2.93333 -1.97441,-9.23333 -3.138,-14 -16.66179,-68.25495 -10.37117,-108.81167 20.44258,-131.79705 5.0651,-3.77828 9.54876,-6.86961 9.9637,-6.86961 0.41494,0 3.29789,-1.15485 6.40657,-2.56633 15.60747,-7.0865 44.34978,-10.2564 61.80348,-6.8161 14.64656,2.88698 24.26885,5.3253 31.84865,8.07055 10.68233,3.86893 30.74482,13.99306 34.30842,17.31305 1.57359,1.46602 3.27574,2.6655 3.78256,2.6655 2.33459,0 25.18989,18.87732 33.005,27.26045 2.6972,2.89325 7.15401,7.51949 9.90401,10.28053 2.75,2.76105 5,5.62273 5,6.3593 0,0.73657 1.2,1.98144 2.66667,2.76638 1.46666,0.78494 2.66666,2.30605 2.66666,3.38025 0,1.07419 0.47315,1.95308 1.05143,1.95308 0.57829,0 4.32829,5.13212 8.33334,11.40471 4.00504,6.27259 8.92098,13.92259 10.9243,17 2.00333,3.07741 3.65332,6.3664 3.66667,7.30887 0.0133,0.94247 0.86733,3.04247 1.89775,4.66667 10.4307,16.44137 15.1787,59.75155 8.50929,77.61975 -3.23387,8.66394 -10.77878,23.77614 -13.50591,27.05186 -11.38004,13.66931 -21.84529,22.82687 -32.87687,28.76874 -2.56666,1.38247 -4.96666,2.88839 -5.33333,3.34649 -1.51932,1.89817 -31.38874,12.16624 -35.39113,12.16624 -1.50821,0 -3.3122,0.5652 -4.00887,1.256 -3.07833,3.05242 -38.83903,5.38433 -49.26666,3.21262 z"
         id="path7" />
    </g>
  </g>
</svg>
