<?xml version="1.0" encoding="UTF-8" standalone="no"?>
<!-- Created with Inkscape (http://www.inkscape.org/) -->

<svg
   version="1.1"
   id="svg1"
   width="1333.3333"
   height="1333.3333"
   viewBox="0 0 1333.3333 1333.3333"
   sodipodi:docname="palettecolour4.svg"
   inkscape:version="1.3 (0e150ed6c4, 2023-07-21)"
   xmlns:inkscape="http://www.inkscape.org/namespaces/inkscape"
   xmlns:sodipodi="http://sodipodi.sourceforge.net/DTD/sodipodi-0.dtd"
   xmlns="http://www.w3.org/2000/svg"
   xmlns:svg="http://www.w3.org/2000/svg">
  <defs
     id="defs1" />
  <sodipodi:namedview
     id="namedview1"
     pagecolor="#ffffff"
     bordercolor="#000000"
     borderopacity="0.25"
     inkscape:showpageshadow="2"
     inkscape:pageopacity="0.0"
     inkscape:pagecheckerboard="0"
     inkscape:deskcolor="#d1d1d1"
     inkscape:zoom="0.63162317"
     inkscape:cx="438.55263"
     inkscape:cy="600.83293"
     inkscape:window-width="2560"
     inkscape:window-height="1369"
     inkscape:window-x="1912"
     inkscape:window-y="-8"
     inkscape:window-maximized="1"
     inkscape:current-layer="g6" />
  <g
     inkscape:groupmode="layer"
     inkscape:label="Image"
     id="g1">
    <g
       id="g6">
      <path
         id="path10-9"
         style="fill:#fcf8f1;fill-opacity:1"
         d="M 804.50586 126.43359 C 740.71403 126.85566 652.21602 131.49985 600.66602 138.59766 C 488.26556 154.07379 427.43113 171.70752 377.32227 203.33984 C 374.42443 205.16916 371.78799 206.66602 371.46484 206.66602 C 369.37216 206.66602 333.3647 230.36949 314 244.49414 C 297.40835 256.59611 298.88399 255.47806 290 262.66602 C 286.33334 265.63266 282.7312 268.49791 281.99414 269.03125 C 278.11392 271.83898 258.28412 288.99251 245.42578 300.66602 C 241.38698 304.33266 237.39724 307.93268 236.56055 308.66602 C 235.72385 309.39933 230.00605 314.58969 223.85352 320.19922 C 217.70097 325.80873 207.52082 334.9097 201.23242 340.42383 C 172.08396 365.98327 144.01742 400.19905 127.22656 430.64258 C 125.81834 433.19582 123.89269 436.1118 122.94727 437.12305 C 119.51904 440.78989 94.058958 494.13352 91.982422 502 C 91.401682 504.2 89.405891 510.20067 87.546875 515.33398 C 77.352875 543.48284 73.570698 562.26635 68.617188 609.33398 C 61.84541 673.67859 70.489728 701.57921 105.0957 727.05469 C 121.0117 738.77138 151.47626 752.27459 178 759.37109 C 265.3353 782.73791 300.10453 786.61634 423.31055 786.73633 C 517.85113 786.8284 525.50055 788.33249 534.82812 808.66602 C 538.83735 817.40587 534.51848 848 529.27539 848 C 528.57396 848 528 849.19936 528 850.66602 C 528 852.13267 527.39934 853.33398 526.66602 853.33398 C 525.93269 853.33398 525.33398 854.57426 525.33398 856.08984 C 525.33398 857.60544 523.92902 860.75546 522.21289 863.08984 C 520.49676 865.42424 518.28381 869.43333 517.29492 872 C 516.30602 874.56667 514.11098 878.52367 512.41602 880.79297 C 510.72105 883.06217 509.33398 885.82168 509.33398 886.92578 C 509.33398 888.02988 507.64173 891.27283 505.57422 894.13281 C 503.50672 896.99281 501.12805 901.31076 500.28906 903.72656 C 499.45007 906.14226 497.62191 909.74226 496.22461 911.72656 C 494.82731 913.71076 493.24528 916.745 492.70898 918.4707 C 492.17269 920.1963 490.24849 923.79632 488.43359 926.4707 C 486.61871 929.1451 484.80991 932.95244 484.41406 934.93164 C 484.01821 936.91084 482.56219 939.55359 481.17969 940.80469 C 479.79719 942.05589 478.66602 943.68578 478.66602 944.42578 C 478.66602 946.75768 474.20237 956 473.07617 956 C 472.48396 956 472 956.9 472 958 C 472 959.1 471.39933 960 470.66602 960 C 469.93268 960 469.30473 961.0507 469.26953 962.33398 C 469.23431 963.61728 468.05746 966.7674 466.6543 969.33398 C 465.25114 971.90068 463.15495 976.09932 461.99609 978.66602 C 460.83722 981.2326 458.78617 985.4333 457.43945 988 C 456.09272 990.5667 454.22723 995.05305 453.29297 997.96875 C 452.3587 1000.8844 450.4871 1005.0832 449.13477 1007.3008 C 447.78241 1009.5184 446.67202 1012.234 446.66602 1013.334 C 446.66021 1014.434 445.23641 1018.1304 443.50195 1021.5488 C 441.76748 1024.9672 439.92502 1029.4672 439.4082 1031.5488 C 438.89137 1033.6304 437.33283 1036.5496 435.94531 1038.0371 C 434.55779 1039.5246 432.4817 1043.4137 431.33008 1046.6777 C 430.17847 1049.9418 427.98044 1054.7249 426.44531 1057.3066 C 423.06812 1062.9864 417.27889 1076.6867 411.78711 1092 C 409.55166 1098.2334 407.26517 1103.9327 406.70508 1104.666 C 406.14498 1105.3993 404.61885 1109.3006 403.31445 1113.334 C 402.01004 1117.3673 399.5891 1123.6673 397.93359 1127.334 C 396.2781 1131.0006 394.20429 1136.6889 393.32617 1139.9766 C 392.44806 1143.2643 390.37689 1148.6643 388.72266 1151.9766 C 362.35599 1204.7699 387.84352 1240.0294 454.66602 1243.1973 C 463.26388 1243.6049 502.34557 1242.9657 530.66602 1241.9551 C 539.60253 1241.6363 552.30944 1239.2496 570.32031 1234.5059 C 580.79526 1231.747 593.60355 1228.694 603.33398 1226.6367 C 700.09565 1206.1783 823.9954 1149.708 950.66016 1068.334 C 962.36042 1060.8173 972.54758 1054.666 973.29688 1054.666 C 974.04616 1054.666 976.98322 1052.5667 979.82422 1050 C 982.66522 1047.4334 985.62961 1045.334 986.41211 1045.334 C 987.19461 1045.334 989.82337 1043.4906 992.25195 1041.2383 C 994.68055 1038.9859 998.46603 1036.2025 1000.666 1035.0527 C 1002.866 1033.9029 1006.1935 1031.3951 1008.0586 1029.4805 C 1009.9237 1027.566 1013.1684 1025.1 1015.2695 1024 C 1017.3706 1022.9 1020.8582 1020.3506 1023.0195 1018.334 C 1025.1809 1016.3173 1027.3874 1014.666 1027.9238 1014.666 C 1028.4601 1014.666 1033.6465 1010.1121 1039.4492 1004.5449 C 1045.2519 998.97778 1052.2446 992.74565 1054.9883 990.69727 C 1057.732 988.64877 1062.7335 984.35324 1066.1016 981.15234 C 1072.0582 975.49126 1079.5835 968.41242 1087.4648 961.05664 C 1089.5922 959.07104 1091.9327 956.83986 1092.666 956.09766 C 1093.3993 955.35546 1096.7 952.08722 1100 948.83594 C 1106.5699 942.36294 1118.2721 928.4036 1120.4199 924.47852 C 1121.166 923.11512 1123.7781 919.64175 1126.2227 916.75977 C 1128.6672 913.87777 1130.666 910.80203 1130.666 909.92383 C 1130.666 909.04563 1131.6295 907.52768 1132.8066 906.55078 C 1134.9689 904.75628 1143.755 892.6963 1148.666 884.7832 C 1150.1327 882.42002 1153.2827 878.14102 1155.666 875.27344 C 1158.0493 872.4058 1160 869.50261 1160 868.82227 C 1160 868.14191 1161.4102 865.72819 1163.1348 863.45898 C 1164.8595 861.18978 1167.2031 857.53398 1168.3418 855.33398 C 1170.1646 851.81236 1171.7133 849.69162 1177.3086 843.05664 C 1178.0556 842.17093 1178.666 840.95866 1178.666 840.36328 C 1178.666 839.76791 1181.36 835.69221 1184.6523 831.30664 C 1187.9446 826.92109 1190.6423 822.88935 1190.6523 822.3457 C 1190.66 821.80205 1192.7673 818.60469 1195.334 815.24219 C 1197.9006 811.87968 1200 808.02516 1200 806.67578 C 1200 805.3264 1200.4723 804.02178 1201.0488 803.77734 C 1203.2004 802.865 1208 794.82043 1208 792.12695 C 1208 790.59015 1208.5836 789.33398 1209.2969 789.33398 C 1210.5016 789.33398 1219.8809 770.64823 1224.0215 760 C 1225.0195 757.43334 1227.223 753.09479 1228.918 750.35938 C 1230.6131 747.62396 1231.9961 744.32525 1231.9961 743.02734 C 1231.9941 741.72945 1233.1251 738.26731 1234.5098 735.33398 C 1242.4746 718.46148 1245.334 711.71716 1245.334 709.79883 C 1245.334 708.61594 1246.4679 705.77679 1247.8555 703.49023 C 1249.2431 701.20369 1250.8082 697.30272 1251.334 694.82031 C 1251.8598 692.33789 1253.7252 687.44973 1255.4785 683.95898 C 1257.2318 680.46825 1258.666 676.70002 1258.666 675.58398 C 1258.666 674.46796 1259.8673 670.75558 1261.334 667.33398 C 1262.8006 663.91241 1264 659.78212 1264 658.15625 C 1264 656.53038 1264.4958 654.63026 1265.1016 653.93359 C 1265.7074 653.23693 1266.8603 650.26732 1267.6641 647.33398 C 1268.4678 644.40067 1270.0714 638.78185 1271.2285 634.84766 C 1272.3856 630.91345 1273.334 626.27528 1273.334 624.54102 C 1273.334 622.80674 1274.3827 618.82487 1275.666 615.69336 C 1280.5722 603.72164 1278.6068 472.73958 1273.4434 467.57617 C 1272.6496 466.78245 1272 463.19566 1272 459.60547 C 1272 456.01529 1271.1324 451.48554 1270.0723 449.53906 C 1269.0122 447.59258 1267.7752 442.59112 1267.3223 438.42578 C 1266.8694 434.26045 1265.6357 430.13812 1264.582 429.26367 C 1263.5284 428.38922 1262.666 426.20888 1262.666 424.41992 C 1262.666 422.63097 1261.1274 417.91434 1259.2461 413.9375 C 1257.3647 409.96066 1255.306 405.04728 1254.6719 403.01953 C 1252.1951 395.09982 1245.2252 379.61686 1242.6797 376.38086 C 1241.2061 374.50738 1240 372.09176 1240 371.01367 C 1240 369.93559 1238.2 366.38673 1236 363.12695 C 1233.8 359.86719 1232 356.58761 1232 355.83984 C 1232 355.09206 1230.0505 351.67236 1227.668 348.24023 C 1225.2856 344.80812 1222.2477 339.59933 1220.918 336.66602 C 1219.5883 333.73268 1217.438 330.13266 1216.1387 328.66602 C 1214.8394 327.19935 1212.1647 323.1736 1210.1953 319.71875 C 1208.2259 316.2639 1205.8753 312.96325 1204.9707 312.38477 C 1204.0661 311.80629 1201.6794 308.93333 1199.668 306 C 1192.7035 295.84311 1142.9031 248.23169 1134.5684 243.76172 C 1132.2629 242.52526 1129.5073 240.27201 1128.4453 238.75586 C 1127.3834 237.23972 1125.6502 236 1124.5918 236 C 1123.5334 236 1122.666 235.39934 1122.666 234.66602 C 1122.666 233.93269 1121.7874 233.33398 1120.7129 233.33398 C 1119.6384 233.33398 1116.7877 231.61498 1114.3789 229.51367 C 1111.97 227.41236 1107.5128 224.43185 1104.4727 222.89062 C 1101.4325 221.34941 1098.1319 219.29479 1097.1387 218.32617 C 1096.1456 217.35755 1092.9334 215.46375 1090 214.11719 C 1087.0667 212.77064 1083.4667 210.63974 1082 209.38281 C 1080.5334 208.12587 1077.2327 206.28724 1074.666 205.29688 C 1072.0993 204.30651 1068.2 202.20666 1066 200.62891 C 1063.8 199.05114 1059.9006 196.94732 1057.334 195.95508 C 1054.7673 194.96284 1052.3667 193.74349 1052 193.24414 C 1050.7292 191.51347 1041.9902 186.67686 1040.125 186.67188 C 1039.0942 186.66914 1036.3269 185.19851 1033.9746 183.4043 C 1031.6223 181.6101 1027.9665 179.7289 1025.8496 179.22461 C 1023.7327 178.72033 1021.1 177.54257 1020 176.60547 C 1017.2686 174.27856 992.2004 162.66602 989.9082 162.66602 C 988.8938 162.66602 986.10032 161.46979 983.69922 160.00586 C 981.29822 158.54194 978.08429 157.34089 976.55859 157.33789 C 975.03281 157.33515 970.83416 155.83613 967.22656 154.00586 C 963.61898 152.1756 959.16728 150.67206 957.33398 150.66406 C 955.5007 150.65616 952.2 149.457 950 148 C 947.8 146.543 944.06803 145.3468 941.70703 145.3418 C 939.34603 145.33697 935.2773 144.13266 932.66602 142.66602 C 930.05472 141.19935 926.1172 140 923.91602 140 C 921.71472 140 917.75965 139.1 915.12695 138 C 912.49437 136.9 908.1346 136 905.4375 136 C 902.7404 136 899.95455 135.42138 899.24805 134.71484 C 898.54145 134.0083 894.37252 133.06194 889.98242 132.61133 C 885.59234 132.16073 880.80068 131.26298 879.33398 130.61523 C 872.16254 127.448 842.78095 126.18035 804.50586 126.43359 z M 613.99219 247.90039 C 619.38506 247.97628 624.45494 248.42508 628.81836 249.28516 C 643.46488 252.17212 653.08622 254.61022 660.66602 257.35547 C 671.34831 261.22438 691.41101 271.34798 694.97461 274.66797 C 696.5482 276.13399 698.25099 277.33398 698.75781 277.33398 C 701.0924 277.33398 723.94663 296.21064 731.76172 304.59375 C 734.45892 307.487 738.91602 312.11396 741.66602 314.875 C 744.416 317.63605 746.66602 320.49781 746.66602 321.23438 C 746.66602 321.97093 747.86733 323.21506 749.33398 324 C 750.80064 324.78494 752 326.30666 752 327.38086 C 752 328.45505 752.4725 329.33398 753.05078 329.33398 C 753.62907 329.33398 757.37972 334.46571 761.38477 340.73828 C 765.38979 347.01085 770.30529 354.66087 772.30859 357.73828 C 774.31192 360.81569 775.96321 364.10441 775.97656 365.04688 C 775.98986 365.98933 776.84263 368.08869 777.87305 369.71289 C 788.30373 386.15422 793.05222 429.46582 786.38281 447.33398 C 783.14896 455.99792 775.60408 471.10905 772.87695 474.38477 C 761.49693 488.05404 751.03156 497.21243 740 503.1543 C 737.43334 504.53677 735.03269 506.0419 734.66602 506.5 C 733.1467 508.39817 703.27778 518.66602 699.27539 518.66602 C 697.76718 518.66602 695.96425 519.23108 695.26758 519.92188 C 692.18925 522.97428 656.42761 525.30646 646 523.13477 C 621.37763 518.00677 613.05365 515.32315 600.6582 508.51953 C 589.14109 502.19801 562.66602 478.81036 562.66602 474.95703 C 562.66602 474.64226 561.316 472.72347 559.66602 470.69336 C 550.98255 460.0095 536.34306 427.00052 533.33984 411.33398 C 532.77753 408.40067 531.36476 402.10065 530.20117 397.33398 C 513.53942 329.07917 519.83084 288.52245 550.64453 265.53711 C 555.70963 261.75883 560.19248 258.66602 560.60742 258.66602 C 561.02236 258.66602 563.90499 257.51109 567.01367 256.09961 C 578.71925 250.78474 597.81356 247.67273 613.99219 247.90039 z M 329.50195 396.13086 C 334.64956 396.31686 340.82067 397.53757 352 399.9375 C 356.51447 400.90664 379.98224 411.53962 381.33398 413.22852 C 382.58928 414.79688 389.23796 418.66602 390.67773 418.66602 C 391.46887 418.66602 393.69992 420.13365 395.63477 421.92773 C 397.56959 423.72182 399.79303 424.82585 400.57617 424.38086 C 401.35932 423.93586 401.55314 424.06423 401.00781 424.66602 C 399.93521 425.84965 405.29203 430.20854 407.09961 429.62305 C 407.70412 429.42724 407.8361 429.85193 407.39453 430.56641 C 406.95296 431.28088 408.46443 433.24658 410.75195 434.93359 C 413.0395 436.62063 418.08784 441.71732 421.9707 446.26172 C 425.85359 450.80611 429.49497 454.10677 430.0625 453.5957 C 430.63004 453.08462 430.71304 453.33564 430.24609 454.1543 C 429.77915 454.97296 430.58187 456.71763 432.03125 458.0293 C 433.48062 459.34096 434.66602 461.19962 434.66602 462.16016 C 434.66602 463.1207 435.86733 464.54907 437.33398 465.33398 C 438.80064 466.11892 440 467.55242 440 468.51953 C 440 469.48665 441.43698 471.82751 443.19336 473.72266 C 444.94973 475.6178 446.10204 477.45265 445.75391 477.80078 C 445.40577 478.14892 448.11926 484.33701 451.7832 491.55078 C 490.48423 567.7473 465.18953 617.41441 386.66602 619.41406 C 373.09938 619.75954 356.89933 620.24401 350.66602 620.49023 C 344.07779 620.75048 340.7283 620.50685 342.66602 619.91016 C 344.81611 619.24811 341.9764 618.88083 334.66602 618.87305 C 328.43268 618.86605 321.53398 618.50961 319.33398 618.08203 C 317.134 617.65445 311.13331 616.43265 306 615.36719 C 300.86669 614.30174 294.866 613.20505 292.66602 612.92969 C 290.46602 612.65434 286.866 611.66889 284.66602 610.74023 C 282.46602 609.81159 279.16731 608.9103 277.33398 608.73633 C 271.82999 608.21402 268 606.59179 268 604.78125 C 268 603.84271 264.32052 601.14504 259.82227 598.78711 C 255.32399 596.42917 250.92753 593.78677 250.05273 592.91602 C 249.17794 592.04525 246.40673 589.52645 243.89648 587.31836 C 208.05264 555.78908 215.8574 478.93169 259.31445 435.47461 C 261.15846 433.6306 262.66602 431.7795 262.66602 431.36133 C 262.66602 430.94316 265.47825 428.06528 268.91406 424.9668 C 272.34989 421.8683 276.42896 418.13084 277.97852 416.66211 C 285.54553 409.48987 301.02777 401.50857 313.14453 398.5332 C 320.23017 396.79326 324.35436 395.94486 329.50195 396.13086 z M 1032.834 400.00781 C 1046.6436 400.01026 1060.1741 400.64196 1064.666 401.9043 C 1096.1988 410.76576 1113.1872 427.47022 1118.2793 454.61914 C 1121.5483 472.04759 1117.1535 497.61455 1107.9277 514.84766 C 1106.5002 517.51416 1105.334 520.30638 1105.334 521.05273 C 1105.334 521.7991 1103.1491 526.21733 1100.4805 530.87109 C 1097.8119 535.52487 1094.9559 540.53333 1094.1328 542 C 1053.6212 614.18368 959.23625 675.44465 907.33398 663.24219 C 905.86733 662.89737 901.066 661.96261 896.66602 661.16602 C 892.26602 660.36941 886.12234 658.58257 883.01367 657.19336 C 879.90499 655.80415 877.03097 654.66602 876.625 654.66602 C 876.21903 654.66602 872.62254 652.25649 868.63477 649.31055 C 837.45963 626.28013 837.1324 585.55367 867.64258 526 C 870.27245 520.86668 873.52457 514.45533 874.86914 511.75195 C 876.21371 509.0486 877.9175 506.46243 878.65625 506.00586 C 879.39499 505.54929 880 504.26926 880 503.16016 C 880 502.05105 880.74936 500.30733 881.66602 499.28516 C 885.7965 494.67927 886.66602 493.3197 886.66602 491.46875 C 886.66602 490.38108 887.29164 489.1044 888.05469 488.63281 C 889.27637 487.87777 894.10132 481.15188 898 474.76953 C 908.51474 457.55623 939.57642 423.48754 946.27734 421.81836 C 948.32514 421.30825 952.7 419.39349 956 417.56445 C 970.53731 409.5071 978.84929 406.50125 999.33398 401.89258 C 1004.9368 400.63203 1019.0244 400.00536 1032.834 400.00781 z M 671.90625 954.74414 C 675.29419 954.51605 678.53013 954.54275 681.60938 954.80664 C 734.983 959.3808 741.20889 1035.1662 673.33398 1088.6445 C 667.834 1092.978 663.03268 1096.9035 662.66602 1097.3672 C 658.42657 1102.7277 625.08151 1122.2071 611.20117 1127.4316 C 535.52226 1155.9172 520.29987 1071.0703 588.49219 1000.8574 C 594.08837 995.09548 598.66602 989.87115 598.66602 989.24805 C 598.66602 986.71575 626.85209 965.96142 628.31055 967.41992 C 628.64204 967.75132 632.75798 966.2875 637.45703 964.16602 C 650.21257 958.40729 661.74244 955.42842 671.90625 954.74414 z " />
    </g>
  </g>
</svg>
