<?xml version="1.0" encoding="UTF-8" standalone="no"?>
<!-- Created with Inkscape (http://www.inkscape.org/) -->

<svg
   version="1.1"
   id="svg1"
   width="1333.3333"
   height="1333.3333"
   viewBox="0 0 1333.3333 1333.3333"
   sodipodi:docname="findunfilled.svg"
   inkscape:version="1.3 (0e150ed6c4, 2023-07-21)"
   xmlns:inkscape="http://www.inkscape.org/namespaces/inkscape"
   xmlns:sodipodi="http://sodipodi.sourceforge.net/DTD/sodipodi-0.dtd"
   xmlns="http://www.w3.org/2000/svg"
   xmlns:svg="http://www.w3.org/2000/svg">
  <defs
     id="defs1" />
  <sodipodi:namedview
     id="namedview1"
     pagecolor="#ffffff"
     bordercolor="#000000"
     borderopacity="0.25"
     inkscape:showpageshadow="2"
     inkscape:pageopacity="0.0"
     inkscape:pagecheckerboard="0"
     inkscape:deskcolor="#d1d1d1"
     inkscape:zoom="0.89325005"
     inkscape:cx="666.10687"
     inkscape:cy="666.66663"
     inkscape:window-width="2560"
     inkscape:window-height="1369"
     inkscape:window-x="1912"
     inkscape:window-y="-8"
     inkscape:window-maximized="1"
     inkscape:current-layer="g2" />
  <g
     inkscape:groupmode="layer"
     inkscape:label="Image"
     id="g1">
    <g
       id="g2">
      <path
         id="path3"
         style="fill:#fdf8f1"
         d="M 523.02734 112.58594 C 499.33529 112.29653 478.04459 113.69017 464 117.03711 C 444.58258 121.66443 442.26609 122.41338 432.29883 127.27148 C 426.96278 129.87231 422.0851 132 421.46094 132 C 420.83679 132 419.70196 132.75116 418.93945 133.66992 C 418.17695 134.58868 413.75333 137.344 409.10938 139.79102 C 404.46542 142.23804 397.96601 145.97426 394.66602 148.09375 C 391.36602 150.21324 387.30361 152.54883 385.63672 153.28516 C 383.96982 154.02149 379.30801 156.73411 375.27734 159.3125 C 371.24667 161.89089 367.55856 164 367.08203 164 C 365.71071 164 320.84258 189.30001 317.24219 192.10352 C 315.45873 193.49223 307.38257 199.3048 299.29492 205.01953 C 291.20728 210.73427 283.35187 216.59338 281.83789 218.03906 C 280.32392 219.48474 276.46551 222.76732 273.26367 225.33398 C 252.67079 241.84171 226.30523 267.52996 223.99805 273.33398 C 221.83352 278.77912 215.21669 290.16099 211.98438 294 C 210.74949 295.46667 208.77896 299.1512 207.60547 302.1875 C 206.43198 305.22381 204.24225 309.7238 202.74023 312.1875 C 201.23822 314.6512 200.00886 317.75522 200.00586 319.08594 C 199.99678 323.49337 189.80962 347.02978 182.94922 358.49609 C 179.11251 364.9087 176.75622 370.58984 170.98242 387.33398 C 166.81212 399.42793 162.59155 414.37081 162.62695 416.91406 C 162.64928 418.51632 162.04374 421.46714 161.28125 423.47266 C 160.51875 425.47817 158.68643 433.16833 157.21094 440.56055 C 154.69395 453.17066 154.02133 458.02659 150.6875 487.66602 C 146.78672 522.34593 149.33885 564.39962 157.62695 602 C 159.88998 612.26666 162.18222 623.66732 162.7207 627.33398 C 164.35918 638.49085 174.29721 673.0196 180.94727 690.66602 C 189.17518 712.49939 214.11091 765.32993 217.44922 768 C 217.90766 768.36667 221.11444 773.67711 224.57617 779.80078 C 235.25685 798.69446 251.45454 823.478 257.38281 830 C 259.38253 832.2 265.2184 838.83082 270.35156 844.73633 C 289.15911 866.3737 320.4437 896 324.48633 896 C 325.39802 896 328.81203 897.67556 332.07227 899.72266 C 335.3325 901.76974 340.99935 904.56363 344.66602 905.93164 C 348.33267 907.29965 354.38604 910.12703 358.11719 912.21484 C 361.84832 914.30266 368.3413 916.64639 372.54688 917.42383 C 376.75245 918.20127 396.20042 924.13723 415.76367 930.61523 C 435.32692 937.09324 454.93399 943.45208 459.33398 944.74414 C 463.73398 946.0362 468.83268 947.86774 470.66602 948.81445 C 480.58594 953.93697 489.3013 954.92579 524.27539 954.90039 C 543.14506 954.8867 559.22456 954.48016 560.00781 953.99609 C 560.79106 953.51202 566.65922 952.28685 573.04883 951.27539 C 585.96798 949.23033 615.60609 942.41715 646 934.50391 C 656.99999 931.64 667.02266 929.30435 668.27148 929.31445 C 669.5203 929.32456 671.91901 928.76338 673.60352 928.06641 C 675.28801 927.36943 682.96602 924.88514 690.66602 922.54688 C 698.36601 920.20861 714.26667 915.15443 726 911.31445 C 788.87458 890.73743 807.70508 899.07252 882.66406 980.66602 C 888.0537 986.53267 895.63664 994.63268 899.51562 998.66602 C 903.39462 1002.6993 908.12466 1007.8 910.02539 1010 C 911.92611 1012.2 914.85599 1015.5006 916.53711 1017.334 C 918.21822 1019.1673 926.68518 1029.0673 935.35352 1039.334 C 956.62567 1064.5284 974.5075 1085.2552 978.61523 1089.4824 C 984.28067 1095.3126 990.13536 1101.9507 1017.8223 1133.9316 C 1032.4569 1150.836 1045.3837 1165.6324 1046.5488 1166.8125 C 1049.4234 1169.7242 1068.5332 1190.777 1077.4355 1200.8398 C 1087.823 1212.5817 1099.5681 1218.0799 1119.334 1220.4531 C 1127.1973 1221.3973 1129.8984 1221.3139 1138.5566 1219.8555 C 1197.2406 1209.9706 1202.6073 1133.5115 1148.2402 1081.8887 C 1088.3972 1025.0662 1057.2018 993.84593 1039.7695 973.33203 C 1036.3429 969.29973 1030.4466 962.69934 1026.666 958.66602 C 1020.1824 951.74911 1011.5891 941.2216 979.33398 900.67773 C 927.56742 835.60841 921.75288 806.40329 946.15039 734 C 959.6025 694.07884 966.27717 676.05208 973.30664 660.66602 C 1003.6183 594.32003 1009.371 534.98475 993.85938 448.66602 C 990.66103 430.86796 978.63473 386.60378 976.13086 383.41406 C 975.5203 382.63625 973.70267 378.10065 972.0918 373.33398 C 970.48093 368.56732 964.80615 355.66599 959.48047 344.66602 C 954.15477 333.66603 949.02003 322.71732 948.07031 320.33398 C 947.12058 317.95066 945.78139 316 945.09375 316 C 944.4061 316 944.18118 315.45195 944.5957 314.78125 C 945.01021 314.11055 944.84915 313.35925 944.23828 313.11328 C 943.62742 312.86731 940.23941 308.16601 936.70898 302.66602 C 928.51154 289.89532 917.65848 273.77779 915.31836 270.89844 C 873.35914 219.27014 850.30403 200.0004 814.66602 186.77148 C 812.09935 185.81874 804.30065 182.77952 797.33398 180.01953 C 779.93642 173.12712 739.55526 158.29924 721.33398 152.11133 C 694.37977 142.95773 660.49827 132 659.14844 132 C 658.21752 132 649.17754 129.663 639.06055 126.80664 C 608.66988 118.22634 562.5141 113.06829 523.02734 112.58594 z M 565.10742 211.6543 C 605.97576 211.53425 647.99715 218.27809 687.33398 232.33203 C 713.18168 241.56668 753.45743 260.5933 770.66602 271.69922 C 788.01036 282.89276 795.59531 288.21173 799.59375 291.98242 C 801.93731 294.1925 804.13423 296 804.47461 296 C 807.02191 296 855.64654 343.63132 867.08789 357.33398 C 872.29255 363.56731 876.90594 368.96731 877.33984 369.33398 C 879.92195 371.51599 897.33398 400.60288 897.33398 402.73438 C 897.33398 403.29411 899.13828 407.77387 901.34375 412.68945 C 922.66047 460.2004 922.94139 532.50079 902.02734 588.66602 C 899.56973 595.26601 897.12821 602.16667 896.60156 604 C 896.0749 605.83334 893.86791 611.23334 891.69727 616 C 881.88103 637.55609 875.28666 651.38679 874.53516 652 C 874.0858 652.36667 871.60031 656.67811 869.01172 661.58008 C 866.42313 666.48204 863.03713 672.27327 861.48633 674.45117 C 859.93552 676.62907 858.66602 678.79397 858.66602 679.26172 C 858.66602 679.72947 858.04731 680.83694 857.29102 681.72266 C 856.53472 682.60838 852.09197 689.41395 847.41797 696.8457 C 821.63338 737.84367 776.68797 782.35372 746.38867 796.89648 C 679.78429 828.86459 620.11902 837.48974 494 833.38086 C 462.57551 832.35707 452.74771 830.9673 436.66602 825.27539 C 428.15563 822.26324 408.96642 812.24253 408.22266 810.42188 C 407.97821 809.82351 406.92756 809.33398 405.88867 809.33398 C 404.84979 809.33398 404 808.73333 404 808 C 404 807.26667 403.1 806.66602 402 806.66602 C 400.9 806.66602 400 806.16613 400 805.55469 C 400 804.94325 396.56471 802.0926 392.36719 799.2207 C 380.00693 790.76398 354.48483 768.85469 338.79102 753.22852 C 294.81579 709.44281 268.32799 646.58029 262.70703 572.66016 C 261.9824 563.13076 260.75356 547.53332 259.97656 538 C 254.42735 469.91524 254.9977 456.65559 264.64648 429.33398 C 269.09225 416.74529 276.17326 401.33398 277.51172 401.33398 C 278.14687 401.33398 278.66602 400.66639 278.66602 399.85156 C 278.66602 395.66844 315.50828 341.36929 323.1543 334.2832 C 325.08584 332.4931 326.66602 330.39647 326.66602 329.625 C 326.66602 328.85354 327.17319 328.02178 327.79297 327.77734 C 328.41274 327.53289 333.449 321.93398 338.98438 315.33398 C 355.49382 295.64924 364.52678 286.83198 388.13477 267.36133 C 432.08102 231.11672 496.99352 211.85438 565.10742 211.6543 z " />
    </g>
  </g>
</svg>
