<?xml version="1.0" encoding="UTF-8" standalone="no"?>
<!-- Created with Inkscape (http://www.inkscape.org/) -->

<svg
   version="1.1"
   id="svg1"
   width="1333.3333"
   height="1333.3333"
   viewBox="0 0 1333.3333 1333.3333"
   sodipodi:docname="findfilled.svg"
   inkscape:version="1.3 (0e150ed6c4, 2023-07-21)"
   xmlns:inkscape="http://www.inkscape.org/namespaces/inkscape"
   xmlns:sodipodi="http://sodipodi.sourceforge.net/DTD/sodipodi-0.dtd"
   xmlns="http://www.w3.org/2000/svg"
   xmlns:svg="http://www.w3.org/2000/svg">
  <defs
     id="defs1" />
  <sodipodi:namedview
     id="namedview1"
     pagecolor="#ffffff"
     bordercolor="#000000"
     borderopacity="0.25"
     inkscape:showpageshadow="2"
     inkscape:pageopacity="0.0"
     inkscape:pagecheckerboard="0"
     inkscape:deskcolor="#d1d1d1"
     inkscape:zoom="0.89325005"
     inkscape:cx="666.10687"
     inkscape:cy="666.66663"
     inkscape:window-width="2560"
     inkscape:window-height="1369"
     inkscape:window-x="1912"
     inkscape:window-y="-8"
     inkscape:window-maximized="1"
     inkscape:current-layer="g1" />
  <g
     inkscape:groupmode="layer"
     inkscape:label="Image"
     id="g1">
    <g
       id="g2">
      <path
         style="fill:#fdf8f1"
         d="m 1119.3333,1220.4534 c -19.7659,-2.3732 -31.5104,-7.8709 -41.8979,-19.6128 -8.9024,-10.0629 -28.0125,-31.1166 -30.8871,-34.0283 -1.1651,-1.1801 -14.0921,-15.9765 -28.7267,-32.8809 -27.68693,-31.981 -33.54116,-38.6179 -39.2066,-44.4481 -4.10774,-4.2272 -21.9886,-24.9556 -43.26078,-50.15 -8.66834,-10.2667 -17.13608,-20.1667 -18.81719,-22 -1.68112,-1.8334 -4.61171,-5.1334 -6.51243,-7.3334 -1.90073,-2.2 -6.62958,-7.3 -10.50858,-11.33329 -3.87899,-4.03334 -11.46241,-12.13334 -16.85205,-18 -74.95906,-81.59358 -93.78937,-89.92942 -156.66401,-69.35238 -11.73334,3.83998 -27.63334,8.89492 -35.33334,11.23319 -7.7,2.33827 -15.37823,4.82165 -17.06273,5.51863 -1.68451,0.69697 -4.08451,1.25896 -5.33333,1.24885 -1.24883,-0.0101 -11.2706,2.32482 -22.2706,5.18873 -30.39394,7.91325 -60.03165,14.72739 -72.95081,16.77245 -6.38961,1.01146 -12.25831,2.23508 -13.04156,2.71915 -0.78325,0.48407 -16.86293,0.89134 -35.73262,0.90503 -34.97413,0.0254 -43.6884,-0.96401 -53.60833,-6.08653 -1.83334,-0.94671 -6.93333,-2.77843 -11.33333,-4.07049 -4.4,-1.29206 -24.00632,-7.64938 -43.56959,-14.12739 -19.56327,-6.47801 -39.01051,-12.41429 -43.21609,-13.19173 -4.20558,-0.77744 -10.69927,-3.12175 -14.43041,-5.20957 -3.73115,-2.08782 -9.78391,-4.91532 -13.45057,-6.28333 -3.66667,-1.36801 -9.33414,-4.16219 -12.59438,-6.20928 -3.26024,-2.0471 -6.67363,-3.72199 -7.58532,-3.72199 -4.04263,0 -35.3285,-29.62531 -54.13607,-51.2627 -5.13317,-5.90551 -10.96918,-12.5373 -12.9689,-14.7373 -5.92828,-6.52201 -22.1242,-31.30567 -32.80489,-50.19937 -3.46174,-6.12368 -6.66915,-11.43396 -7.12759,-11.80063 -3.33831,-2.67007 -28.27529,-55.49993 -36.50321,-77.33333 -6.65006,-17.64643 -16.58653,-52.17644 -18.22501,-63.33332 -0.53848,-3.66667 -2.83063,-15.06667 -5.09366,-25.33334 -8.28811,-37.60042 -10.84067,-79.65337 -6.93989,-114.33332 3.33383,-29.63946 4.0065,-34.49693 6.52349,-47.10706 1.47549,-7.39222 3.30658,-15.08128 4.06908,-17.0868 0.76249,-2.00552 1.36808,-4.95734 1.34575,-6.5596 -0.0354,-2.54326 4.18567,-17.48591 8.35598,-29.57987 5.7738,-16.74416 8.13123,-22.42443 11.96794,-28.83704 6.86041,-11.46633 17.04592,-35.00269 17.055,-39.41013 0.003,-1.33072 1.23391,-4.43524 2.73593,-6.89894 1.50202,-2.4637 3.69107,-6.96369 4.86456,-10 1.17349,-3.0363 3.14397,-6.72055 4.37886,-8.18722 3.23232,-3.83901 9.84893,-15.22152 12.01346,-20.66666 2.30719,-5.80403 28.67276,-31.49226 49.26566,-48 3.20184,-2.56667 7.06023,-5.84949 8.5742,-7.29517 1.51398,-1.44568 9.36986,-7.3042 17.45751,-13.01894 8.08766,-5.71474 16.16402,-11.52665 17.94748,-12.91537 3.6004,-2.80351 48.46784,-28.10385 49.83916,-28.10385 0.47653,0 4.16424,-2.1096 8.19492,-4.68799 4.03067,-2.57839 8.69232,-5.29044 10.35922,-6.02677 1.66689,-0.73633 5.73071,-3.07291 9.03071,-5.1924 3.3,-2.11949 9.7996,-5.85573 14.44356,-8.30276 4.64396,-2.44702 9.06742,-5.20085 9.82992,-6.11961 0.76251,-0.91876 1.89705,-1.67047 2.5212,-1.67047 0.62416,0 5.50069,-2.12795 10.83674,-4.72878 9.96727,-4.85811 12.28447,-5.60611 31.70191,-10.23344 37.45227,-8.92517 126.43611,-3.95966 175.06122,9.76883 10.117,2.85636 19.15621,5.19339 20.08713,5.19339 1.34983,0 35.23073,10.95717 62.18497,20.11078 18.22129,6.18792 58.60241,21.0171 75.99999,27.90952 6.96667,2.75999 14.76667,5.79769 17.33334,6.75044 35.63805,13.22893 58.69294,32.49864 100.6522,84.12699 2.34012,2.87936 13.19333,18.99822 21.39078,31.76893 3.53043,5.5 6.91876,10.20124 7.52962,10.44721 0.61087,0.24597 0.77152,0.99597 0.35701,1.66667 -0.41452,0.6707 -0.19105,1.21945 0.4966,1.21945 0.68764,0 2.0273,1.95 2.97703,4.33333 0.94972,2.38334 6.08415,13.33334 11.40985,24.33334 5.32569,10.99999 11.00107,23.89999 12.61194,28.66666 1.61087,4.76667 3.42841,9.30306 4.03897,10.08087 2.50387,3.18972 14.53024,47.45439 17.72859,65.25246 15.51169,86.31882 9.75949,145.65394 -20.55216,211.99999 -7.02948,15.38608 -13.70495,33.41213 -27.15707,73.33333 -24.39754,72.40336 -18.58333,101.60769 33.18329,166.67708 32.25513,40.54391 40.84893,51.07266 47.33253,57.98957 3.7806,4.03333 9.6774,10.63249 13.104,14.6648 17.4323,20.51392 48.6278,51.73409 108.4709,108.55659 54.3671,51.6229 49.0007,128.0821 -9.6833,137.967 -8.6582,1.4584 -11.3608,1.5426 -19.2241,0.5984 z"
         id="path3" />
      <path
         style="fill:#c9f1f5"
         d="m 493.99997,833.38071 c -31.42452,-1.02379 -41.25162,-2.413 -57.33333,-8.10492 -8.51039,-3.01215 -27.70068,-13.0339 -28.44444,-14.85456 -0.24445,-0.59837 -1.29445,-1.08795 -2.33334,-1.08795 -1.03888,0 -1.88888,-0.6 -1.88888,-1.33333 0,-0.73333 -0.9,-1.33333 -2,-1.33333 -1.1,0 -2,-0.50027 -2,-1.11171 0,-0.61144 -3.43434,-3.46144 -7.63187,-6.33334 C 380.00784,790.76484 354.4854,768.8552 338.79157,753.22901 294.8163,709.44326 268.3283,646.5797 262.70734,572.65949 c -0.72463,-9.52941 -1.95324,-25.12619 -2.73024,-34.65952 -5.54922,-68.08483 -4.97944,-81.34503 4.66935,-108.66666 4.44577,-12.58871 11.52692,-28 12.86538,-28 0.63515,0 1.15482,-0.66667 1.15482,-1.4815 0,-4.18313 36.84207,-58.48347 44.48809,-65.56956 1.93155,-1.7901 3.51191,-3.88592 3.51191,-4.65739 0,-0.77146 0.50708,-1.60266 1.12686,-1.8471 0.61977,-0.24445 5.65579,-5.84445 11.19117,-12.44445 16.50946,-19.68476 25.54202,-28.5007 49.15003,-47.97137 70.31407,-57.99143 194.30024,-72.50797 299.19858,-35.03076 25.84772,9.23466 66.12473,28.26225 83.33333,39.36818 17.34436,11.19355 24.92925,16.5116 28.92769,20.2823 2.34356,2.21008 4.53952,4.01832 4.8799,4.01832 2.5473,0 51.17202,47.63065 62.61338,61.33333 5.20466,6.23333 9.81803,11.63333 10.25193,12 2.58211,2.18201 19.99376,31.26887 19.99376,33.40037 0,0.55974 1.80448,5.03956 4.00995,9.95515 21.31674,47.51099 21.59755,119.81252 0.68348,175.9778 -2.45762,6.6 -4.8993,13.5 -5.42595,15.33333 -0.52666,1.83334 -2.73354,7.23334 -4.90419,12 -9.81625,21.55611 -16.40911,35.38679 -17.16061,36 -0.44936,0.36667 -2.93495,4.67737 -5.52354,9.57934 -2.58859,4.90197 -5.97536,10.69459 -7.52616,12.87249 -1.55081,2.1779 -2.81965,4.34252 -2.81965,4.81027 0,0.46775 -0.61878,1.57512 -1.37508,2.46084 -0.7563,0.88572 -5.19928,7.69093 -9.87329,15.12269 -25.78461,40.99801 -70.73,85.50812 -101.02933,100.0509 -66.60445,31.96814 -126.26979,40.5931 -252.38894,36.48422 z"
         id="path2" />
    </g>
  </g>
</svg>
