<?xml version="1.0" encoding="UTF-8" standalone="no"?>
<!-- Created with Inkscape (http://www.inkscape.org/) -->

<svg
   version="1.1"
   id="svg1"
   width="1333.3333"
   height="1333.3333"
   viewBox="0 0 1333.3333 1333.3333"
   sodipodi:docname="mefilled.svg"
   inkscape:version="1.3 (0e150ed6c4, 2023-07-21)"
   xmlns:inkscape="http://www.inkscape.org/namespaces/inkscape"
   xmlns:sodipodi="http://sodipodi.sourceforge.net/DTD/sodipodi-0.dtd"
   xmlns="http://www.w3.org/2000/svg"
   xmlns:svg="http://www.w3.org/2000/svg">
  <defs
     id="defs1" />
  <sodipodi:namedview
     id="namedview1"
     pagecolor="#ffffff"
     bordercolor="#000000"
     borderopacity="0.25"
     inkscape:showpageshadow="2"
     inkscape:pageopacity="0.0"
     inkscape:pagecheckerboard="0"
     inkscape:deskcolor="#d1d1d1"
     inkscape:zoom="0.89325005"
     inkscape:cx="573.18777"
     inkscape:cy="667.78614"
     inkscape:window-width="2560"
     inkscape:window-height="1369"
     inkscape:window-x="1912"
     inkscape:window-y="-8"
     inkscape:window-maximized="1"
     inkscape:current-layer="g8" />
  <g
     inkscape:groupmode="layer"
     inkscape:label="Image"
     id="g1">
    <g
       id="g8">
      <path
         style="fill:#fcf8f1"
         d="m 519.99997,1243.289 c -95.98353,-11.6567 -189.84614,-41.1088 -277.11708,-81.9003 -42.95993,-34.206 -31.99412,-97.7904 -23.79187,-145.3462 23.0041,-95.56668 65.97907,-192.44414 145.85732,-253.7322 48.31102,-25.194 96.71338,16.33537 144.1933,25.08816 59.59911,25.82777 123.44604,42.97135 188.96559,37.24887 71.39026,1.77279 147.57269,-7.38387 202.981,-57.12473 39.32589,-48.42336 99.24107,-34.12313 122.60567,20.20745 41.5466,65.55308 82.2181,134.69296 96.8305,212.04229 10.5515,57.64456 -25.6361,106.34896 -69.3911,138.85666 -58.6917,60.8006 -147.80005,61.1654 -224.46668,81.2942 -101.05306,16.459 -204.11403,29.8376 -306.66665,23.3658 z M 666.66663,781.67907 C 616.95995,774.33889 565.28208,770.03264 518.35766,751.2499 452.09466,711.30473 403.46852,649.16679 366.73689,582.01269 334.16071,531.22479 304.58969,474.08593 314.02619,411.59257 325.034,301.46196 381.25666,184.68565 487.42608,138.55187 c 38.0696,-22.7792 77.19727,-46.376757 123.24055,-45.923278 50.03998,-9.510034 99.83244,8.496238 148.00783,16.908748 67.08476,28.75779 142.44042,52.58808 189.34158,111.91547 31.0087,53.55458 79.30976,104.52781 72.26266,171.26632 2.6274,119.98752 -50.74785,240.67279 -146.59656,314.41183 -37.74917,32.12445 -82.15359,57.7006 -129.66446,71.84434 -25.51117,4.44304 -51.58773,3.64179 -77.35105,2.70377 z"
         id="path9" />
      <path
         style="fill:#f9c0d4"
         d="m 540.66663,1172.4197 c -79.08888,-8.0151 -156.01888,-31.916 -228.60218,-63.0771 -28.03423,-39.0604 -4.40137,-92.2561 7.5549,-133.8547 18.18075,-48.18466 38.78933,-100.09322 79.45177,-133.43307 43.48831,-14.25945 82.3423,21.79256 122.82806,32.45345 40.78874,15.49936 85.45661,17.98132 128.5366,23.42596 54.21209,3.22358 108.40629,-3.71402 162.12948,-9.7703 46.63223,-13.35598 81.48946,-49.34076 125.10491,-68.15901 35.54505,27.4115 45.39725,77.35107 69.20113,114.39658 21.7797,37.97399 35.8985,88.62809 2.972,124.97499 -23.3252,36.4436 -55.85177,72.2706 -101.64066,76.7087 -99.98608,15.327 -200.40065,30.1305 -301.4165,36.521 -22.02869,0.4812 -44.10691,1.0761 -66.11951,-0.1865 z M 625.1512,693.3578 C 548.03393,685.28149 484.12286,629.90367 442.64323,567.39272 397.75253,498.08606 377.97824,409.62391 399.81801,328.99626 428.6218,252.74299 503.77032,207.14976 579.13747,186.3005 c 53.31687,-18.97184 113.81336,-19.61479 164.86248,6.36818 58.17292,23.88615 102.99491,69.9349 149.24995,110.88686 31.72306,38.14939 32.9318,91.86971 36.72218,139.19741 -5.04588,59.31967 -33.95654,112.74303 -71.09169,157.97718 -25.95695,52.90646 -83.45448,76.96386 -138.4846,85.93024 -31.25106,7.64378 -63.23028,9.16575 -95.24459,6.69743 z"
         id="path8" />
    </g>
  </g>
</svg>
