<?xml version="1.0" encoding="UTF-8" standalone="no"?>
<!-- Created with Inkscape (http://www.inkscape.org/) -->

<svg
   version="1.1"
   id="svg1"
   width="1333.3333"
   height="1333.3333"
   viewBox="0 0 1333.3333 1333.3333"
   sodipodi:docname="meunfilled.svg"
   inkscape:version="1.3 (0e150ed6c4, 2023-07-21)"
   xmlns:inkscape="http://www.inkscape.org/namespaces/inkscape"
   xmlns:sodipodi="http://sodipodi.sourceforge.net/DTD/sodipodi-0.dtd"
   xmlns="http://www.w3.org/2000/svg"
   xmlns:svg="http://www.w3.org/2000/svg">
  <defs
     id="defs1" />
  <sodipodi:namedview
     id="namedview1"
     pagecolor="#ffffff"
     bordercolor="#000000"
     borderopacity="0.25"
     inkscape:showpageshadow="2"
     inkscape:pageopacity="0.0"
     inkscape:pagecheckerboard="0"
     inkscape:deskcolor="#d1d1d1"
     inkscape:zoom="0.89325005"
     inkscape:cx="573.18777"
     inkscape:cy="667.78614"
     inkscape:window-width="2560"
     inkscape:window-height="1369"
     inkscape:window-x="1912"
     inkscape:window-y="-8"
     inkscape:window-maximized="1"
     inkscape:current-layer="g8" />
  <g
     inkscape:groupmode="layer"
     inkscape:label="Image"
     id="g1">
    <g
       id="g8">
      <path
         id="path9"
         style="fill:#fcf8f1"
         d="M 648.12891 90.076172 C 635.67126 89.593987 623.176 90.2514 610.66602 92.628906 C 564.62278 92.175428 525.49534 115.77356 487.42578 138.55273 C 381.25647 184.68647 325.03319 301.4613 314.02539 411.5918 C 304.5889 474.08509 334.16018 531.22387 366.73633 582.01172 C 403.46792 649.16575 452.09449 711.30487 518.35742 751.25 C 565.28179 770.03272 616.95939 774.33951 666.66602 781.67969 C 692.42931 782.61771 718.50643 783.41764 744.01758 778.97461 C 791.5284 764.83088 835.93251 739.25528 873.68164 707.13086 C 969.53025 633.39189 1022.9067 512.70615 1020.2793 392.71875 C 1027.3264 325.98031 979.02429 275.00765 948.01562 221.45312 C 901.11451 162.12579 825.75852 138.29487 758.67383 109.53711 C 722.54232 103.22773 685.50184 91.522725 648.12891 90.076172 z M 662.41992 172.62695 C 690.58976 173.34261 718.47547 179.6765 744 192.66797 C 802.17286 216.55409 846.99501 262.60277 893.25 303.55469 C 924.97303 341.70404 926.18228 395.42625 929.97266 442.75391 C 924.92678 502.07352 896.01597 555.49636 858.88086 600.73047 C 832.92394 653.63688 775.42655 677.69379 720.39648 686.66016 C 689.14546 694.30393 657.16467 695.82574 625.15039 693.35742 C 548.0332 685.28112 484.12217 629.90347 442.64258 567.39258 C 397.75192 498.08599 377.97861 409.62366 399.81836 328.99609 C 428.62212 252.7429 503.76964 207.15002 579.13672 186.30078 C 605.79513 176.81487 634.25008 171.9113 662.41992 172.62695 z M 959.74219 738.08398 C 939.4402 737.15817 918.29295 746.33824 901.08789 767.52344 C 845.67964 817.26425 769.49761 826.41927 698.10742 824.64648 C 632.58794 830.36896 568.74163 813.22618 509.14258 787.39844 C 461.66271 778.64566 413.26019 737.11657 364.94922 762.31055 C 285.07105 823.59855 242.09587 920.47638 219.0918 1016.043 C 210.88956 1063.5987 199.92293 1127.1827 242.88281 1161.3887 C 330.15367 1202.1801 424.01657 1231.6324 520 1243.2891 C 622.55252 1249.7609 725.61306 1236.3828 826.66602 1219.9238 C 903.33257 1199.795 992.44117 1199.4294 1051.1328 1138.6289 C 1094.8878 1106.1212 1131.0749 1057.416 1120.5234 999.77148 C 1105.9111 922.42223 1065.2399 853.28348 1023.6934 787.73047 C 1010.5508 757.16955 985.84474 739.27432 959.74219 738.08398 z M 937.66992 820.00586 C 973.21494 847.41733 983.06724 897.35687 1006.8711 934.40234 C 1028.6508 972.3763 1042.7702 1023.0301 1009.8438 1059.377 C 986.51857 1095.8205 953.99197 1131.6478 908.20312 1136.0859 C 808.21714 1151.4129 707.80286 1166.215 606.78711 1172.6055 C 584.75844 1173.0867 562.67859 1173.6825 540.66602 1172.4199 C 461.57721 1164.4048 384.64768 1140.5029 312.06445 1109.3418 C 284.03025 1070.2814 307.66288 1017.0868 319.61914 975.48828 C 337.79987 927.30367 358.40791 875.3945 399.07031 842.05469 C 442.55858 827.79525 481.41272 863.84693 521.89844 874.50781 C 562.68714 890.00716 607.3556 892.48896 650.43555 897.93359 C 704.64758 901.15717 758.84132 894.22034 812.56445 888.16406 C 859.19664 874.8081 894.05452 838.82409 937.66992 820.00586 z " />
    </g>
  </g>
</svg>
