<?xml version="1.0" encoding="UTF-8" standalone="no"?>
<!-- Created with Inkscape (http://www.inkscape.org/) -->

<svg
   version="1.1"
   id="svg1"
   width="1333.3333"
   height="1333.3333"
   viewBox="0 0 1333.3333 1333.3333"
   sodipodi:docname="palsunfilled.svg"
   inkscape:version="1.3 (0e150ed6c4, 2023-07-21)"
   xmlns:inkscape="http://www.inkscape.org/namespaces/inkscape"
   xmlns:sodipodi="http://sodipodi.sourceforge.net/DTD/sodipodi-0.dtd"
   xmlns="http://www.w3.org/2000/svg"
   xmlns:svg="http://www.w3.org/2000/svg">
  <defs
     id="defs1" />
  <sodipodi:namedview
     id="namedview1"
     pagecolor="#ffffff"
     bordercolor="#000000"
     borderopacity="0.25"
     inkscape:showpageshadow="2"
     inkscape:pageopacity="0.0"
     inkscape:pagecheckerboard="0"
     inkscape:deskcolor="#d1d1d1"
     inkscape:zoom="0.89325005"
     inkscape:cx="709.76766"
     inkscape:cy="670.02515"
     inkscape:window-width="2560"
     inkscape:window-height="1369"
     inkscape:window-x="1912"
     inkscape:window-y="-8"
     inkscape:window-maximized="1"
     inkscape:current-layer="g1" />
  <g
     inkscape:groupmode="layer"
     inkscape:label="Image"
     id="g1">
    <path
       id="path9"
       style="fill:#fcf8f1"
       d="M 630.75977 130.65039 C 604.97019 131.25099 581.72755 140.19849 550.42773 160.98047 C 537.48684 169.57277 505.33398 205.03945 505.33398 210.7207 C 505.33398 211.42445 504.85831 212 504.27734 212 C 502.14945 212 484.63115 244.34661 478.63477 259.34766 C 465.33207 292.6267 457.96673 335.8697 462.12305 356.29492 C 465.39629 372.38062 480.77212 402.89876 508.27734 447.91016 C 510.99603 452.35918 512.97515 456 512.67578 456 C 512.37642 456 502.35108 451.24539 490.39844 445.43359 C 457.78766 429.5771 440.15244 422.69195 432.43945 422.80469 C 428.89749 422.85646 423.35855 421.93983 420.13086 420.76953 C 416.90316 419.59924 410.90445 418.30565 406.79883 417.89453 C 402.69319 417.4834 396.9126 416.289 393.95508 415.24023 C 383.50064 411.53297 351.48582 413.13975 325.33398 418.68359 C 310.68127 421.78978 307.47717 423.15965 292.80859 432.58789 C 286.86371 436.40898 273.60062 444.21469 263.33398 449.93555 C 228.61897 469.27968 205.45351 493.57352 185.05469 532.02734 C 155.31597 588.08787 147.10645 666.76613 166.90234 706 C 176.19516 724.41762 187.3797 745.03668 190.89844 750.24023 C 192.97135 753.30569 194.66602 756.13782 194.66602 756.5332 C 194.66602 759.48488 223.45387 803.92511 233.10547 815.87305 C 239.3626 823.61889 250.90137 835.18348 260 842.82812 C 264.03334 846.21691 270.63269 851.81121 274.66602 855.25977 C 289.71228 868.12456 303.15912 873.46254 332 878.02344 C 339.69998 879.24111 348.99935 881.04764 352.66602 882.03711 C 377.23279 888.66659 431.2072 889.47743 445.33398 883.42969 C 450.10064 881.38906 456.40066 878.74785 459.33398 877.55859 C 462.26731 876.36933 468.67133 872.83105 473.56641 869.69727 C 484.34937 862.79408 504.61516 868.37276 525.21875 883.91406 L 528.24414 886.19531 L 519.78906 891.68359 C 490.8689 910.45844 467.62244 915.11974 399.33398 915.83789 C 359.21062 916.25985 340.23273 912.56822 300.4082 896.58789 C 290.53148 892.62467 277.84853 887.90032 272.22461 886.08984 C 259.80551 882.09187 244.75657 876.60072 239.33398 874.08984 C 217.74346 864.09253 199.5559 864.87136 185.67969 876.38672 C 118.75424 931.92563 70.899273 1071.5133 97.873047 1132.5059 C 104.0284 1146.4241 111.34704 1150.6166 161.33398 1168.8574 C 170.50065 1172.2024 179.8 1175.7043 182 1176.6406 C 207.44537 1187.4698 264.13925 1200.3564 304.66602 1204.5215 C 314.12019 1205.4931 361.62714 1204.2901 374 1202.7656 C 380.59998 1201.9524 404.00005 1199.1842 426 1196.6152 C 476.11148 1190.7634 477.81367 1190.4694 526 1179.2871 C 534.06664 1177.4151 543.36602 1175.3684 546.66602 1174.7402 C 594.88591 1165.5596 614.60104 1155.3394 648.77148 1121.8047 C 696.76358 1074.7055 697.51178 1048.1222 653.69727 946.78516 C 653.10898 945.42453 653.59089 945.10854 655.44141 945.63867 C 656.84842 946.04176 660.85067 947.03677 664.33398 947.85156 C 667.81732 948.66636 673.51667 950.03221 677 950.88672 C 685.23085 952.90587 701.86416 954.55855 722.66602 955.42383 L 739.33398 956.11719 L 749.33398 951.27539 C 754.83398 948.61162 761.0637 945.56586 763.17969 944.50781 C 768.51043 941.84232 768.6253 940.95371 760.49023 965.35352 C 744.60402 1013.0017 741.36372 1027.0262 740.1582 1053.334 C 737.81339 1104.5046 746.71799 1130.2606 771.79688 1144.8398 C 777.8529 1148.3604 787.71285 1154.5744 805.44141 1166.0449 C 825.61834 1179.0996 847.00892 1187.4779 873.33398 1192.6387 C 879.56731 1193.8606 887.27507 1195.4397 890.46289 1196.1484 C 908.48758 1200.1549 966.56705 1200.1053 992.62891 1196.0605 C 997.04931 1195.3745 1008.4667 1193.8308 1018 1192.6309 C 1067.2128 1186.4366 1073.1243 1185.4287 1100.666 1178.5332 C 1106.5327 1177.0644 1116.1334 1174.6682 1122 1173.207 C 1158.5582 1164.102 1173.1009 1157.1625 1189.1816 1141.1504 C 1195.5486 1134.8107 1200.6656 1128.4288 1220.459 1102.1406 C 1259.3954 1050.4278 1249.0751 946.75024 1197.8125 874.62891 C 1179.8703 849.38606 1176.9553 846.43694 1168.4102 844.875 C 1160.5883 843.44528 1151.2204 847.641 1129.7441 862.19336 C 1088.9584 889.82995 1082.6143 890.96873 991.33398 887.00977 C 947.56391 885.11138 952.27164 885.94235 904 871.60352 C 897.76669 869.75193 889.066 867.48858 884.66602 866.57422 C 872.40648 864.02657 872.42226 863.91779 886.85352 851.74609 L 895.70898 844.27734 L 904.42773 846.69531 C 911.41396 848.63254 920.51296 849.28545 950.23828 849.98633 C 976.21219 850.59875 992.1305 851.61581 1003.334 853.37695 C 1027.3929 857.15893 1036.9342 857.67166 1043.2324 855.52148 C 1046.2215 854.50103 1051.9667 852.59678 1056 851.29102 C 1060.0334 849.98524 1064.8327 847.92407 1066.666 846.70898 C 1068.4993 845.49391 1073.8993 842.84419 1078.666 840.82227 C 1091.4402 835.40365 1092.1996 834.98163 1103.791 826.82617 C 1148.3323 795.48779 1168.8571 774.10896 1183.9688 743.3125 C 1217.6859 674.59928 1221.4242 597.56737 1193.3496 550 C 1189.887 544.13335 1183.9529 533.63267 1180.1621 526.66602 C 1163.39 495.84265 1159.5919 490.68564 1141.873 474.66602 C 1133.7851 467.35357 1119.8553 457.52698 1109.9102 452.11719 C 1107.0262 450.54841 1102.5667 447.97542 1100 446.40039 C 1093.9841 442.70873 1065.1504 426.66602 1064.5312 426.66602 C 1063.8918 426.66602 1043.9187 417.56632 1041.0176 415.95312 C 1039.7442 415.24507 1036.0148 414.66602 1032.7305 414.66602 C 1029.4462 414.66602 1024.1892 413.81881 1021.0469 412.7832 C 1013.4167 410.26853 980.1969 403.72005 978.95703 404.48633 C 978.41793 404.81951 970.78185 405.77237 961.98828 406.60156 C 953.19471 407.43075 944.49933 408.6191 942.66602 409.24414 C 940.83269 409.86919 935.73398 411.14781 931.33398 412.08398 C 923.81229 413.68437 913.83702 418.15703 909.33398 421.94922 C 907.53586 423.46351 888.3707 436.63461 884.39062 439.0918 C 883.50606 439.63792 886.09412 433.0151 890.14062 424.375 C 899.79007 403.77155 900.67064 401.74566 903.05859 394.66602 C 921.22191 340.81713 914.74093 270.59018 887.98438 231.33398 C 884.48556 226.20067 876.55036 214.19934 870.35156 204.66602 C 863.70701 194.44715 856.7333 185.41724 853.35938 182.66602 C 850.21179 180.09935 846.96686 177.3674 846.15039 176.59375 C 823.38694 155.02409 768.61708 137.42442 722 136.70117 C 708.06668 136.485 693.066 135.65083 688.66602 134.8457 C 684.26602 134.04057 675.266 133.03312 668.66602 132.60742 C 662.06602 132.18173 650.06665 131.40962 642 130.89258 C 638.18088 130.64779 634.44398 130.56459 630.75977 130.65039 z M 687.34375 178.27539 C 710.87459 178.62195 734.13519 184.68546 755.54297 193.01562 C 784.88648 205.84034 811.43692 224.4103 835.83594 244.84961 C 857.46199 267.3292 858.90439 301.48222 859.42969 331.01172 C 854.79498 379.46674 824.29021 419.43007 796.39648 457.29297 C 770.64153 484.70665 730.94385 490.5911 695.50195 496.01367 C 685.87447 496.58519 676.17483 497.67631 666.54102 496.76172 C 632.08802 493.53125 600.72925 476.25385 576.68164 451.77539 C 545.52644 422.66873 524.13719 383.26551 514.94141 341.85352 C 510.08553 306.85118 508.42065 267.30797 533.10156 238.80469 C 564.52781 192.44722 624.5234 179.30639 677.24805 178.48633 C 680.61609 178.29248 683.9822 178.22588 687.34375 178.27539 z M 986.20312 461.73438 C 997.71866 461.77396 1009.1823 463.75217 1019.8867 468 C 1037.1862 476.55033 1056.1215 484.31385 1070.666 497.50977 C 1090.6151 512.64668 1107.7179 532.29254 1125.832 549.92578 C 1140.8673 564.61297 1153.5615 582.61783 1156.1465 604.01953 C 1160.6451 625.20717 1158.9891 647.29661 1157.6875 668.78711 C 1151.2734 699.28716 1135.5763 727.73787 1112.3242 748.60547 C 1100.3487 763.77954 1086.5462 778.77791 1067.3203 784.17578 C 1039.7016 792.14308 1010.431 790.27856 982.5332 796.66406 C 963.90471 798.36542 944.90868 798.98237 926.37109 796.08008 C 904.68584 791.56431 885.09218 779.87187 867.11328 767.43164 C 833.38819 742.25101 810.30637 702.71141 805.67969 660.88867 C 803.36954 632.76111 808.67259 604.44761 820.93164 579.0332 C 835.57678 545.99176 860.37561 517.01184 891.50586 498.66602 C 910.25225 486.04511 931.61715 476.71168 952.20703 467.09961 C 963.12011 463.59358 974.6876 461.69478 986.20312 461.73438 z M 374.79883 471.42773 C 387.87125 471.05206 401.02653 472.35854 413.72656 474.89844 C 437.41292 484.0468 461.97612 493.84034 480.58398 511.6875 C 499.13687 525.72032 516.38592 541.88619 532.31445 558.9043 C 543.46614 570.43025 549.72444 585.82038 549.87305 601.78906 C 559.98949 616.21828 557.12304 635.75005 557.83008 652.57812 C 557.37328 685.84137 543.58946 717.69849 524.94141 744.66602 C 509.49198 764.33975 499.53052 789.5584 476.63086 802.17383 C 463.94988 809.60228 447.90946 814.16368 433.11719 818.50391 C 410.69774 824.62412 387.16012 826.52681 364 825.14844 C 327.87374 823.91948 296.24383 802.7107 271.58594 777.85547 C 229.65502 736.4317 207.14872 677.09648 207.61914 618.47852 C 207.65644 578.33321 226.53799 538.24273 259.82617 515.13086 C 282.17948 497.28602 309.31992 486.56385 336.36719 478.04883 C 348.73668 473.86077 361.72641 471.8034 374.79883 471.42773 z M 801.09766 525.2168 C 802.25315 524.93046 801.39039 527.5977 798.60938 532.33398 C 793.18625 541.56995 786.47425 556.05895 781.25586 569.79688 L 777.0293 580.92773 L 768.25586 582.54492 C 763.43084 583.43397 748.35004 584.70624 734.74219 585.37109 C 681.37847 587.97829 661.2907 586.55245 632.66602 578.13086 C 613.41968 572.46846 610.18736 570.554 606.87891 562.86328 C 605.30653 559.20819 601.61457 552.59824 598.67578 548.17383 C 592.01448 538.14503 591.95215 536.58648 598.33398 539.78516 C 604.07613 542.6632 616.48451 545.71639 634.66602 548.72266 C 641.63266 549.87458 650.63268 551.63311 654.66602 552.63086 C 682.77773 559.58495 734.74545 560.0114 747.9668 553.39648 C 750.55115 552.10348 754.16667 550.68353 756 550.24219 C 757.83334 549.80085 762.934 547.26542 767.33398 544.60742 C 771.73398 541.94941 780.43269 537.05895 786.66602 533.74023 C 792.89933 530.42152 798.57091 527.17218 799.26758 526.51953 C 800.10491 525.73509 800.71249 525.31224 801.09766 525.2168 z M 762.81836 633.3457 C 762.08204 665.38058 762.04181 699.06415 779.98047 727.19336 C 796.17565 760.76203 820.91982 788.90402 846.20312 816.02539 C 841.24975 829.84624 812.18012 840.67517 798.97656 854.66602 C 781.1873 866.00609 762.40613 877.50423 741.98438 884.76367 C 719.18247 895.30042 693.56806 892.09785 669.86328 885.17188 C 643.10106 877.36455 614.33006 873.47299 592.26172 855.12305 C 576.69418 845.58521 546.62326 833.23587 541.32227 821.1582 C 585.9782 777.12003 613.54276 716.63752 617.7207 654.14453 C 617.7738 645.44127 617.73157 638.69916 615.63281 634.02148 C 618.63514 633.83214 641.55393 632.57199 649.85352 634.68359 C 671.21659 640.1189 723.69921 637.78264 762.81836 633.3457 z M 1152.1992 906.78125 C 1155.9497 907.15685 1159.0593 909.69147 1160.8223 915.89648 C 1175.1894 942.68302 1186.2056 971.10474 1193.6816 1000.5273 C 1199.8457 1028.5596 1192.0315 1057.8037 1176.2871 1081.3164 C 1168.673 1096.903 1158.6626 1112.1507 1141.1602 1117.7812 C 1118.5986 1127.9107 1093.9556 1133.0164 1069.3008 1133.7363 C 1054.0846 1138.0815 1037.7208 1137.7751 1022.082 1140.5312 C 1006.259 1142.4229 990.6643 1145.6145 974.66602 1146.6328 C 952.30238 1148.1441 929.69237 1148.2227 907.33398 1146.6543 C 889.82095 1144.6699 873.22969 1138.8555 855.88867 1136.041 C 841.33328 1129.8151 825.88651 1124.1137 811.33398 1117.1836 C 796.44128 1109.9773 777.96535 1097.6426 780.27148 1078.9004 C 781.18302 1058.0945 785.73738 1037.707 792.10547 1018 C 796.79973 1001.8115 802.30857 985.41055 808 969.88281 C 815.18266 953.15394 821.56108 935.5351 832.72461 920.96875 C 844.87812 906.83057 863.58042 920.8743 877.28516 924.99414 C 892.66248 927.1943 905.05048 938.08106 920.44727 939.57812 C 952.78317 943.76049 985.15141 949.9319 1017.9102 947.26562 C 1040.1569 945.39434 1063.054 948.04586 1084.8418 942.60547 C 1099.8412 937.84263 1112.366 928.01428 1125.6309 919.60938 C 1132.5915 915.58521 1143.9482 905.95493 1152.1992 906.78125 z M 561.23828 916.84375 C 570.22779 916.62788 578.34984 922.64876 581.37695 935.57617 C 593.06905 959.11739 604.38557 982.80836 615.23633 1006.6992 C 625.32346 1026.6632 627.29151 1051.5337 614.18359 1070.6758 C 598.98554 1092.1243 584.79818 1119.037 556.80078 1125.0664 C 540.28722 1130.2463 523.33235 1133.0747 506.05469 1133.8281 C 486.98934 1137.9264 467.41539 1139.2698 448.18359 1142.627 C 425.06057 1145.7898 401.74658 1147.8624 378.57227 1150.7969 C 350.65423 1152.6795 322.47754 1154.3395 294.54102 1152.0371 C 272.93366 1147.7733 250.64181 1144.6218 230.00781 1137.334 C 204.31145 1129.9814 178.22264 1121.5759 155.05664 1107.873 C 141.31531 1093.7236 149.6876 1072.1773 151.61914 1055.0938 C 155.5549 1038.5319 159.04567 1022.0645 165.97656 1006.498 C 175.59649 982.24525 186.52621 957.59996 203.64453 937.69531 C 210.63069 919.45097 235.63542 926.89051 249.74219 933.01172 C 266.17271 940.39893 283.41157 946.73412 299.38086 954.27539 C 320.39449 960.59616 342.54522 961.77362 364.03125 966.20312 C 403.63163 970.27406 443.35631 964.81114 482.63672 960.14648 C 503.88092 954.06324 522.00167 939.9202 540.67578 928.35156 C 546.72958 920.9524 554.24644 917.01165 561.23828 916.84375 z " />
  </g>
</svg>
