<?xml version="1.0" encoding="UTF-8" standalone="no"?>
<!-- Created with Inkscape (http://www.inkscape.org/) -->

<svg
   version="1.1"
   id="svg1"
   width="1333.3333"
   height="1333.3333"
   viewBox="0 0 1333.3333 1333.3333"
   sodipodi:docname="palsfilled.svg"
   inkscape:version="1.3 (0e150ed6c4, 2023-07-21)"
   xmlns:inkscape="http://www.inkscape.org/namespaces/inkscape"
   xmlns:sodipodi="http://sodipodi.sourceforge.net/DTD/sodipodi-0.dtd"
   xmlns="http://www.w3.org/2000/svg"
   xmlns:svg="http://www.w3.org/2000/svg">
  <defs
     id="defs1" />
  <sodipodi:namedview
     id="namedview1"
     pagecolor="#ffffff"
     bordercolor="#000000"
     borderopacity="0.25"
     inkscape:showpageshadow="2"
     inkscape:pageopacity="0.0"
     inkscape:pagecheckerboard="0"
     inkscape:deskcolor="#d1d1d1"
     inkscape:zoom="0.89325005"
     inkscape:cx="466.83456"
     inkscape:cy="671.14466"
     inkscape:window-width="2560"
     inkscape:window-height="1369"
     inkscape:window-x="1912"
     inkscape:window-y="-8"
     inkscape:window-maximized="1"
     inkscape:current-layer="g1" />
  <g
     inkscape:groupmode="layer"
     inkscape:label="Image"
     id="g1">
    <path
       style="fill:#fcf8f1"
       d="m 304.66665,1204.5212 c -40.52685,-4.1651 -97.22123,-17.0505 -122.66666,-27.8797 -2.2,-0.9363 -11.5,-4.4392 -20.66667,-7.7842 -49.98704,-18.2408 -57.30559,-22.433 -63.460961,-36.3514 -26.973828,-60.9926 20.882521,-200.58054 87.808091,-256.11957 13.87625,-11.51538 32.06229,-12.29378 53.65287,-2.29645 5.42259,2.51088 20.4729,8.00143 32.89202,11.99942 5.62394,1.81048 18.30631,6.53441 28.18305,10.49763 39.82461,15.98037 58.80148,19.67339 98.92492,19.25143 68.28858,-0.71815 91.53473,-5.37964 120.45495,-24.15453 l 8.45496,-5.48893 -3.02498,-2.28175 c -20.60363,-15.54134 -40.86848,-21.11859 -51.65146,-14.2154 -4.89508,3.1338 -11.30014,6.67084 -14.23347,7.8601 -2.93334,1.18926 -9.23334,3.8319 -14,5.87253 -14.12682,6.04776 -68.09983,5.2363 -92.66666,-1.3932 -3.66667,-0.98947 -12.96667,-2.79532 -20.66667,-4.01299 -28.84094,-4.5609 -42.28703,-9.89975 -57.33333,-22.76458 -4.03333,-3.44856 -10.63333,-9.04276 -14.66667,-12.43155 -9.09865,-7.64466 -20.63671,-19.20882 -26.89386,-26.95468 -9.65162,-11.94796 -38.43947,-56.38908 -38.43947,-59.34076 0,-0.39538 -1.69601,-3.22697 -3.76892,-6.29243 -3.51874,-5.20357 -14.70197,-25.82257 -23.99481,-44.24023 -19.79593,-39.23395 -11.58675,-117.91247 18.15203,-173.9731 20.39886,-38.4539 43.56328,-62.74647 78.27837,-82.09064 10.26666,-5.72086 23.53067,-13.52791 29.47557,-17.349 14.6686,-9.42826 17.87167,-10.79753 32.52442,-13.90372 26.15188,-5.54386 58.16824,-7.15015 68.6227,-3.44287 2.95752,1.04877 8.73646,2.24323 12.8421,2.65436 4.10564,0.41112 10.10563,1.70501 13.33333,2.8753 3.22769,1.1703 8.76651,2.08545 12.30849,2.03368 7.71299,-0.11274 25.34798,6.77256 57.95882,22.62909 11.95266,5.8118 21.97704,10.56691 22.2764,10.56691 0.29937,0 -1.68008,-3.64013 -4.39877,-8.08917 -27.50528,-45.01148 -42.87961,-75.5304 -46.15287,-91.61612 -4.15632,-20.42526 3.20846,-63.66858 16.51118,-96.9477 5.9964,-15.00107 23.5144,-47.34699 25.64231,-47.34699 0.58097,0 1.0563,-0.5758 1.0563,-1.27955 0,-5.68127 32.15441,-41.14696 45.09534,-49.73928 35.77129,-23.75088 61.01832,-32.04643 91.57132,-30.08809 8.06667,0.51704 20.06667,1.28838 26.66667,1.71407 6.6,0.4257 15.59999,1.43274 19.99999,2.23787 4.4,0.80513 19.4,1.64073 33.33334,1.8569 46.61718,0.72325 101.38766,18.32174 124.15115,39.89144 0.81647,0.77365 4.05979,3.50664 7.20738,6.07331 3.37394,2.75124 10.34886,11.7811 16.99343,21.99999 6.1988,9.53334 14.13322,21.53334 17.63204,26.66667 26.75661,39.25626 33.23841,109.48433 15.07507,163.33332 -2.38797,7.07966 -3.26901,9.10582 -12.91846,29.70931 -4.04652,8.64012 -6.63355,15.26248 -5.74897,14.71636 3.98008,-2.45719 23.14354,-15.62859 24.94168,-17.14288 4.50304,-3.79219 14.47829,-8.26566 22,-9.86605 4.4,-0.93619 9.5,-2.21357 11.33333,-2.83862 1.83333,-0.62504 10.52809,-1.81488 19.32168,-2.64407 8.79359,-0.82919 16.42943,-1.78023 16.96853,-2.11341 1.23987,-0.76628 34.45948,5.78175 42.08968,8.29644 3.1423,1.03561 8.4005,1.88292 11.6848,1.88292 3.2843,0 7.0133,0.57934 8.2867,1.28741 2.9011,1.6132 22.8729,10.71259 23.5125,10.71259 0.6192,0 29.4535,16.04283 35.4694,19.73449 2.5667,1.57503 7.0264,4.14725 9.9104,5.71603 9.9453,5.40981 23.8752,15.23703 31.9633,22.54948 17.7189,16.01966 21.516,21.17656 38.2881,51.99999 3.7908,6.96667 9.7253,17.46667 13.1879,23.33334 28.0746,47.56747 24.3366,124.59922 -9.3807,193.31258 -15.1117,30.79652 -35.6357,52.1745 -80.177,83.51294 -11.5914,8.15548 -12.3511,8.57871 -25.1253,13.99733 -4.7667,2.02194 -10.1667,4.67042 -12,5.88551 -1.8333,1.21509 -6.6333,3.27762 -10.6667,4.5834 -4.0333,1.30578 -9.7789,3.20908 -12.768,4.22955 -6.2982,2.15018 -15.8397,1.6373 -39.8986,-2.14468 -11.2035,-1.76114 -27.1202,-2.77733 -53.09415,-3.38975 -29.72538,-0.70088 -38.82596,-1.35485 -45.81219,-3.29208 l -8.71808,-2.41744 -8.85447,7.46808 c -14.43128,12.17172 -14.44736,12.28071 -2.1878,14.82836 4.4,0.91436 13.1,3.1774 19.33333,5.02899 48.27174,14.33887 43.56316,13.50822 87.33333,15.40661 91.28053,3.95898 97.62523,2.82146 138.41113,-24.81519 21.4763,-14.55238 30.8445,-18.74838 38.6664,-17.31866 8.5453,1.56194 11.4597,4.51123 29.4019,29.75412 51.2628,72.12149 61.5824,175.79766 22.6458,227.51066 -19.7934,26.2882 -24.9104,32.6704 -31.2774,39.0101 -16.0809,16.0121 -30.623,22.9511 -67.1812,32.0561 -5.8666,1.4612 -15.4666,3.8584 -21.3333,5.3272 -27.5417,6.8955 -33.4539,7.9038 -82.6667,14.0981 -9.5333,1.1999 -20.95001,2.743 -25.37043,3.429 -26.0619,4.0448 -84.14209,4.0945 -102.16682,0.088 -3.18782,-0.7087 -10.89604,-2.2883 -17.12937,-3.5102 -26.32512,-5.1608 -47.71579,-13.5397 -67.89276,-26.5944 -17.72858,-11.4705 -27.58685,-17.684 -33.64289,-21.2046 -25.07893,-14.5794 -33.98435,-40.335 -31.63952,-91.5058 1.20552,-26.3078 4.4464,-40.3311 20.33265,-87.97947 8.13507,-24.39985 8.02054,-23.51227 2.68978,-20.84676 -2.11599,1.05805 -8.34725,4.10317 -13.84725,6.76694 l -10,4.84321 -16.66667,-0.69327 c -20.8019,-0.86528 -37.43579,-2.51787 -45.66666,-4.53702 -3.48333,-0.85451 -9.18333,-2.2203 -12.66667,-3.0351 -3.48333,-0.81479 -7.48453,-1.81123 -8.89156,-2.21432 -1.85052,-0.53013 -2.33324,-0.21252 -1.74495,1.14811 43.81461,101.33728 43.06648,127.91988 -4.9257,175.01908 -34.17052,33.5347 -53.88446,43.7554 -102.10445,52.936 -3.3,0.6282 -12.6,2.6739 -20.66666,4.5459 -48.18643,11.1823 -49.88842,11.4772 -100,17.329 -21.99999,2.569 -45.39999,5.3362 -51.99999,6.1494 -12.37288,1.5245 -59.87914,2.7278 -69.33333,1.7562 z M 734.74158,585.37018 c 13.60789,-0.66485 28.68936,-1.93621 33.51438,-2.82526 l 8.77277,-1.61645 4.22807,-11.13076 c 5.21841,-13.73795 11.93041,-28.22844 17.35354,-37.46441 3.70804,-6.31506 4.00563,-8.95111 0.65628,-5.81335 -0.69667,0.65265 -6.36667,3.90196 -12.6,7.22069 -6.23333,3.31872 -14.93333,8.20877 -19.33333,10.86678 -4.4,2.658 -9.5,5.19383 -11.33334,5.63517 -1.83333,0.44134 -5.44782,1.86036 -8.03219,3.15338 -13.22137,6.61492 -65.18936,6.18844 -93.30113,-0.76567 -4.03334,-0.99775 -13.03334,-2.75656 -20,-3.90848 -18.18153,-3.00627 -30.59118,-6.05858 -36.33333,-8.93664 -6.38185,-3.19868 -6.31807,-1.64001 0.34325,8.38881 2.93879,4.42443 6.62975,11.03496 8.20213,14.69005 3.30847,7.69074 6.54159,9.60485 25.78795,15.26727 28.62474,8.42161 48.71113,9.84607 102.07495,7.23887 z"
       id="path9" />
    <path
       style="fill:#b7c891"
       d="m 669.86258,885.17248 c -26.76228,-7.80733 -55.53343,-11.69901 -77.60181,-30.04899 -15.56756,-9.53786 -45.63693,-21.88821 -50.93794,-33.9659 44.65603,-44.03827 72.22031,-104.52024 76.39827,-167.01335 0.0531,-8.70328 0.0108,-15.44599 -2.08796,-20.12367 3.00233,-0.18934 25.92005,-1.44915 34.21964,0.66247 21.36313,5.43531 73.84609,3.10056 112.96532,-1.33638 -0.73632,32.03494 -0.77709,65.7177 17.16161,93.84697 16.19522,33.56873 40.93989,61.71 66.22325,88.83143 -4.95339,13.82087 -34.02333,24.65065 -47.22691,38.64152 -17.7893,11.34011 -36.56921,22.83676 -56.99102,30.09622 -22.80195,10.53677 -48.41763,7.33564 -72.12245,0.40965 z m -3.32217,-388.40983 c -34.45306,-3.23047 -65.81034,-20.50868 -89.85799,-44.98718 -31.15526,-29.10672 -52.54489,-68.51084 -61.74069,-109.92293 -4.85588,-35.0024 -6.52161,-74.54429 18.15936,-103.04763 31.42631,-46.35755 91.42216,-59.49782 144.14691,-60.31788 26.94443,-1.55076 53.82823,5.00749 78.29431,14.5277 29.34357,12.82474 55.89511,31.39603 80.29417,51.83538 21.62609,22.47963 23.06808,56.63182 23.59338,86.16138 -4.63471,48.45512 -35.14054,88.41878 -63.03431,126.28176 -25.75501,27.41374 -65.4514,33.29779 -100.89336,38.72038 -9.6275,0.57152 -19.32795,1.66361 -28.96178,0.74902 z"
       id="path6"
       sodipodi:nodetypes="sccccscccccssccccccccccc" />
    <path
       style="fill:#f9c0d4"
       d="m 926.37081,796.07983 c -21.68531,-4.51577 -41.27766,-16.2083 -59.2566,-28.64855 -33.72515,-25.18069 -56.8076,-64.71974 -61.4343,-106.54256 -2.31015,-28.12762 2.99355,-56.44041 15.25262,-81.85486 14.64516,-33.04152 39.4423,-62.02136 70.57261,-80.36722 18.74643,-12.62093 40.1118,-21.95477 60.70172,-31.56686 21.82619,-7.01207 46.27094,-7.59548 67.67974,0.90019 17.2995,8.55035 36.2355,16.31457 50.78,29.51051 19.9491,15.13695 37.0504,34.78168 55.1645,52.41496 15.0353,14.68721 27.7301,32.6925 30.3151,54.09424 4.4986,21.18768 2.8425,43.27726 1.5409,64.7678 -6.4141,30.50011 -22.1104,58.94962 -45.3625,79.81726 -11.9755,15.17411 -25.7778,30.17228 -45.0037,35.57017 -27.6187,7.96732 -56.8902,6.10435 -84.78799,12.48987 -18.62853,1.70136 -37.62449,2.31734 -56.1621,-0.58495 z"
       id="path11" />
    <path
       style="fill:#f9c0d4"
       d="m 907.33328,1146.6536 c -17.51307,-1.9844 -34.10275,-7.7985 -51.44381,-10.613 -14.55543,-6.2259 -30.00382,-11.9276 -44.55637,-18.8577 -14.89274,-7.2063 -33.36737,-19.5407 -31.06122,-38.2829 0.91154,-20.8059 5.46475,-41.1931 11.83286,-60.9001 4.69428,-16.1885 10.20376,-32.58986 15.89521,-48.11762 7.18268,-16.72891 13.56187,-34.34728 24.72542,-48.91365 12.15353,-14.1382 30.85551,-0.0952 44.56027,4.02464 15.37736,2.20016 27.76489,13.08747 43.1617,14.58455 32.33598,4.18237 64.70339,10.35335 97.46216,7.68707 22.2469,-1.8713 45.1452,0.78179 66.933,-4.65862 14.9994,-4.76284 27.5243,-14.5929 40.7892,-22.99782 10.1246,-5.85334 29.5487,-23.56753 35.1902,-3.71144 14.3671,26.78658 25.3843,55.20669 32.8603,84.62939 6.1641,28.0323 -1.651,57.2781 -17.3954,80.7908 -7.6141,15.5866 -17.6243,30.8339 -35.1269,36.4646 -22.5616,10.1295 -47.2038,15.2356 -71.8586,15.9555 -15.2162,4.3452 -31.5796,4.0371 -47.2184,6.7934 -15.823,1.8917 -31.41797,5.0839 -47.41629,6.1022 -22.36368,1.5113 -44.9749,1.5894 -67.33333,0.021 z"
       id="path7" />
    <path
       style="fill:#c9f1f6"
       d="m 363.99998,825.14817 c -36.12634,-1.22896 -67.75606,-22.43664 -92.41401,-47.29193 -41.931,-41.42385 -64.43659,-100.75992 -63.96617,-159.378 0.0373,-40.14539 18.91744,-80.23614 52.2057,-103.34805 22.35335,-17.84488 49.49516,-28.56563 76.54247,-37.08067 24.73902,-8.37612 51.95922,-8.23064 77.35935,-3.15084 23.6864,9.14838 48.24962,18.94221 66.85752,36.78941 18.55291,14.03284 35.80052,30.19808 51.72909,47.21621 11.15171,11.52597 17.40966,26.9167 17.55827,42.88542 10.11646,14.42924 7.25138,33.96122 7.95842,50.78933 -0.4568,33.26331 -14.24079,65.12 -32.88888,92.08757 -15.44945,19.67377 -25.4109,44.89214 -48.3106,57.50759 -12.681,7.42847 -28.7224,11.99011 -43.51471,16.33034 -22.41949,6.12023 -45.95629,8.02199 -69.11645,6.64362 z"
       id="path14" />
    <path
       style="fill:#c9f1f6"
       d="m 294.54084,1152.0365 c -21.6074,-4.2638 -43.8987,-7.4154 -64.53274,-14.7032 -25.69642,-7.3526 -51.78575,-15.7568 -74.95179,-29.4597 -13.74135,-14.1496 -5.36941,-35.6961 -3.43787,-52.7798 3.93576,-16.5619 7.42721,-33.03 14.35812,-48.5965 9.61995,-24.25289 20.54958,-48.89658 37.66794,-68.80127 6.98618,-18.24438 31.99003,-10.80569 46.09682,-4.68448 16.43056,7.38723 33.67026,13.7221 49.63959,21.26339 21.01367,6.32079 43.16524,7.49894 64.65131,11.92846 39.60046,4.07094 79.32305,-1.39222 118.60354,-6.05688 21.24424,-6.08326 39.36558,-20.22646 58.03973,-31.79512 13.83727,-16.91241 35.31917,-15.75735 40.70073,7.22475 11.69212,23.54126 23.00978,47.23223 33.86056,71.12315 10.08715,19.964 12.05494,44.8352 -1.053,63.9773 -15.19809,21.4485 -29.38505,48.3606 -57.38251,54.39 -16.5136,5.1799 -33.46907,8.0085 -50.74677,8.7619 -19.06539,4.0983 -38.63815,5.4406 -57.86999,8.7978 -23.12308,3.163 -46.4371,5.2365 -69.61147,8.171 -27.91808,1.8826 -56.09562,3.5416 -84.0322,1.2392 z"
       id="path8" />
  </g>
</svg>
