<?xml version="1.0" encoding="UTF-8" standalone="no"?>
<!-- Created with Inkscape (http://www.inkscape.org/) -->

<svg
   version="1.1"
   id="svg1"
   width="1333.3333"
   height="1333.3333"
   viewBox="0 0 1333.3333 1333.3333"
   sodipodi:docname="addimage.svg"
   inkscape:version="1.3 (0e150ed6c4, 2023-07-21)"
   xmlns:inkscape="http://www.inkscape.org/namespaces/inkscape"
   xmlns:sodipodi="http://sodipodi.sourceforge.net/DTD/sodipodi-0.dtd"
   xmlns="http://www.w3.org/2000/svg"
   xmlns:svg="http://www.w3.org/2000/svg">
  <defs
     id="defs1" />
  <sodipodi:namedview
     id="namedview1"
     pagecolor="#ffffff"
     bordercolor="#000000"
     borderopacity="0.25"
     inkscape:showpageshadow="2"
     inkscape:pageopacity="0.0"
     inkscape:pagecheckerboard="0"
     inkscape:deskcolor="#d1d1d1"
     showgrid="false"
     inkscape:zoom="0.89325005"
     inkscape:cx="709.76766"
     inkscape:cy="701.37135"
     inkscape:window-width="2560"
     inkscape:window-height="1369"
     inkscape:window-x="1912"
     inkscape:window-y="-8"
     inkscape:window-maximized="1"
     inkscape:current-layer="g1" />
  <g
     inkscape:groupmode="layer"
     inkscape:label="Image"
     id="g1">
    <path
       style="fill:#fdf8f1"
       d="m 599.3333,1161.3549 c -111.79969,-2.6897 -249.56449,-3.5317 -301.33332,-1.8416 -61.22135,1.9987 -77.2519,-13.408 -80.65201,-77.5134 -1.3269,-25.0173 -2.86826,-44.596 -5.3534,-68 -6.91815,-65.15203 -7.28879,-173.33156 -0.67381,-196.66662 1.68391,-5.9402 9.38815,-103.84427 10.75452,-136.66665 0.78937,-18.96176 -0.55324,-51.08528 -3.4272,-82 -1.21273,-13.04509 -2.51948,-33.34846 -6.9081,-107.33333 -4.46378,-75.2519 -1.80667,-144.19277 6.20828,-161.07887 14.75484,-31.08585 38.3186,-42.00659 95.38505,-44.20663 15.79769,-0.60904 46.37068,-3.04086 47.57345,-3.78406 1.29149,-0.79802 54.43685,-10.66875 72.52582,-13.47027 6.91206,-1.07051 23.36739,-3.76007 36.56739,-5.97681 46.2293,-7.76352 82.80537,-8.25523 204.86454,-2.7541 57.50043,2.5915 84.82886,23.31175 77.26481,58.5817 -7.46,34.78478 -24.78646,40.99426 -108.43793,38.86212 -90.69984,-2.31178 -115.21149,-1.40279 -175.69142,6.51534 -25.25678,3.30666 -33.42666,4.59541 -50.25236,7.92701 -7.19453,1.42457 -22.08097,3.83414 -33.08097,5.3546 -86.88665,12.0098 -81.19166,-2.88113 -76.54869,200.15506 1.80232,78.81487 0.98207,132.32874 -3.57458,233.20823 -2.20082,48.72383 -1.89947,111.90678 0.6868,143.99999 0.67961,8.43333 1.62056,24.03333 2.091,34.66666 2.298,51.94103 11.32687,68.23773 39.42943,71.16853 24.6557,2.5712 454.30289,3.3082 514.58268,0.8826 136.45088,-5.4907 139.32932,-5.9723 149.67512,-25.0454 7.9928,-14.7351 8.982,-80.19392 2.4029,-159.00572 -1.1178,-13.39034 -3.0819,-38.95713 -4.9678,-64.66666 -3.3119,-45.15003 -0.792,-201.98425 3.4565,-215.12333 12.363,-38.23441 47.5211,-50.36307 75.8069,-26.15147 12.6144,10.79742 17.7174,29.36257 16.293,59.27481 -1.1058,23.22217 0.8558,196.67542 2.4427,215.99998 3.9199,47.73254 5.5272,86.81855 7.519,182.84639 0.4229,20.3895 1.3627,37.309 2.2067,39.7302 3.2272,9.2575 0.8837,38.3612 -3.8855,48.2536 -13.1251,27.2249 -29.4569,32.6233 -104.2829,34.4702 -26.76663,0.6607 -65.16662,2.1345 -85.33329,3.2751 -20.16667,1.1406 -52.86666,2.9535 -72.66666,4.0286 -42.97567,2.3337 -189.61918,3.553 -250.66665,2.0842 z M 393.72842,995.40299 c -40.41252,-12.63158 -42.0235,-70.21314 -3.21317,-114.84894 14.92682,-17.16736 31.2838,-54.84808 37.33478,-86.00621 3.17221,-16.33457 10.26834,-47.88561 12.26834,-54.54789 0.7705,-2.56666 6.8182,-21.46666 13.43931,-41.99999 6.62112,-20.53333 13.54383,-42.09384 15.38381,-47.91224 1.83997,-5.8184 5.32538,-20.25925 7.74535,-32.09077 15.72688,-76.89057 75.03066,-82.47621 104.0484,-9.79999 2.73835,6.85832 8.55825,20.26967 12.93312,29.803 4.37487,9.53333 9.91127,21.84608 12.30313,27.36166 2.39185,5.51558 6.14282,13.61558 8.33548,18 2.19266,4.38442 5.33392,12.06501 6.98058,17.06798 8.3496,25.36822 21.19213,24.45448 39.43152,-2.80554 34.31129,-51.28057 82.00937,-47.40433 111.27088,9.04256 10.43159,20.12305 22.73225,27.09249 37.52545,21.26155 23.00109,-9.06618 50.9252,-1.15221 65.08182,18.44483 8.88193,12.29528 28.25567,60.77048 28.03442,70.14514 -0.0192,0.81499 2.16307,8.68181 4.84958,17.48181 12.48861,40.9081 19.5862,61.95895 24.45369,72.52754 20.30343,44.08403 1.01255,81.17145 -44.20325,84.98234 -38.58721,3.25222 -57.65313,-18.73498 -63.7581,-73.52712 -6.82883,-61.28868 -11.48923,-72.64943 -29.80222,-72.64943 -19.26548,0 -38.54415,-8.69459 -56.5483,-25.50302 -17.79324,-16.61154 -25.37724,-16.96053 -41.62308,-1.91535 -37.33143,34.57242 -91.066,38.28549 -119.66081,8.26859 -6.9201,-7.26425 -12.19462,-15.16467 -24.78365,-37.12208 -4.50938,-7.86513 -8.08005,-10.3948 -14.67244,-10.3948 -8.66738,0 -10.27091,2.52269 -22.39684,35.23502 -2.15464,5.8126 -4.77634,12.4126 -5.826,14.66667 -1.93994,4.16588 -12.61212,28.93853 -19.32537,44.85873 -2.03176,4.81823 -8.15566,18.01823 -13.60867,29.33333 -5.6454,11.71431 -13.02563,30.046 -17.13961,42.57291 -14.12474,43.00931 -35.25595,59.32232 -64.85815,50.06971 z M 945.26736,520.93044 c -26.97962,-7.6313 -36.75852,-29.4021 -33.37854,-74.31076 5.13063,-68.16912 5.26465,-67.94277 -40.71065,-68.75836 -53.21638,-0.94404 -75.69932,-15.32661 -75.81074,-48.4969 -0.10981,-32.68828 24.42642,-47.92824 77.29918,-48.01213 40.89265,-0.0649 41.51207,-0.82063 42.63552,-52.01897 1.13677,-51.80526 15.22593,-74.6077 46.12696,-74.65364 29.55878,-0.0439 41.99951,18.29855 46.56411,68.65364 0.8642,9.53333 2.4173,22.43333 3.4514,28.66666 1.0341,6.23334 1.8821,13.31313 1.8844,15.73288 0.014,14.27064 5.4498,16.55837 42.1367,17.73312 40.1715,1.28634 53.3008,5.12393 65.3454,19.09991 24.8975,28.88997 6.8914,65.65365 -36.1445,73.7975 -15.3999,2.91418 -17.4821,3.15031 -37.6444,4.26889 -31.0945,1.72508 -34.6508,4.47469 -35.5902,27.51692 -2.9676,72.79698 -10.9634,96.45421 -36.57984,108.22928 -8.53601,3.92375 -20.94942,4.99452 -29.5848,2.55196 z"
       id="path3" />
  </g>
</svg>
