<?xml version="1.0" encoding="UTF-8" standalone="no"?>
<!-- Created with Inkscape (http://www.inkscape.org/) -->

<svg
   version="1.1"
   id="svg1"
   width="1333.3333"
   height="1333.3333"
   viewBox="0 0 1333.3333 1333.3333"
   sodipodi:docname="addsticker2.svg"
   inkscape:version="1.3 (0e150ed6c4, 2023-07-21)"
   xmlns:inkscape="http://www.inkscape.org/namespaces/inkscape"
   xmlns:sodipodi="http://sodipodi.sourceforge.net/DTD/sodipodi-0.dtd"
   xmlns="http://www.w3.org/2000/svg"
   xmlns:svg="http://www.w3.org/2000/svg">
  <defs
     id="defs1" />
  <sodipodi:namedview
     id="namedview1"
     pagecolor="#ffffff"
     bordercolor="#000000"
     borderopacity="0.25"
     inkscape:showpageshadow="2"
     inkscape:pageopacity="0.0"
     inkscape:pagecheckerboard="0"
     inkscape:deskcolor="#d1d1d1"
     inkscape:zoom="0.63162317"
     inkscape:cx="531.96275"
     inkscape:cy="523.25503"
     inkscape:window-width="2560"
     inkscape:window-height="1369"
     inkscape:window-x="1912"
     inkscape:window-y="-8"
     inkscape:window-maximized="1"
     inkscape:current-layer="g1" />
  <g
     inkscape:groupmode="layer"
     inkscape:label="Image"
     id="g1">
    <path
       id="path1"
       style="fill:#fdf8f1"
       d="M 768.55469 159.36914 C 756.96888 159.09161 744.7307 159.92785 731.11914 161.8125 C 700.17395 166.09716 673.8455 167.99251 644.66602 168.03711 C 628.53269 168.06178 597.33396 168.66948 575.33398 169.38672 C 553.33401 170.10396 513.1333 171.33713 486 172.12891 C 458.8667 172.92069 428.56601 174.10073 418.66602 174.75 C 408.76603 175.39928 377.56729 176.4917 349.33398 177.17773 C 184.73093 181.17739 161.6504 192.34054 175.33203 261.33398 C 181.70422 293.46758 181.72035 435.53594 175.36328 535.33398 C 173.29414 567.81689 171.42786 604.35192 169.71094 646 C 167.92759 689.25948 168.41125 1057.629 170.26758 1070 C 171.1479 1075.8667 172.8303 1087.2673 174.00586 1095.334 C 182.57202 1154.1146 199.49183 1167.8537 267.69727 1171.4082 C 287.69772 1172.4506 311.99776 1173.9085 321.69727 1174.6484 C 331.39679 1175.3884 358.53335 1176.0764 382 1176.1777 C 405.46664 1176.279 443.86735 1176.7667 467.33398 1177.2617 C 608.72516 1180.2443 735.08994 1178.485 800.79102 1172.6191 C 829.73052 1170.0354 853.38022 1168.9699 904.79102 1167.9336 C 941.38945 1167.1959 973.13399 1166.3209 975.33398 1165.9883 C 977.53398 1165.6558 992.83397 1163.5572 1009.334 1161.3262 C 1069.6176 1153.1751 1078.3027 1151.8742 1094.5117 1148.5566 C 1133.7884 1140.5176 1152.5519 1126.88 1159.6367 1101.2246 C 1162.8723 1089.508 1163.1333 971.79948 1160 937.33398 C 1157.0132 904.47882 1157.5251 507.34895 1160.5977 473.66797 C 1166.0141 414.29541 1159.549 394.41112 1119.3555 346.81641 C 1109.3221 334.93555 1076.2697 309.9445 1056.666 299.41602 C 1050.066 295.87138 1042.7563 291.5519 1040.4219 289.81836 C 1038.0875 288.08483 1035.6459 286.66602 1034.9961 286.66602 C 1033.7843 286.66602 1022.4719 278.78407 1015.334 272.9668 C 1013.134 271.17384 1009.2907 268.65974 1006.793 267.37891 C 1004.2954 266.09807 1001.0855 263.96478 999.66211 262.63867 C 998.2387 261.31256 992.18203 257.37368 986.20312 253.88672 C 980.22423 250.39975 970.83398 244.83455 965.33398 241.51758 C 933.68941 222.43313 846.73247 178.52934 824.36523 170.34375 C 805.35858 163.38801 787.86437 159.8317 768.55469 159.36914 z M 671.03711 260.70703 C 743.12044 261.7908 752.31856 274.53174 770.4043 320 C 787.27044 362.40217 785.98049 353.12236 786.15234 433.33398 C 786.36304 531.67651 789.31772 547.20549 810.62109 561.96875 C 833.31608 577.69638 857.1072 572.02445 887.76953 543.58008 C 908.28136 524.55197 935.82531 512.91456 996.96484 497.44141 C 1007.9995 494.64875 1025.047 493.71575 1027.4004 495.77539 C 1028.0971 496.3851 1031.366 497.63164 1034.666 498.54688 C 1044.9706 501.40482 1054.8112 508.98075 1059.4121 517.59961 C 1065.3327 528.69063 1065.3123 527.96071 1064.459 710.66602 C 1063.6481 884.30092 1064.3906 932.11622 1068.3398 960.66602 C 1071.6488 984.58722 1070.4739 1031.4284 1066.3496 1040 C 1058.5247 1056.2625 1049.9322 1061.1423 1022.8164 1064.7227 C 1014.3005 1065.8471 1003.734 1067.3464 999.33398 1068.0547 C 961.63829 1074.1227 957.34829 1074.4786 918.66602 1074.75 C 841.27313 1075.2929 787.10588 1078.0115 760.66602 1082.6816 C 755.86908 1083.5289 721.43615 1084.2834 674.66602 1084.5645 C 631.76606 1084.8223 584.66665 1085.3654 570 1085.7715 C 555.33334 1086.1777 540.03333 1085.9892 536 1085.3535 C 531.96666 1084.7179 512.7673 1084.1337 493.33398 1084.0547 C 286.26104 1083.2112 276.48717 1081.9135 265.13672 1053.7754 C 259.52443 1039.8623 260.79828 653.35038 266.69141 582 C 267.41824 573.20002 268.66218 553.10064 269.45703 537.33398 C 270.25188 521.56733 271.19825 502.96666 271.55859 496 C 271.91893 489.03334 272.50505 442.83393 272.86133 393.33398 C 273.79139 264.11423 268.52561 271.68187 358.66602 269.99219 C 382.49933 269.54544 411.00001 268.59794 422 267.88672 C 432.99999 267.1755 463.30068 266.03331 489.33398 265.34961 C 515.3673 264.66592 554.06734 263.4862 575.33398 262.72852 C 615.99432 261.27986 647.00933 260.34578 671.03711 260.70703 z M 875.01562 301.67578 C 877.18597 301.99697 880.05288 303.05608 883.67383 304.76758 C 894.63078 309.94655 938.21798 336.10948 954.41211 347.22852 C 979.20141 364.24908 997.83146 376.0745 1008.123 381.32227 C 1034.4386 394.74077 1032.7912 401.30987 1003.1055 401.32617 C 989.84317 401.33344 974.4734 404.03119 961.38672 408.64844 C 958.39517 409.70393 951.90806 411.4321 946.97266 412.49023 C 929.79726 416.1726 920.57101 418.88894 905.28711 424.75977 C 878.83422 434.92079 880.00861 436.5664 879.97461 389.22852 C 879.94639 349.89123 879.04839 341.41026 872.75781 320.98047 C 868.26382 306.38542 868.5046 300.71222 875.01562 301.67578 z " />
    <path
       id="path1-3"
       style="fill:#fdf8f1"
       d="M 651.87305 475.77148 C 641.9499 476.13328 632.44663 479.84703 623.99023 484.87305 C 610.74068 492.79705 599.68792 503.96803 590.58398 516.34961 C 584.79902 524.30103 579.35044 532.69875 576.30078 542.12109 C 573.67354 550.15746 572.75119 558.92512 574.68945 567.21875 C 576.30789 574.06182 580.09936 580.60626 586.01953 584.57617 C 591.44199 588.25655 598.29531 589.52623 604.72656 588.48438 C 609.74354 587.74801 614.44905 585.69054 618.84961 583.24023 C 619.39031 582.95356 619.93153 582.67014 620.4707 582.38086 C 620.94676 586.50445 621.28531 590.78844 621.27344 595 C 621.38407 601.74751 621.51758 608.5606 623.10156 615.15625 C 624.95579 623.32449 628.58665 631.34504 634.74609 637.16992 C 639.34248 641.53712 645.25421 644.24411 651.30859 645.92188 C 666.22818 650.69991 681.41388 654.58062 696.57227 658.51172 C 710.38661 662.02871 724.24258 665.42296 738.24414 668.11328 C 741.27503 668.67185 744.31987 669.14197 747.36133 669.63867 C 742.89314 674.67883 738.19877 679.52055 733.2207 684.05859 C 725.57402 691.22549 717.50291 698.1821 711.72461 707.03125 C 707.93751 712.77287 705.0125 719.3805 704.94531 726.36328 C 704.85111 731.6303 706.58183 736.8966 709.80859 741.06445 C 714.25491 746.93335 720.85475 750.72548 727.63477 753.30469 C 735.99369 756.46068 744.87789 757.76367 753.51758 759.9043 C 771.5173 764.13522 789.38033 769.08476 807.06445 774.5918 C 812.0583 776.17583 816.9977 777.92636 821.89844 779.77734 C 819.23918 782.9251 816.55737 785.91974 813.74414 788.92773 C 807.74238 795.1839 801.89805 801.78367 797.99219 809.59375 C 794.97091 815.46963 793.2674 822.31535 794.65234 828.88867 C 795.83351 835.26775 799.81122 840.78063 804.63281 844.96875 C 809.31443 849.12084 814.86913 852.08258 820.35547 855.01172 C 826.04838 858.30248 831.0644 862.62287 835.86328 867.08398 C 839.21934 870.31567 842.42742 873.73276 845.18945 877.48828 C 845.77646 878.76087 845.04224 880.3448 843.78711 880.88477 C 835.67708 887.0525 825.79408 890.28105 817.73242 896.52539 C 810.93202 901.73803 804.94139 908.41776 801.92969 916.54688 C 799.4433 923.10599 799.23209 930.70864 802.26172 937.12891 C 804.69103 942.46795 809.09098 946.71744 814.16797 949.55859 C 819.19033 952.36577 824.87693 954.11516 830.64844 954.24414 C 836.5301 954.35033 842.29749 952.80182 847.81055 950.88672 C 854.53511 948.44823 860.95184 945.22114 867.15625 941.67773 C 876.37281 936.33288 885.19629 930.33024 894.54102 925.20117 C 900.07907 922.04246 905.79374 919.04 910.58789 914.77734 C 916.07093 910.03171 920.60193 903.84702 922.21289 896.67773 C 923.80744 890.03006 923.05266 882.99876 920.84375 876.58203 C 917.56458 866.86918 911.79789 858.2446 905.65039 850.13086 C 897.94917 839.96113 888.99465 830.84571 880.34375 821.5 C 879.10657 820.0446 877.61192 818.72261 876.81836 816.95508 C 876.44772 815.70303 877.28025 814.56398 878.04102 813.66211 C 883.14281 806.41431 889.52505 800.09121 893.89453 792.32812 C 897.83331 785.50536 900.54322 777.69642 900.15625 769.73242 C 899.88759 763.44421 897.67649 757.31481 894.10352 752.1543 C 889.05337 744.749 881.83678 739.14423 874.29297 734.45898 C 866.75407 729.86554 858.71299 726.14987 850.55664 722.79883 C 838.41255 717.86969 825.84333 714.12004 813.38672 710.08398 C 810.23992 709.0115 807.12387 707.84583 804.04883 706.58203 C 804.62417 705.69517 805.55146 705.11455 806.24414 704.32031 C 813.31344 697.43401 820.88824 690.96695 827.25391 683.35938 C 832.02339 677.63401 835.43772 670.90527 838.07812 663.9707 C 840.22775 658.07541 841.43415 651.56044 839.92383 645.36328 C 838.54283 639.60062 835.03747 634.45388 830.39844 630.80664 C 823.49956 625.14538 815.0757 621.82637 806.73047 618.93164 C 793.12626 614.31346 779.0398 611.36464 765.01367 608.35938 C 751.80065 605.59919 738.56605 602.93169 725.38867 600.00195 C 715.29985 597.78426 705.29111 595.49822 695.4043 592.54297 C 693.69535 592.04909 692.01861 591.45001 690.35547 590.82031 C 690.01597 590.67689 689.28637 590.39064 688.81055 590.16406 C 687.81531 589.66823 686.53728 589.29289 686.2168 588.07812 C 685.63316 586.19255 685.5065 584.19852 685.16406 582.25977 C 684.69423 578.90718 684.34593 575.46504 684.08398 572.13672 C 683.26313 560.65814 682.94893 549.14076 683.17773 537.63477 C 683.24563 534.70291 683.37099 531.6433 683.54492 528.73828 C 683.9877 521.20546 685.19108 513.64589 684.25977 506.09961 C 683.47248 499.16436 681.26721 492.19679 676.88086 486.67383 C 672.29929 480.86142 665.36219 477.05546 658.03906 476.11719 C 655.99838 475.82954 653.9324 475.73812 651.87305 475.77148 z M 537.59766 614.53516 C 530.17101 614.7124 523.17151 618.06082 517.39258 622.55664 C 508.82211 629.14119 502.92778 638.42326 494.96289 645.64258 C 488.38976 651.78199 481.65656 657.74698 475.05664 663.85742 C 460.75723 676.96312 446.45803 690.10148 433.03125 704.11133 C 423.38408 714.31209 414.55924 725.30709 406.91016 737.08594 C 398.50235 749.69144 390.51904 762.57263 382.23828 775.26172 C 372.78908 790.08516 363.93586 805.27816 355.08594 820.46289 C 346.74122 835.15581 340.09254 851.07133 337.64258 867.87891 C 337.14362 871.28555 336.90621 874.73716 336.81836 878.19531 A 34.029091 29.851105 0 0 0 326.9043 899.14648 A 34.029091 29.851105 0 0 0 360.93359 928.99805 C 369.89063 937.20447 378.51235 945.76515 387.32031 954.12891 C 421.44613 969.42859 447.82967 967.60989 473.27734 969.55859 C 465.59361 976.18722 454.61175 981.53416 437.44922 984.47656 C 441.86138 986.03257 446.28568 987.56243 450.74609 988.96289 C 462.38566 992.61223 474.1596 995.90688 486.14062 998.23828 C 490.09604 999.07489 494.12919 999.43001 498.16406 999.57227 C 506.98966 999.89387 515.82565 999.86402 524.65625 999.87305 C 539.3942 999.81755 554.13276 999.58717 568.86133 999.05664 C 576.34771 998.77722 583.83414 998.39449 591.28125 997.55273 C 600.78677 996.54267 610.30447 995.63319 619.81445 994.67188 C 628.20325 993.81222 636.56395 992.68271 644.86328 991.18359 C 661.15073 988.32116 677.37323 985.09265 693.57227 981.76953 C 704.66457 979.37539 715.81828 976.39073 725.74805 970.74023 C 731.8454 967.19655 737.4044 962.20533 740.29492 955.65625 C 743.3353 948.66687 743.31336 940.57895 741.00391 933.38281 C 738.84718 926.67072 733.58351 921.0557 727.01953 918.47852 C 719.95653 915.56793 712.12054 915.39297 704.61328 916.07422 C 695.86723 916.90635 687.39249 919.36911 678.73828 920.77539 C 674.76595 921.41724 670.61017 922.1215 666.56445 922.76367 C 657.21348 924.24946 647.85288 925.79638 638.58984 927.69727 C 635.81663 928.22764 632.82369 928.76099 630.03711 929.20508 C 621.10092 930.62009 612.08306 931.5522 603.11328 932.42773 C 589.95415 933.68963 576.77618 934.78589 563.66797 936.51758 C 560.78849 936.86529 557.86168 937.19553 555.05273 937.44336 C 549.73615 937.89595 544.42204 938.13972 539.12891 938.20312 C 532.68829 938.27302 526.35245 938.07176 519.92773 937.59375 C 503.77324 936.37814 487.65405 933.47465 472.07422 928.74219 C 467.78449 927.45034 463.70032 926.05144 459.51562 924.45898 C 453.12541 922.0162 446.87387 919.20282 440.83398 915.98828 C 439.11054 915.06411 437.22829 914.00578 435.47852 912.96875 C 432.42934 911.1597 429.47206 909.18522 426.57617 907.125 A 27.235449 23.891565 0 0 1 426.24219 907.14648 A 27.235449 23.891565 0 0 1 399.00586 883.25586 A 27.235449 23.891565 0 0 1 405.57617 867.70508 C 405.82619 864.06548 406.48108 860.46121 407.68945 857.00781 C 408.92516 853.76078 410.95763 850.88579 412.12695 847.60742 C 414.53167 841.48173 416.97062 835.28154 420.7832 829.86719 C 429.24782 816.96899 437.39662 803.87106 445.69531 790.86719 C 451.86941 781.29956 458.1545 771.75279 464.73438 762.42969 C 470.89636 754.11943 477.91791 746.48363 485.19531 739.14453 C 490.89472 733.45663 497.03734 728.24393 503.00977 722.85156 C 509.90784 716.58729 516.54522 710.04448 523.40234 703.73633 C 531.31962 696.57744 539.55466 689.69727 546.5 681.55078 C 553.27485 673.75677 559.34794 665.1215 562.87695 655.3457 C 565.28534 648.53621 566.20337 640.93455 564.01562 633.94141 C 561.00038 624.17643 552.13088 616.59111 542.09766 614.85352 C 540.61113 614.60898 539.10401 614.49782 537.59766 614.53516 z M 666.63867 750.00391 C 659.62105 750.3886 652.93073 753.40229 647.44141 757.69531 C 641.47735 762.60371 637.44777 770.0051 637.2207 777.79102 C 636.845 786.56223 640.61744 795.15526 646.4707 801.56445 C 650.15396 805.72766 654.72873 808.94862 659.28711 812.07031 C 662.59537 814.63453 665.30115 818.46805 665.53125 822.71484 C 665.96755 828.14504 663.80685 833.319 661.59766 838.15234 C 658.40154 845.27357 656.50335 853.26033 657.79688 861.06445 C 658.78556 867.48104 662.17749 873.43794 667.04688 877.70898 C 671.74532 881.91703 677.58773 884.90453 683.80078 886.05273 C 690.12269 887.15964 696.76634 885.81383 702.28516 882.57812 C 709.64525 878.36524 715.21236 871.60117 719.32617 864.29102 C 724.56123 854.94482 727.64109 844.48247 728.96875 833.88086 C 730.41707 822.03424 729.53707 809.84321 725.96094 798.43555 C 723.2645 789.73013 718.35328 781.83441 712.28711 775.08008 C 705.95631 768.03623 698.57875 761.89594 690.37695 757.14453 C 683.9272 753.51123 676.86804 750.58823 669.41602 750.03906 C 668.49107 749.98606 667.56471 749.97071 666.63867 750.00391 z M 567.81836 796.43359 C 554.54142 796.61894 542.07405 806.30523 538.49609 819.07227 C 535.26259 830.40762 539.17243 843.4318 548.10547 851.11719 C 552.85775 855.10356 558.85965 857.47807 564.98438 858.26562 C 571.72867 859.0761 578.76803 857.62932 584.50195 853.94141 C 593.09495 848.59509 599.04602 838.95528 599.35742 828.76953 C 599.66372 821.52337 597.09571 814.28523 592.5625 808.6582 C 586.67169 801.2181 577.43775 796.16128 567.81836 796.43359 z " />
  </g>
</svg>
