<?xml version="1.0" encoding="UTF-8" standalone="no"?>
<!-- Created with Inkscape (http://www.inkscape.org/) -->

<svg
   version="1.1"
   id="svg1"
   width="1333.3333"
   height="1333.3333"
   viewBox="0 0 1333.3333 1333.3333"
   sodipodi:docname="addsticker.svg"
   inkscape:version="1.3 (0e150ed6c4, 2023-07-21)"
   xmlns:inkscape="http://www.inkscape.org/namespaces/inkscape"
   xmlns:sodipodi="http://sodipodi.sourceforge.net/DTD/sodipodi-0.dtd"
   xmlns="http://www.w3.org/2000/svg"
   xmlns:svg="http://www.w3.org/2000/svg">
  <defs
     id="defs1" />
  <sodipodi:namedview
     id="namedview1"
     pagecolor="#ffffff"
     bordercolor="#000000"
     borderopacity="0.25"
     inkscape:showpageshadow="2"
     inkscape:pageopacity="0.0"
     inkscape:pagecheckerboard="0"
     inkscape:deskcolor="#d1d1d1"
     inkscape:zoom="0.63162317"
     inkscape:cx="695.03467"
     inkscape:cy="790.81963"
     inkscape:window-width="2560"
     inkscape:window-height="1369"
     inkscape:window-x="1912"
     inkscape:window-y="-8"
     inkscape:window-maximized="1"
     inkscape:current-layer="g1" />
  <g
     inkscape:groupmode="layer"
     inkscape:label="Image"
     id="g1">
    <path
       id="path1"
       style="fill:#fdf8f1"
       d="M 768.55469 159.36914 C 756.96888 159.09161 744.7307 159.92785 731.11914 161.8125 C 700.17395 166.09716 673.8455 167.99251 644.66602 168.03711 C 628.53269 168.06178 597.33396 168.66948 575.33398 169.38672 C 553.33401 170.10396 513.1333 171.33713 486 172.12891 C 458.8667 172.92069 428.56601 174.10073 418.66602 174.75 C 408.76603 175.39928 377.56729 176.4917 349.33398 177.17773 C 184.73093 181.17739 161.6504 192.34054 175.33203 261.33398 C 181.70422 293.46758 181.72035 435.53594 175.36328 535.33398 C 173.29414 567.81689 171.42786 604.35192 169.71094 646 C 167.92759 689.25948 168.41125 1057.629 170.26758 1070 C 171.1479 1075.8667 172.8303 1087.2673 174.00586 1095.334 C 182.57202 1154.1146 199.49183 1167.8537 267.69727 1171.4082 C 287.69772 1172.4506 311.99776 1173.9085 321.69727 1174.6484 C 331.39679 1175.3884 358.53335 1176.0764 382 1176.1777 C 405.46664 1176.279 443.86735 1176.7667 467.33398 1177.2617 C 608.72516 1180.2443 735.08994 1178.485 800.79102 1172.6191 C 829.73052 1170.0354 853.38022 1168.9699 904.79102 1167.9336 C 941.38945 1167.1959 973.13399 1166.3209 975.33398 1165.9883 C 977.53398 1165.6558 992.83397 1163.5572 1009.334 1161.3262 C 1069.6176 1153.1751 1078.3027 1151.8742 1094.5117 1148.5566 C 1133.7884 1140.5176 1152.5519 1126.88 1159.6367 1101.2246 C 1162.8723 1089.508 1163.1333 971.79948 1160 937.33398 C 1157.0132 904.47882 1157.5251 507.34895 1160.5977 473.66797 C 1166.0141 414.29541 1159.549 394.41112 1119.3555 346.81641 C 1109.3221 334.93555 1076.2697 309.9445 1056.666 299.41602 C 1050.066 295.87138 1042.7563 291.5519 1040.4219 289.81836 C 1038.0875 288.08483 1035.6459 286.66602 1034.9961 286.66602 C 1033.7843 286.66602 1022.4719 278.78407 1015.334 272.9668 C 1013.134 271.17384 1009.2907 268.65974 1006.793 267.37891 C 1004.2954 266.09807 1001.0855 263.96478 999.66211 262.63867 C 998.2387 261.31256 992.18203 257.37368 986.20312 253.88672 C 980.22423 250.39975 970.83398 244.83455 965.33398 241.51758 C 933.68941 222.43313 846.73247 178.52934 824.36523 170.34375 C 805.35858 163.38801 787.86437 159.8317 768.55469 159.36914 z M 671.03711 260.70703 C 743.12044 261.7908 752.31856 274.53174 770.4043 320 C 787.27044 362.40217 785.98049 353.12236 786.15234 433.33398 C 786.36304 531.67651 789.31772 547.20549 810.62109 561.96875 C 833.31608 577.69638 857.1072 572.02445 887.76953 543.58008 C 908.28136 524.55197 935.82531 512.91456 996.96484 497.44141 C 1007.9995 494.64875 1025.047 493.71575 1027.4004 495.77539 C 1028.0971 496.3851 1031.366 497.63164 1034.666 498.54688 C 1044.9706 501.40482 1054.8112 508.98075 1059.4121 517.59961 C 1065.3327 528.69063 1065.3123 527.96071 1064.459 710.66602 C 1063.6481 884.30092 1064.3906 932.11622 1068.3398 960.66602 C 1071.6488 984.58722 1070.4739 1031.4284 1066.3496 1040 C 1058.5247 1056.2625 1049.9322 1061.1423 1022.8164 1064.7227 C 1014.3005 1065.8471 1003.734 1067.3464 999.33398 1068.0547 C 961.63829 1074.1227 957.34829 1074.4786 918.66602 1074.75 C 841.27313 1075.2929 787.10588 1078.0115 760.66602 1082.6816 C 755.86908 1083.5289 721.43615 1084.2834 674.66602 1084.5645 C 631.76606 1084.8223 584.66665 1085.3654 570 1085.7715 C 555.33334 1086.1777 540.03333 1085.9892 536 1085.3535 C 531.96666 1084.7179 512.7673 1084.1337 493.33398 1084.0547 C 286.26104 1083.2112 276.48717 1081.9135 265.13672 1053.7754 C 259.52443 1039.8623 260.79828 653.35038 266.69141 582 C 267.41824 573.20002 268.66218 553.10064 269.45703 537.33398 C 270.25188 521.56733 271.19825 502.96666 271.55859 496 C 271.91893 489.03334 272.50505 442.83393 272.86133 393.33398 C 273.79139 264.11423 268.52561 271.68187 358.66602 269.99219 C 382.49933 269.54544 411.00001 268.59794 422 267.88672 C 432.99999 267.1755 463.30068 266.03331 489.33398 265.34961 C 515.3673 264.66592 554.06734 263.4862 575.33398 262.72852 C 615.99432 261.27986 647.00933 260.34578 671.03711 260.70703 z M 875.01562 301.67578 C 877.18597 301.99697 880.05288 303.05608 883.67383 304.76758 C 894.63078 309.94655 938.21798 336.10948 954.41211 347.22852 C 979.20141 364.24908 997.83146 376.0745 1008.123 381.32227 C 1034.4386 394.74077 1032.7912 401.30987 1003.1055 401.32617 C 989.84317 401.33344 974.4734 404.03119 961.38672 408.64844 C 958.39517 409.70393 951.90806 411.4321 946.97266 412.49023 C 929.79726 416.1726 920.57101 418.88894 905.28711 424.75977 C 878.83422 434.92079 880.00861 436.5664 879.97461 389.22852 C 879.94639 349.89123 879.04839 341.41026 872.75781 320.98047 C 868.26382 306.38542 868.5046 300.71222 875.01562 301.67578 z " />
    <path
       id="path1-3"
       style="fill:#fdf8f1"
       d="M 654.60742 483.80078 C 635.9049 482.75727 609.05429 499.70871 589.4707 532.43359 C 570.73344 563.74423 588.08749 592.72774 615.49023 575.88867 C 626.03022 569.41187 629.33398 574.68688 629.33398 598 C 629.33398 617.99325 635.88352 631.45722 647.97461 636.31641 C 661.3867 641.70651 727.20788 658.66312 743.25977 660.86328 C 763.88714 663.69058 762.39468 668.29668 731.75781 696.3457 C 703.24024 722.45437 707.26965 742.00795 742.66602 749.27148 C 773.05359 755.50719 823.95993 770.34429 828.23242 774.21094 C 832.97742 778.50504 831.30113 782.25115 818.87305 795.12109 C 795.51047 819.31422 796.54244 834.05093 822.51172 847.05664 C 834.89661 853.25914 854.66602 872.9325 854.66602 879.05469 C 854.66602 883.56626 847.45659 889.33902 832.56641 896.74609 C 802.94374 911.4818 799.31501 938.88101 826.08398 945.69922 C 836.01237 948.22805 851.9226 942.4343 873.61328 928.38867 C 878.95978 924.9266 888.43262 919.33262 894.66602 915.95898 C 925.52498 899.25731 921.76556 876.68504 881 833.91602 C 864.25172 816.34462 864.27028 817.43846 880.35547 797.77148 C 906.92144 765.29012 889.33522 742.08874 822.45898 721.39062 C 789.97492 711.33688 788.72078 709.62373 803.66406 695.71094 C 820.93145 679.63434 823.86264 676.12148 828.71094 665.70312 C 840.77723 639.77448 826.52145 629.05263 762.66602 616.0293 C 701.28468 603.51056 684.80591 599.11506 679.97852 593.97656 C 675.88412 589.61821 673.56743 544.19585 676.20312 519.9375 C 678.77033 496.30935 669.15383 484.6124 654.60742 483.80078 z M 540.10742 622.64844 C 531.74005 621.66358 522.45369 626.82241 513.12695 637.81836 C 508.68833 643.05137 503.2617 648.96244 501.06836 650.95312 C 435.0096 710.90889 428.21588 718.2276 405.41211 754 C 400.73735 761.33333 393.79295 772.13335 389.98047 778 C 386.16799 783.86666 379.86724 794.06602 375.98047 800.66602 C 372.09368 807.26601 366.43644 816.86668 363.4082 822 C 339.44772 862.61668 338.43707 899.24687 360.75781 918.08594 C 365.04595 921.70518 376.68067 932.67122 386.61133 942.45508 C 405.36185 960.92845 412.47505 966.00515 429.33398 972.94922 C 446.96142 980.20983 477.17415 988.9857 492 991.15039 C 501.81832 992.58393 569.81008 991.81722 585.73047 990.09375 C 595.41206 989.04567 610.28881 987.54374 618.79102 986.75586 C 632.8177 985.45605 648.68243 982.70387 689.33398 974.51367 C 720.92355 968.1492 734.64911 958.99024 734.66211 944.26758 C 734.67861 925.29288 719.78647 919.4621 690 926.7832 C 687.0667 927.50418 677.16669 929.23201 668 930.62305 C 658.83341 932.01408 645.63271 934.36266 638.66602 935.8418 C 631.69932 937.32094 614.9006 939.48711 601.33398 940.6543 C 587.76733 941.82148 572.76666 943.33867 568 944.02734 C 506.65887 952.88971 438.29321 934.38716 406.39844 900.28906 C 396.13208 889.31349 394.27705 861.95701 402.89648 848.64062 C 403.38027 847.89321 404.99912 844.06616 406.49219 840.13672 C 407.98526 836.20728 410.61898 830.82052 412.3457 828.16406 C 414.07242 825.5076 418.21389 819.13332 421.54883 814 C 424.88375 808.86668 429.95005 800.86166 432.80664 796.21094 C 437.64626 788.33171 447.62213 773.12104 456.11914 760.66602 C 463.03921 750.52249 477.19018 734.9414 488.24023 725.29688 C 494.3418 719.97142 502.50965 712.55035 506.39062 708.80664 C 516.45526 699.098 517.1994 698.41077 525.33398 691.30273 C 557.12443 663.52411 566.10142 637.69456 548.13672 625.69336 C 545.58487 623.98861 542.89654 622.97672 540.10742 622.64844 z M 669.75781 758.07422 C 667.41873 757.84336 665.23705 757.97082 663.28516 758.50977 C 640.17968 764.88948 638.94895 789.27562 661.01562 803.47266 C 674.36631 812.06206 677.07048 824.08459 669.33398 840.45898 C 661.51249 857.01314 665.35638 870.03212 680.00977 876.61523 C 707.38304 888.91285 731.935 836.8803 717.25781 797.67578 C 710.22212 778.88282 686.13142 759.69022 669.75781 758.07422 z M 568.99805 804.43164 C 553.33313 803.95404 538.97669 821.01439 548.28516 838.66602 C 550.53973 842.94136 553.14422 845.52835 557.3418 847.66602 C 581.17505 859.80346 603.1221 830.23343 584.27148 811.38281 C 579.58689 806.69822 574.21969 804.59084 568.99805 804.43164 z " />
  </g>
</svg>
